<?xml version="1.0" encoding="utf-8"?>
<!-- Generator: Adobe Illustrator 26.1.0, SVG Export Plug-In . SVG Version: 6.00 Build 0)  -->
<svg version="1.1" id="Layer_1" xmlns="http://www.w3.org/2000/svg" xmlns:xlink="http://www.w3.org/1999/xlink" x="0px" y="0px"
	 viewBox="0 0 400 200" style="enable-background:new 0 0 400 200;" xml:space="preserve">
<style type="text/css">
	.st0{fill:#B37E3E;}
	.st1{fill:#F1A63B;}
	.st2{fill:#AE7A5F;}
	.st3{fill:#DDD6DF;}
	.st4{fill:#5F5355;}
	.st5{fill:#81675F;}
	.st6{fill:#8E6B48;}
	.st7{fill:#EDA451;}
	.st8{fill:#F6CC8F;}
	.st9{fill:#E16D36;}
	.st10{fill:#C79E6E;}
	.st11{fill:#948383;}
	.st12{fill:#BEA69E;}
	.st13{fill:#EA9639;}
	.st14{fill:#DB8538;}
	.st15{fill:#F5BB3F;}
	.st16{fill:#E99639;}
	.st17{fill:#DA8538;}
	.st18{fill:#4E2C30;}
	.st19{fill:#2B2E3E;}
	.st20{fill:#B27E3E;}
	.st21{fill:#3C6470;}
	.st22{fill:#A9392F;}
	.st23{fill:#3C6570;}
	.st24{fill:#C94734;}
	.st25{fill:#81423B;}
</style>
<g>
	<path class="st0" d="M391.9,0.4c2.4,0,4.9,0,7.3,0c0.7,0.2,1,0.7,1,1.4c0,0.3,0,0.7,0,1c0,14.1,0,28.1,0,42.2c0,10.6,0,21.3,0,31.9
		c0,8.2,0,16.5,0,24.7c0,0.7,0.1,1.4-0.2,2.1c-0.6,0.5-1,1.1-0.9,1.9c0.1,1-0.6,1.8-0.9,2.6c-1.1,2.8-3,5-5.9,6
		c-2.4,0.7-4.8,1.5-7.4,1c-1.2,0.1-2.3,0-3.4,0.9c-0.8,0.6-2.1,0.6-3,0.8c-1.8,0.3-3.4,1-5.2,1.4c-0.7,0.2-1.3,0.5-1.9,0.8
		c-2.4,1.2-5,1.9-7.4,3.2c-0.1,0.1-0.3,0.1-0.4,0.2c-1.2,2-3.7,3-4.5,5.4c-0.4,1.4-0.5,2.8-0.2,4.2c0.5,2.5,1.5,4.7,3.6,6.3
		c0.7,0.5,0.8,1.3,0.8,2c0,0.5-0.1,1,0.5,1.3c0.6,0.6,1.3,1,1.5,2c0,0.1,0.1,0.2,0.1,0.2c2,0.5,2,3.4,4.2,3.7
		c0.6,0.1,0.7,0.7,0.7,1.3c-0.2,1.3-1.3,1.9-2,2.7c-0.4,0.5-1,1-1.5,1.5c-1.5,0-2.8-0.8-3.7-1.8c-1.3-1.4-3.1-1.9-4.5-3
		c-1.7-1.4-3.6-1.1-5.5-1.1c-1.5,0-2.9,0-4.4,0c-1,0-2,0-2.9,0.8c-0.8,0.6-1.9,0.7-3,0.6c-0.6-1-1.2-2.1-1.4-3.3
		c-0.2-1.1-1.1-1.9-1.4-3c-0.3-1-1-1.9-1.5-2.8c-0.8-1.4-1.1-3-1-4.6c0.1-1.4-0.9-2.4-1.6-3.5c-0.7-1-1.2-2-1.6-3.2
		c-0.6-1.6-1.3-3.2-2.2-4.6c-0.6-1-1-2.1-1.5-3.1c-0.8-1.4-1.2-3-1.7-4.5c-0.6-1.7-2-2.9-2.7-4.5c-0.3-0.8-0.8-1.6-1.1-2.4
		c-0.4-1.2-1.2-2-2-2.8c-0.5-2.2-2.1-4-3-6c-1.7-3.6-4.3-6.7-7.4-9.3c-0.6-0.5-1.5-0.4-2-1c-0.5-0.8-1.4-0.5-2.1-0.5
		c-3.8,0-7.6,0-11.4,0c-0.6,0-1.1,0-1.7-0.1c-2.4,0.4-4.7-0.3-7-1c-0.9-0.3-1.6-1-2.5-1.3c-0.8-0.9-0.6-2.1-1.2-3.1
		c-0.8-1.4-2.1-1.8-3.2-2.5c-0.5-0.3-1.1-0.5-1.5-1c-0.5-0.6-1-0.9-1.7-1.1c-1.2-0.3-1.8-1.1-1.9-2.3c-0.3-2.8,0.8-4.5,3.4-5.6
		c1-0.4,1.9-0.9,3-0.7c1.6,0,3.2-0.3,4.7,0.6c0.4,0.3,1,0.2,1.5,0.2c1.3,0,2.4,0.2,3.6,0.8c1.7,0.8,3.7,0.5,5.5,0.1
		c0.4-0.1,0.8-0.6,0.9-1c0.6-2.4,1.7-4.6,1.7-7.1c0-3.7-0.4-7.3-1.2-10.9c-0.2-0.7-0.2-1.5-0.2-2.2c0-1.5,0.2-3-0.7-4.4
		c-0.2-0.3-0.2-0.6-0.2-1c0.1-2.7-0.7-5.2-1-7.8c-0.4-3.4-1.4-6.7-1-10.1c0.1-1,0.1-2-0.7-2.8c-0.5-0.5-0.5-1.2-0.1-1.7
		c0.8-1,1.6-2.1,2.9-2.6c0.7-0.3,1.3-0.7,1.9-1.2c1.3-1.1,2.6-1.1,3.9,0c1.1,0.9,2,2,3,3c0.9,0.8,1.2,2.1,1.9,3.1
		c1.2,1.9,1.8,4.2,2.2,6.4c0.1,0.7,0.7,1.1,1,1.7c0.8,1.6,1.1,3.2,1,4.9c-0.1,0.9,0,1.8,0.7,2.6c0.7,0.7,0.6,1.9,0.8,2.8
		c0.4,1.7,1.3,3.2,1.7,5c0.4,2,1.2,3.9,2.2,5.7c0.1,0.2,0.2,0.3,0.3,0.5c0.5,2.6,2.1,4.7,3,7.1c0.7,1.8,1.6,3.5,2.2,5.4
		c0.3,0.9,0.9,1.5,1.3,2.3c0.7,1.5,0.8,3.3,1.9,4.6c0.2,0.2,0.2,0.7,0.7,0.6c0.3-0.1,0.3-0.4,0.4-0.7c0.5-2.3,1.2-4.5,2.3-6.5
		c0.4-0.6,0.5-1.3,0.6-2c0.2-1.2,1.1-1.5,1.9-0.6c0.9,0.9,1.7,2.2,1.9,3.4c0.3,2.2,1.5,3.9,2.4,5.6c0.5,1,0.9,1.8,0.8,2.9
		c-0.1,2,0.7,3.7,2,5.2c1.2,1.4,1.8,3.4,2.8,5c0.9,1.6,1,3.4,1.9,4.9c1.7,3.2,3.1,6.5,4.9,9.6c0.3,0.5,0.5,1.1,0.7,1.7
		c0.5,1,0.7,2.2,2.1,2.3c0.3,0,0.4,0.4,0.5,0.6c0.7,1.8,1.9,3,3.9,3.1c0.6,0.1,1.2,1,1.8,0.4c0.5-0.5,0.2-1.4,0.3-2.2
		c0.1-1.1-0.5-2.2-1-3c-0.8-1.3-1.2-2.7-1.5-4c-0.4-1.9-1.4-3.6-1.6-5.6c-0.2-1.7-0.8-3.4-0.7-5.2c-0.1-3.6-0.1-7.3,0-10.9
		c-0.5-2.4,0.6-4.5,1-6.7c0.1-0.8,0.8-1.3,1.1-2.1c1.5-3.3,2.2-6.7,1.8-10.3c0-0.3,0.1-0.6-0.1-0.8c-1-1.3-0.7-2.9-1.2-4.2
		c-0.8-2-0.5-4.1-0.6-6.1c-0.1-5.1-0.1-10.2,0-15.3c-0.3-4.8,0-9.7,0.4-14.5c0.3-3.7,0.3-7.4,1.1-11c0.5-2.3,0.4-4.6,0.6-6.8
		c0.1-0.4,0.3-0.7,0.7-0.8c1.3,0,2.6,0,3.9,0c0.4,0.1,0.7,0.3,0.9,0.7c0.3,1,0.1,2,0.2,2.9c0,1.1-0.2,2.3,0.8,3.2
		c0.3,0.3,0.3,0.8,0.3,1.2c-0.2,1.3,0.5,2.5,0.9,3.6c0.2,0.5,0.6,0.9,1.1,1.1c1.3,0.4,2.3,1.5,3.6,1.8c0.3,0.5,0.8,0.5,1.3,0.5
		c1.2,0,2.5-0.3,3.7,0.3c0.6,0.5,0.9,1.7,1.8,1.3c0.9-0.3,0.5-1.5,0.5-2.3c0.1-2.6,0-5.1,0-7.7c0-0.7-0.1-1.4,0.4-2
		c1.1-0.6,1.8,0.2,2.4,0.9c0.9,0.9,1.9,1.7,2.7,2.7c0.1,0.2,0.3,0.4,0.5,0.5c2.6,0.7,2.2,3,2.6,4.9c0.6,3.4,0.2,7,0.7,10.4
		c0.4,2.6,0.7,5.1,0.7,7.6c0,0.1-0.1,0.4,0.1,0.5c0-0.1,0-0.3,0-0.4c0-2.4,0-4.9,0.3-7.3c0.3-2.6,0.6-5.3,0.9-7.9
		c0.2-2.2,0.8-4.3,0.8-6.6c0-1.2,0-2.4,0.6-3.5c0.3-0.5,0.2-1.1,0.2-1.7c0-1.3-0.1-2.6,0.1-3.9C391.3,0.7,391.5,0.5,391.9,0.4z"/>
	<path class="st1" d="M270.3,200.1c-0.2,0-0.4,0-0.6-0.1c-1-1.4-2.2-2.4-3.8-3.2c-1.6-0.8-2.9-2.2-3.7-3.9c-0.2-0.4-0.4-0.6-0.7-0.8
		c-2.3-1.5-4-3.6-5.9-5.4c-0.7-0.6-1.3-1.3-2.2-1.5c-1.2-0.3-1.6-1.5-2.5-2.2c-0.9-0.7-1.8-1.5-2.5-2.5c-0.9-1.2-2.4-1.6-3.6-2.1
		c-1.5-0.7-2.4-1.9-3.5-3c-0.6-0.6-1.1-1.1-1.9-1.3c-0.9-0.3-1.7-1-2-1.9c-0.6-1.8-2-3-3.5-3.7c-1.6-0.8-2.5-2-3.7-3.1
		c-0.5-0.5-1-1-1.6-1.4c-2.2-2.2-4-4.7-6.7-6.4c-1-0.6-1.5-1.7-2.4-2.3c-2.1-1.5-4.2-2.9-5.9-4.9c-0.5-0.6-1-1.1-1.2-1.9
		c-0.1-0.5-0.4-0.9-0.9-1.3c-3-2.4-5.5-5.3-8.3-7.8c-2-1.8-4.1-3.5-6-5.4c-0.9-0.9-1.6-1.8-2.5-2.7c-1.4-1.4-3.4-1.9-4.8-3.4
		c-1.3-1.4-3.1-2.3-3.7-4.3c-0.1-0.2-0.2-0.4-0.4-0.6c-3-3.1-5.8-6.4-9.1-9.1c-0.7-0.6-1.1-1.7-2.2-1.9c-1.9-1.6-3.9-3.1-5.8-4.7
		c-1.2-1-2.7-1.2-3.9-2.1c-1.8-1.4-3.4-2.8-4.1-5c-0.3-1-0.4-2-0.2-3c0.4-1.8,1.1-2.5,3-2.5c1.5,0,2.9,0.5,4.4,0.8
		c0.4,0.4,0.7,0.8,1.3,0.9c0.4,0.1,0.8,0.2,1,0.5c1,1.5,2.7,2.1,4.1,3c0.4,0.2,0.8,0.3,1.2,0.3c0.7,0,1.4-0.1,2.1,0
		c3.8,0.5,7-0.7,10-3c2.6-0.3,5.3-0.1,7.9-0.1c0.4,0,0.8,0.1,1.1,0.4c0.7,0.6,1.5,0.6,2.4,0.7c3,0.6,6.1,1.1,8.2,3.6
		c0.6,0.7,1.4,1.2,2.1,1.9c2,2,2.5,4.5,2.9,7.1c0.3,1.7,0.9,3.4,1.4,5c0.4,1.4,1.9,2.4,3.3,3.3c1.7,1.1,3.6,1.6,5.2,2.7
		c0.1,0.1,0.2,0.2,0.4,0.2c1.8-0.1,3.4,1.1,5.2,1c1-0.1,1.8,0.1,2.6,0.8c0.8,0.6,1.9,0.5,2.8,0.9c1.4,0.5,2.6,1.4,4,1.6
		c0.6,0.1,1.1,0.6,1.5,0.9c1.3,1.1,2.8,1.8,4.6,1.8c0.5,0,1,0,1.4,0.2c1.2,1,2.6,0.9,4,0.9c1.1,0,2.2,0.2,3.3,0.5
		c0.5,0.2,1.1,0.3,1.7,0.3c1.9,0.1,3-0.7,3.4-2.5c0-0.2,0.1-0.4,0-0.5c-0.8-0.8-0.7-2.1-1.3-2.9c-1.9-2.5-3-5.4-5-7.8
		c-1.2-1.4-2-2.9-3-4.4c-0.6-0.8-0.3-1.4,0.7-1.5c0.3,0,0.6,0,0.8,0.1c1.4,0.8,2.9,0.7,4.4,0.7c0.9,0,1.7,0.1,2.4,0.7
		c0.5,0.5,1.2,0.4,1.9,0.4c1.4,0,2.7-0.1,4,0.7c0.5,0.3,1.1,0.2,1.7,0.2c0.9,0,1.7,0.1,2.4,0.7c0.5,0.5,1.2,0.5,1.7,0.4
		c2.3-0.4,4.3,1,6.5,1c0.8,0,0.9,0.9,1.5,1.2c0.8,0.7,1.3,1.4,1.7,2.5c0.5,1.6,1.7,3,2.3,4.6c0.7,1.7,2,2.9,2.9,4.4
		c1.1,1.8,2.6,3.5,4.7,4.5c0.2,0.1,0.5,0.1,0.6,0.3c0.7,1.9,3,2.2,3.9,3.8c2.2,2.3,4.6,4.4,6.9,6.7c1,1.1,2.2,2,3.1,3.2
		c0.3,0.5,0.7,0.9,1.2,1.2c0.3,0.7,0.3,1.4,0.9,2c0.5,2.5,2,4.6,3,6.8c0.8,1.7,1.7,3.3,2.4,5c0.1,0.2,0.1,0.4,0.2,0.5
		c1.4,0.9,1.7,2.7,2.8,3.8c0.3,0.3,0.6,0.6,0.7,1c0.4,2.7,2.6,4.1,4.3,5.9c0.2,0.2,0.6,0.3,0.6,0.6c0.6,2.6,3.3,3.1,4.8,4.8
		c1.4,1.4,2.4,3.1,2.6,5.1c0.1,0.6,0.5,0.9,0.7,1.3c0.5,2.5,1.2,5,1.5,7.6c0.2,1.6,0.9,3.1,0.7,4.8c-0.1,0.6,0,1.1-0.3,1.6
		c-0.1,0.1-0.3,0.2-0.4,0.3c-0.5,0.2-0.9,0.1-1.4,0.1c-18.3,0-36.6,0-54.9,0C270.8,200.3,270.6,200.3,270.3,200.1z"/>
	<path class="st2" d="M366.7,152.9c0.9-1,1.7-2.1,2.6-3.1c0.2-0.3,0.4-0.5,0.5-0.8c1.4-0.6,2.9-0.2,4.3,0c3.2,0.6,6.4,0.3,9.6,0.2
		c1,0,2.7-2,2.9-3.2c0.3-2.1-0.1-4.1-0.3-6.2c0-0.1,0-0.3-0.1-0.4c-1.3-0.9-1.6-2.4-2.5-3.5c-0.2-0.4-0.2-0.8,0-1.1
		c1.5-0.9,3.2-1.4,4.7-2.4c1-0.7,2-1.3,3.2-1.7c0.4-0.1,0.8-0.4,1.2-0.3c1.5,0.1,2.3,1.3,3.3,2.3c1.4,1.4,2.8,2.8,4.2,4.2
		c0.2,0.4,0.2,0.8,0.2,1.2c0,9.4,0,18.8,0,28.1c0,0.4,0,0.8,0,1.1c0,0.2-0.1,0.3-0.2,0.4c-1.2,1.1-2.7,1.8-4.2,2.4
		c-1.6,0.7-2.3,2.1-3.6,3.1c-0.5,0.3-0.9,0.7-1.4,0.9c-1.6,0.6-2.7,2.2-2.7,3.9c0,3.1,0,3.1,3,4.4c1.1,0.4,2.1,1,3.1,1.5
		c1.3,0.6,2.7,1,4.1,1.2c0.5,0.1,1,0,1.5,0.3c0.4,0.5,0.4,1,0.3,1.5c0,1.6,0,3.2-0.1,4.8c-0.8,0.6-1.6,0.6-2.3,0
		c-0.5-0.5-1.1-0.6-1.7-0.9c-1.1-1-2,0.1-2.6,0.5c-0.9,0.6-2,1-3,1.5c-1.1,0.5-1.8,1.2-2.6,1.9c-0.6,0.5-0.4,1.5-1,2
		c-2,1.2-4.2,1.7-6.4,2.2c-0.1,0-0.3,0-0.4,0.1c0.1,0.2,0.3,0.1,0.5,0.1c2.1,0,4.2,0,6.3,0c1.3,0,2.6-0.1,3.9,0.1
		c0.5,0,1,0.1,1.2,0.7c-0.4,0.2-0.8,0.5-1.2,0.5c-4.6,0-9.2,0.1-13.8,0c-1.6,0-3.2-0.3-4.8-0.5c-0.8,0.2-1.6,0.2-2.3-0.2
		c-1.9-2-4-3.9-6-5.7c-0.7-0.6-1.4-1.2-1.5-2.1c-0.1-0.4-0.3-0.8-0.6-1.1c-2.7-2.9-5.3-5.8-8.3-8.2c-1.7-1.4-3.8-2.5-5.8-3.5
		c-2.1-1.1-4.2-1-6.4-1c-2.5,0-5.1,0-7.6,0c-0.7,0-1.3,0.1-1.9-0.3c-0.3-0.5-0.2-0.9,0.3-1.2c2.2-1.1,4.3-2.3,6.6-3.3
		c2.5-1.2,5.2-1.6,7.9-2c1.2-0.2,2.2-1,3.2-1.6c0.6-0.4,0.7-1,0.2-1.6c-1.6-1.9-3.3-3.7-5.9-3.8c-1.1,0-1.5-0.8-2.1-1.5
		c-0.8-1.7-1.4-3.6-2.9-5c-0.2-0.2-0.3-0.4-0.4-0.7c-0.6-1.9-1.7-3.5-2.7-5.2c-0.3-0.4-0.5-0.8,0-1.2c0.9-0.4,1.9-0.3,2.8-0.3
		c0.7,0,1.3,0.1,1.8,0.7c1.2,1.4,2.9,1.8,4.7,2.3c1.4,0.4,2.8,1,3.8,2.2c0.6,0.8,1.4,1.4,2.4,1.7c0.6,0.1,0.9,0.6,1.3,1
		c1.8,1.7,3.7,3.4,5.7,4.9c2.7,2,4.8,4.7,7.3,7.1c1.3,1.2,2.8,1.8,4.5,1.9c1,0.1,1.9,0,2.7,0.8c0.5,0.5,1.2,0.5,1.5-0.3
		c0.5-1.2,1.3-2.1,1.8-3.3c0.4-1,0.4-2-0.5-2.7c-1.2-0.9-1.5-2.3-2-3.6c-0.1-0.3-0.1-0.6-0.3-0.8c-1.3-0.9-1.8-2.4-2.6-3.6
		c-1.2-1.7-2.3-3.5-3.8-5C366.4,153.6,366.5,153.2,366.7,152.9z"/>
	<path class="st3" d="M41.1,200.6c-13.3,0-26.6,0-39.8,0c-0.4,0-1.2-0.8-1.2-1.3c-0.1-19.2,0-38.3,0-57.5c0.2-0.2,0.5-0.3,0.8-0.4
		c0.9,0,1.7-0.3,2.6-0.3c1.9,1.8,4.3,3,6.4,4.5c1.3,0.9,2.4,1.9,2.5,3.5c0,0.6,0.4,1.1,0.8,1.4c1.2,1,2,2.5,3.6,3
		c0.7,0.2,1.2,1.1,1.7,1.7c1.4,1.6,3.3,2.8,4.4,4.7c0.6,1.1,1.8,2,2.7,3c2.4,2.6,3.6,5.8,4.6,9.1c0.3,1,0.2,2.1,0.1,3.1
		c-0.1,3,0,5.9,0.9,8.8c0.5,1.6,1.4,3.1,2.2,4.7c0.9,1.8,2,3.6,3.5,5c0.1,0.1,0.2,0.2,0.2,0.3c0.1,2.3,2,3.4,3.3,4.9
		c0.2,0.2,0.4,0.5,0.6,0.8C41.3,200.1,41.3,200.4,41.1,200.6z"/>
	<path class="st4" d="M174.3,200.2c-0.7,0-1.4,0-2.1,0c-1.8,0.4-3.4-0.5-5.1-0.5c-1.6,0.1-3.3,0.2-4.9-0.1c-1-0.6-2.2-0.2-3.2-0.7
		c-0.9-0.6-1.4-1.5-1.9-2.5c-0.9-1.9-1.7-4-3.3-5.6c-0.4-0.4-0.3-1-0.6-1.4c-1.3-2.5-2.4-5.3-4-7.6c-1-1.4-1.9-3-2.9-4.4
		c-0.9-1.2-2.2-2.7-1.7-4.6c1.9-1.7,3.8-3.5,5.3-5.5c0.6-0.8,1.4-1.4,2.1-2.1c1.7-1.6,3-3.6,4.6-5.3c0.7-0.7,1.4-1.2,2.5-1
		c1.3,1.4,3.1,2.4,3.2,4.7c0.1,1.1,0.8,2.3,1.6,3.2c1.4,1.5,2.6,3.2,3.8,4.9c0.9,1.4,2.5,2.6,2.8,4.4c0,0.3,0.2,0.6,0.5,0.7
		c1.6,1,2.1,2.7,3,4.2c0.6,0.9,0.5,2,0.9,2.9c1.6,4.1,2.1,8.4,1.6,12.7c-0.1,1.1,0.1,2.2-0.4,3.2
		C175.5,200.3,174.9,200.3,174.3,200.2z"/>
	<path class="st5" d="M214.9,200.6c-6.7,0-13.4,0-20.1,0c-0.2-0.3-0.2-0.6-0.1-0.9c0.1-0.1,0.2-0.2,0.4-0.2c2.1-0.3,4.2-0.1,6.3-0.1
		c3.4,0,6.8,0,10.1,0c1.3,0,1.3-0.1,0.9-1.3c-0.2-0.6-0.5-1.2-1.1-1.4c-2.3-0.8-3.6-2.9-5.4-4.4c-1.4-1.2-2.9-2.3-4.6-3.1
		c-0.7-0.3-1.1-0.6-0.9-1.5c0.5-0.6,1.3-0.6,1.9-0.9c1.9-0.9,3.4-2.4,5.3-3.2c1.6-0.6,2.8-1.7,3.9-2.9c1-0.5,1.6,0,1.6,1
		c0,1.3,0.7,2.1,1.6,2.9c1,1,1.8,2.2,2.7,3.3c1.2,1.7,2.4,3.6,4.6,4.4c1.2,0.4,2,1.4,2.8,2.3c1.9,2.1,2.8,2,4.9,0c2-2,3.9-4.2,6-6.1
		c1.6-0.4,1.7-0.3,2.5,1.2c0.3,0.7,0.8,1.3,1.5,1.6c1.1,0.3,1.8,1,2.4,1.8c0.3,0.3,0.6,0.7,1,0.8c1.4,0.4,2.2,1.4,3.1,2.3
		c0.6,0.6,1.3,1.1,2.2,1.4c1.3,0.5,1.6,1.5,0.8,2.5c-0.6,0.2-1.2,0.1-1.8,0.1c-10.3,0-20.5,0-30.8,0
		C216.1,200.3,215.5,200.1,214.9,200.6z"/>
	<path class="st6" d="M228.8,163.9c1,0.7,2,1.3,2.9,2.1c1.9,1.5,3.8,3.1,5.6,4.7c0.7,0.6,1,1.7,1.7,2.3c2.1,1.7,4.3,3.2,6.4,4.9
		c2.6,2.1,5,4.4,7.5,6.5c1.3,1.1,2.8,2.1,4.1,3.2c1.8,1.5,4.5,2.6,5.3,4.5c1.5,3.4,4.9,4.1,6.9,6.5c0.3,0.4,0.4,0.9,0.6,1.4
		c-2.2,0-4.5,0-6.7,0.1c-0.3,0.1-0.4-0.1-0.5-0.2c-0.1-0.2-0.1-0.5-0.4-0.6c-2.1-0.5-3.1-2.4-4.5-3.7c-0.4-0.3-0.7-0.8-1.2-1
		c-2.1-0.8-3.4-2.4-4.7-4c-0.3-0.4-0.7-0.9-1.2-1c-2.5-0.8-3.8-3.1-5.7-4.7c-0.2-0.2-0.4-0.6-0.7-0.7c-2.1-0.5-3.2-2.3-4.5-3.6
		c-1.4-1.5-3-2.6-4.9-3.3c-1.1-0.5-2.2-1.2-3.5-1.3c-0.8-0.1-1-1-1.5-1.6c-0.8-2.8-1-5.8-1.3-8.7
		C228.3,165.1,228.2,164.4,228.8,163.9z"/>
	<path class="st7" d="M359.1,0.4c-0.1,0.2-0.2,0.3-0.3,0.5c-0.8,0.7-1.7,0.5-2.6,0.5c-10.7,0-21.5,0-32.2,0c-0.5,0-1,0-1.6,0
		c-0.8,0-1.3,0.2-1.3,1.1c0,0.3-0.1,0.7-0.2,1c-0.1,0.4-0.4,0.7-0.8,0.6c-0.4,0-0.6-0.3-0.7-0.6c-0.1-0.3-0.2-0.5-0.2-0.8
		c0-1-0.6-1.3-1.5-1.3c-0.6,0-1.2,0-1.8,0c-35.7,0-71.4,0-107.1,0c-0.7,0-1.4,0-2.1-0.1c-5,0.1-10,0.1-15,0
		c-0.6,0.1-1.1,0.1-1.7,0.1c-15.4,0-30.9,0-46.3,0c-0.6,0-1.1,0-1.7-0.1c-4,0.1-8,0.1-12,0c-0.4,0-0.7,0-1-0.3
		c-0.3-0.3-0.3-0.6,0-0.9c13.2,0,26.5,0,39.7,0c62.8,0,125.6,0,188.3,0C357.8,0,358.4,0.2,359.1,0.4z"/>
	<path class="st8" d="M0.9,141.9c-0.3,0-0.6,0-0.8,0c0-17,0-34,0-51c0-26.4,0-52.7,0-79.1c0-0.7,0.2-1.5,0.3-2.2
		c0.5,0,0.7,0.2,0.9,0.6c0.2,0.7,0.2,1.5,0.2,2.2c0,25.9,0,51.9,0,77.8c0,0.5,0,1-0.1,1.5c0.1,4.3,0.1,8.7,0,13c0.1,3,0.1,6,0,9.1
		c0.1,2.7,0.1,5.3,0,8c0.2,6.2,0.1,12.4,0.1,18.6C1.4,141,1.3,141.5,0.9,141.9z"/>
	<path class="st9" d="M0.9,9.9C0.7,9.8,0.5,9.7,0.4,9.6c0-2.8-0.1-5.5,0-8.3c0-0.3,0.8-0.9,1.2-0.9c1.2-0.1,2.5,0,3.8,0
		c0.7,0.2,1.4,0,2,0.6c0.1,0.2,0.2,0.4,0.4,0.5C10,3.2,10.9,5.6,12.1,8c0.2,0.4,0.3,0.9,0.3,1.4c0,0.7,0.1,1.5-0.6,1.9
		c-0.7,0.4-1.2,0-1.8-0.5c-0.5-0.4-1.1-0.3-1.6-0.3c-1.9,0-3.7,0-5.6,0C2.1,10.4,1.4,10.4,0.9,9.9z"/>
	<path class="st7" d="M7.1,0.9C6.6,0.7,6,0.5,5.4,0.4C5.9,0.2,6.3,0,6.8,0c19.9,0,39.8,0,59.8,0c0.2,0,0.4,0,0.6,0
		c0.3,0.4,0.2,0.7-0.2,1c-0.4,0.2-0.8,0.3-1.2,0.3c-6.2,0-12.4,0.1-18.7,0c-1.2,0.1-2.4,0-3.7,0.1c-0.8,0-1.5,0-2.1,0.6
		c-0.4,0.4-1,0.5-1.4,0.1C39,1.3,38,1.4,37,1.4c-9.2,0-18.3,0-27.5,0C8.7,1.4,7.8,1.5,7.1,0.9z"/>
	<path class="st2" d="M67.1,0.9c0-0.3,0-0.5,0-0.8c20.7,0,41.3,0,62,0c0,0.2,0,0.5,0,0.7c-0.7,0.8-1.7,0.6-2.5,0.6
		c-8.9,0-17.8,0-26.7,0c-7.3,0-14.7,0-22,0c-0.6,0-1.2,0-1.8-0.1c-2.4,0.1-4.9,0-7.3,0c-0.5,0-0.9,0-1.4-0.3
		C67.2,1,67.1,0.9,67.1,0.9z"/>
	<path class="st7" d="M270.3,200.1c0.6-0.1,1.3-0.3,1.9-0.3c18.5,0,37,0,55.5,0c0.2,0.3,0.2,0.5,0,0.8c-18.7,0-37.5,0-56.2,0
		C271.1,200.6,270.7,200.3,270.3,200.1z"/>
	<path class="st2" d="M127.8,200.6c-17.3,0-34.7,0-52,0c-0.3-0.4-0.3-0.7,0.1-1c0.5-0.3,1.1-0.3,1.6-0.3c11.2,0,22.4,0,33.6,0
		c0.2,0,0.5,0,0.7,0.1c4.2-0.1,8.4,0,12.6-0.1c0.8,0,1.7,0,2.3-0.7c1-0.4,1.3,0.2,1.4,1C128.2,200,128.1,200.4,127.8,200.6z"/>
	<path class="st7" d="M127.8,200.6c0-0.3,0-0.5,0-0.8c0.7-0.7,1.6-0.5,2.4-0.5c9,0,18,0,27,0c1.6,0,3.2,0,4.8-0.1
		c3.4,0.3,6.8,0.6,10.1,0.9c-0.3,0.2-0.6,0.5-0.9,0.5C156.8,200.7,142.3,200.6,127.8,200.6z"/>
	<path class="st4" d="M391.9,200.1c-0.4-0.1-0.8-0.2-1.2-0.3c-0.3-0.4-0.7-0.6-1.2-0.7c-1.3-0.4-2.2-1.1-2.8-2.4
		c0.3-0.7,0.5-1.3,0.8-2c1.2-0.8,2.5-0.4,3.8-0.5c0.7,0,1.4,0,2.1,0.1c0.4,0,0.8,0,1.3,0c0.9,0,1.4,0.5,1.5,1.4
		c0.1,1.3,0.2,2.6-0.1,3.9c-0.2,0.4-0.4,0.6-0.9,0.5C394.1,200.1,393,200.1,391.9,200.1z"/>
	<path class="st10" d="M399.8,45c0-14.2,0-28.4-0.1-42.5c0-0.7-0.4-1.4-0.5-2.1c0.5,0.2,1.3,0.4,1.3,0.7c0,14.7,0,29.3,0,44
		C400.3,45.2,400.1,45.2,399.8,45z"/>
	<path class="st5" d="M395.8,199.8c0-0.9-0.1-1.9,0-2.8c0.3-1.9-0.4-2.6-2.3-2.3c-0.3-0.5-0.1-1,0.4-1.1c1.2-0.2,1.5-0.9,1.5-2
		c0-0.3,0.1-0.6,0.4-0.9c1.4,0.4,2.8,0.8,4.2,1.2c0,0.2,0,0.4,0.1,0.5c0.3,2.1,0.1,4.3,0.1,6.4c0,0.5-0.2,1.1-0.8,1.2
		C398.2,200.3,397,200.6,395.8,199.8z"/>
	<path class="st11" d="M399.8,137.9c0-0.4,0-0.8,0-1.2c-0.5-0.5-0.5-1.2-0.5-1.9c0-9.8,0-19.5,0-29.3c0-0.7,0-1.3,0.5-1.9
		c0-0.7,0-1.3,0-2c0.3-0.2,0.5-0.2,0.8,0c0,12.1,0,24.1,0,36.2C400.3,138.2,400.1,138.2,399.8,137.9z"/>
	<path class="st11" d="M214.9,200.6c0.5-0.3,1.1-0.8,1.6-0.8c11.1-0.1,22.1,0,33.2-0.1c0.4-0.3,0.7-0.3,1.1-0.1
		c0.2,0.3,0.2,0.6,0,0.9C238.9,200.6,226.9,200.6,214.9,200.6z"/>
	<path class="st5" d="M75.8,199.8c0,0.3,0,0.5,0,0.8c-11.6,0-23.1,0-34.7,0c0-0.3,0-0.5-0.1-0.8c0.4-0.5,1-0.5,1.6-0.5
		c10.6,0,21.2-0.1,31.8,0c0.1,0,0.3,0,0.4,0.1C75.2,199.4,75.6,199.5,75.8,199.8z"/>
	<path class="st11" d="M399.8,45c0.3,0,0.5,0,0.8,0c0,10.6,0,21.2,0,31.9c-0.3,0.3-0.5,0.3-0.8,0C399.8,66.2,399.8,55.6,399.8,45z"
		/>
	<path class="st10" d="M399.8,137.9c0.3,0,0.5,0,0.8,0c0,10,0,20,0,29.9c-0.3,0.3-0.5,0.3-0.8,0
		C399.8,157.9,399.8,147.9,399.8,137.9z"/>
	<path class="st7" d="M391.9,0.4c-0.1,0.2-0.2,0.3-0.3,0.5c-0.4,0.4-0.9,0.5-1.4,0.5c-3.8,0-7.7,0.1-11.5,0c-1.4,0.1-2.7,0.1-4.1,0
		c-2,0.1-4,0.1-5.9,0c-1.7,0-3.5,0.5-5.1-0.4c-0.2-0.2-0.4-0.4-0.6-0.5c0.5-0.1,1-0.3,1.5-0.3c8.6,0,17.3,0,25.9,0
		C390.9,0,391.4,0.2,391.9,0.4z"/>
	<path class="st10" d="M327.7,200.6c0-0.3,0-0.5,0-0.8c0,0,0.1,0,0.1,0c0.4-0.5,1-0.5,1.6-0.5c8.3,0,16.7-0.1,25,0
		c0.1,0,0.2,0,0.3,0c0.4,0,0.7,0,1,0.3c0.3,0.3,0.3,0.6,0.1,1C346.4,200.6,337.1,200.6,327.7,200.6z"/>
	<path class="st10" d="M399.8,76.9c0.3,0,0.5,0,0.8,0c0,8.3,0,16.6,0,24.9c-0.3,0-0.5,0-0.8,0C399.8,93.5,399.8,85.2,399.8,76.9z"/>
	<path class="st7" d="M194.7,199.8c0,0.3,0.1,0.5,0.1,0.8c-6.5,0-13,0-19.5,0c-0.4,0-0.7-0.3-1.1-0.4c0.5-0.1,1.1-0.3,1.6-0.4
		c0.6-0.5,1.3-0.5,2-0.5c5,0,9.9,0,14.9,0C193.5,199.3,194.2,199.2,194.7,199.8z"/>
	<path class="st12" d="M399.8,167.9c0.3,0,0.5,0,0.8,0c0,6.1,0,12.2,0,18.3c0,0.3-0.3,0.6-0.5,0.9c-0.1-0.5-0.2-0.9-0.3-1.4
		c-0.5-0.6-0.5-1.3-0.5-2c0-4.6,0-9.2,0-13.8C399.3,169.2,399.3,168.5,399.8,167.9L399.8,167.9z"/>
	<path class="st11" d="M355.7,200.6c0-0.3,0-0.5,0-0.8c0.5-0.6,1.2-0.5,1.8-0.5c3.5,0,7,0,10.4,0c0.7,0,1.3,0,1.9,0.5
		c0.8,0.1,1.5,0.2,2.3,0.3c-0.4,0.2-0.7,0.5-1.1,0.5C365.9,200.7,360.8,200.6,355.7,200.6z"/>
	<path class="st11" d="M395.8,199.8c4,0.1,3.9,0.1,4-3.9c0-1.2,0.2-2.3,0.3-3.5c0.2,1.5,0.5,2.9,0.5,4.4c0.1,4-0.6,4.5-4.6,3.8
		c-0.3,0-0.5-0.3-0.8-0.5C395.4,200,395.6,199.9,395.8,199.8z"/>
	<path class="st5" d="M250.8,200.6c0-0.3,0-0.5,0-0.8c0.4-0.5,1-0.5,1.6-0.5c2.9,0,5.8,0,8.7,0c0.6,0,1.1,0.1,1.6,0.5
		c0.1,0.1,0.2,0.2,0.3,0.3c-0.3,0.2-0.6,0.5-0.9,0.5C258.3,200.7,254.6,200.6,250.8,200.6z"/>
	<path class="st13" d="M206.7,0.9c37.2,0,74.3,0,111.5,0c1.7,0,1.6,0.8,1.6,2c0,0.4,0.2,0.7,0.4,1.1c0.1-0.3,0.5-0.7,0.4-1
		c-0.3-1.8,0.6-2,2.1-2c12,0.1,24,0,36,0c-0.4,5.4-0.8,10.8-1.1,16.3c-0.3,5.4-0.6,10.8-0.9,16.2c-0.6,0.4-0.6,1-0.6,1.6
		c0,4.1,0,8.2,0,12.3c0,0.6,0,1.2,0.6,1.7c0.3,2.8-0.1,6,1.1,8.3c1.4,2.8,0.7,5.4,0.8,8c0,1.5-1,3.1-1.6,4.7c-0.5,1.3-1.1,2.6-1.4,4
		c-0.4,1.6-0.6,3.3-0.9,5c-0.6,0.4-0.6,1-0.6,1.6c0,2.7,0,5.4,0,8c0,0.6,0.1,1.2,0.6,1.6c0.3,2.3,0.4,4.6,0.9,6.9
		c0.5,2.2,0.9,4.5,2.1,6.4c1.4,2,1.9,4.1,1.7,6.4c0,0.4-0.3,0.9-0.6,1c-1.8,0.5-5.7-2.2-6.1-4c0-0.2-0.1-0.5-0.2-0.5
		c-3.6-1.5-3.4-5.3-4.9-8c-1.3-2.2-2.6-4.4-3.8-6.6c-0.6-1.1-0.7-2.4-1.3-3.5c-1.2-2.2-2.6-4.2-3.7-6.3c-0.6-1.1-1.1-2.5-1-3.7
		c0.1-2.2-0.7-3.8-2.1-5.4c-0.6-0.8-0.7-2-1.1-3c-0.6-1.5-1.3-2.9-2.1-4.4c-0.1-0.1-0.9,0-1,0.1c-1,3.2-1.9,6.4-3,9.6
		c-0.1,0.3-1.5,0.6-1.6,0.5c-0.6-0.8-1-1.8-1.4-2.7c-0.9-2-1.7-3.9-2.5-5.9c-0.5-1.3-1-2.6-1.5-3.9c-0.4-1-1-2-1.4-3
		c-0.6-1.4-1.1-2.8-1.7-4.2c-0.5-1-1.1-2-1.6-3c-0.4-0.9-0.7-2-1-3c-0.5-1.6-0.8-3.2-1.3-4.8c-0.5-1.4-1.2-2.8-1.7-4.2
		c-0.1-0.3-0.2-0.7-0.2-1.1c-0.1-2.5,0.3-5-1.8-7.1c-0.8-0.7-0.5-2.4-1-3.5c-0.9-2.2-1.8-4.5-3.1-6.5c-0.8-1.3-2-2.7-3.4-3.4
		c-0.8-0.4-2.4,0.4-3.5,1c-1.3,0.7-2.5,1.7-3.6,2.7c-0.4,0.3-0.5,1.2-0.4,1.7c0.1,0.8,0.7,1.5,0.9,2.3c0.7,5.1,1.3,10.2,2,15.2
		c0,0.3,0,0.7,0,1c0.3,3.1,0.5,6.3,0.9,9.4c0.4,3.7,1,7.4,1.3,11.2c0.1,1.4,0.1,3-0.3,4.3c-0.4,1.6-1.3,3.1-2.1,4.6
		c-0.1,0.2-0.6,0.2-0.9,0.2c-4,0.3-7.7-0.9-11.5-1.9c-1.1-0.3-2.3-0.1-3.5-0.1c-1-0.8-1.4-1.7-1.3-3c0-0.7,0-1.4-0.6-1.9
		c-0.3-0.2-0.4-0.5-0.4-0.9c-0.4-2.7-1.3-5.1-2.9-7.3c-0.9-1.3-1.1-2.9-2.2-4.2c-1.6-1.7-3.3-3-5.7-3.2c-0.2,0-0.5,0-0.7-0.2
		c-1.2-1.2-2.8-0.9-4.3-0.9c-1.6,0-3.3,0.2-4.8-0.7c-0.4-0.3-1-0.1-1.5-0.1c-1.7,0-3.5,0.1-5.2,0c-1.2-0.1-1.8-0.8-1.3-1.7
		c0.7-1.5,0.7-2.9-0.1-4.3c-0.3-0.5-0.2-1.1-0.2-1.7c0-2.3,0-4.5,0-6.8c0-1.2,0.1-2.3-0.8-3.3c-0.5-0.6-0.3-1.4-0.3-2.2
		c0-0.5-0.2-0.7-0.7-0.3c-0.1,0.1-0.3,0.3-0.4,0.4c-1.7,2.2-4.4,3.1-6.2,5.2c-0.7,0.8-1.9,1.3-3,1.7c-0.9,0.3-1.6,0.9-1.9,1.9
		c-0.4,1-1,1.9-2.2,2.1c-0.6,0.1-1,0.4-1.4,0.9c-0.5,0.6-1,1.1-1.6,1.5c-1.2,0.6-2.4,0.3-3.6,0.3c-0.8,0-1.5,0-2.1,0.7
		c-0.4,0.5-1.1,0.4-1.7,0.5c-1.6,0-3.2,0-4.8,0c-1.3,0-1.7,0.7-1.1,1.8c0.4,0.7,0.6,1.5,0.6,2.3c0,0.4,0.2,0.7,0.4,1
		c1.2,1.3,2.3,2.7,4.1,3.3c1.4,0.5,2.3,1.9,3.3,3c1.1,1.3,2.7,1.8,4.1,2.6c1.6,1,3.2,2.1,4.8,3.1c0.2,0.1,0.3,0.2,0.4,0.4
		c0.9,2.4,3.4,3.2,4.8,5c0.5,0.6,1.3,0.6,1.9,0.9c1,0.6,1.6,1.8,2.6,2.4c2.1,1.3,3.7,3.3,5.8,4.5c2.3,1.3,3.6,3.5,5.7,4.9
		c1.6,2.4,0.7,4.8-2.2,5.4c-1.4,0.3-2.9,0.5-4.2-0.6c-0.8-0.7-1.8-0.3-2.7-0.4c-2.3-0.2-4.1,0.9-5.7,2.4c-0.5,0.5-1.1,0.6-1.7,0.9
		c-0.2,0.1-0.6,0.3-0.6,0.6c0,0.4,0.4,0.2,0.7,0.3c1.6,0.6,3.3,0.6,4.7,1.7c0.4,0.3,0.9,0.3,1.4,0.3c1.1,0,2.2-0.1,3.2,0
		c2.2,0.1,4.4,0,6.3-1.3c1.4-1,2.5-0.7,3.6,0.5c0.9,0.8,1.5,1.9,1.9,3.1c0.5,1.6,1.9,2.2,3.1,2.7c1.6,0.7,3.2,1.2,4.4,2.6
		c0.6,0.7,1.3,1.4,2.3,1.6c0.2,0,0.4,0.2,0.5,0.4c0.9,2.2,3,3.5,3.9,5.7c0.2,0.6,0.4,1.2,0.4,1.8c0,1.9,0,3.8,0,5.6
		c0,0.8-0.1,1.5-0.7,2.1c-0.6,0.5-0.4,1.2-0.5,1.9c0,0.6,0.1,1.2-0.5,1.7c-2.8-1.7-5.9-1.8-9-2.1c-1.9-0.1-3.8-1.2-5.7-1.8
		c-0.1,0-0.2-0.1-0.3-0.1c-3-0.4-6.1-0.7-9.1-1.2c-1-0.1-1.9-0.6-2.8-0.8c-0.3-0.1-0.7,0.2-1,0.3c0.2,0.2,0.5,0.3,0.6,0.6
		c0.8,1.2,1.6,2.3,2.4,3.5c1.4,2.3,2.7,4.7,4,7.1c0.9,1.5,1.9,2.8,2.8,4.3c0.2,0.3,0.2,0.7,0.2,1.1c-0.2,2.2-2.9,3.6-5.4,2.9
		c-1.1-0.4-2.4-0.5-3.6-0.7c-3.2-0.7-6.4-1.2-9.5-2.1c-1.6-0.5-3-1.9-4.5-2.7c-0.7-0.4-1.5-0.6-2.3-0.9c-1.4-0.5-2.8-1.1-4.2-1.3
		c-3.2-0.3-6-1.3-8.9-2.6c-2.4-1.1-4.4-2.5-6-4.5c-0.1-0.2-0.4-0.3-0.4-0.5c-0.4-2.1-0.7-4.2-1.2-6.3c-0.7-2.8-1.8-5.4-4.4-7.1
		c-1.3-0.9-2.4-2.1-3.7-2.9c-1.1-0.6-2.4-0.9-3.7-1.1c-4.1-0.5-8.2-0.8-12.2-1.2c-0.5-0.3-1-0.6-1.1-1.2c-0.2-0.7-0.6-1.2-1.1-1.8
		c-0.6-0.6-1-1.3-1-2.3c0-0.5-0.1-0.9-0.5-1.3c-0.5-0.4-0.6-1-0.6-1.5c-0.1-1.4-0.8-2.5-1.4-3.6c-0.1-0.1-0.3-0.2-0.2-0.3
		c0.1-2.6-2.1-4.1-3.1-6.3c-1.2-2.7-2.6-5.2-3.9-7.8c-1.1-2.1-2.1-4.3-3.2-6.4c-1.3-2.5-2.1-5.4-4.6-7.2c-0.6-0.4-0.6-1.3-0.9-1.9
		c-1.5-2.8-2.9-5.6-4.5-8.4c-0.2-0.3-0.2-0.6-0.2-1c0.1-2-0.8-3.5-1.6-5.2c-1.1-2.1-2.3-4.2-3.1-6.4c-0.1-0.3-0.2-0.6-0.4-0.9
		c-1.9-1.6-2.4-4.1-3.5-6.1c-1.5-2.7-2-5.9-4-8.4c-0.5-0.6-0.7-1.6-0.9-2.3c-0.3-1.7-1.3-3.1-2-4.6c-0.2-0.4-0.3-0.8-0.3-1.2
		c0-0.3,0.1-0.7-0.1-0.8c-1.4-1.3-1.7-3.1-2.5-4.7c-0.4-0.9-0.9-1.9-1.2-2.8c-0.3-0.8-0.3-1.8,0.3-2.6c16.6,0,33.2,0,49.8,0
		c0.3,0.3,0.3,0.7,0.2,1c-1,1.9-0.4,3.9-0.5,5.8c0,0.8,0.5,1.6,1.3,1.6c1.5,0,2.7,0.8,3.9,1.5c1.3,0.7,2.9,0.4,4.1,1.5
		c0.4,0.4,0.7-0.1,0.9-0.6c0.3-1,1-1.8,1.8-2.4c0.5-0.4,0.7-1,1-1.6C205.5,5.5,205.4,3,206.7,0.9z"/>
	<path class="st13" d="M338.7,150.9c-1,0-2.1,0-3.1,0c-0.6,0.5-1,0-1.3-0.4c-1.4-1.6-3.2-2.6-4.9-3.8c-1-0.7-2.1-1.2-3.2-1.9
		c-0.7-0.4-0.9-1.1-0.9-1.9c0.1-0.6-0.4-0.8-0.7-1.2c-1.7-2.1-3.9-3.1-6.6-3.6c-1.5-0.3-2.7-0.4-4.1,0.1c-1.7,0.6-3.6,0.8-5.2,1.7
		c-1.1,0.6-2.5,0.5-3.7,1.1c-0.5,0.3-0.9,0.5-1.2,0.9c-0.3,0.2-0.5,0.3-0.9,0.3c-0.7,0.1-0.6,0.7-0.7,1.2c-0.1,0.9,0,1.9,0,2.8
		c0,0.5,0,1.1-0.5,1.5c-1.3-1.1-2.6-2.2-3.9-3.4c-2-1.9-3.9-3.8-5.8-5.7c-0.2-0.2-0.2-0.5-0.3-0.8c0.3-0.9,0.9-1.4,1.6-1.9
		c0.9-0.7,1.5-1.6,2-2.6c0.6-1.3,1.7-2.4,2.3-3.8c0.3-0.7,0.6-1.3,0.6-2.1c0-0.8,0-1.7,0-2.5c0-0.3,0.1-0.8-0.1-1
		c-1.2-1.2-1.2-2.9-1.5-4.3c-0.4-1.9-1.4-3.5-1.7-5.5c-0.2-1.7-0.7-3.4-0.8-5.2c0-0.7-0.7-1.2-1.1-1.8c-0.9-1.5-1.2-3.3-2.8-4.4
		c-1.2-1-1.5-2.8-2.7-3.8c-0.4-0.3-0.3-0.9,0.1-1.3c1.2-0.6,2.4-0.3,3.6-0.3c1,0,2-0.3,3-0.5c2.5-0.6,5-0.7,7.5,0.1
		c0.3,0.1,0.5,0.3,0.8,0.3c2.3-0.3,4.3,0.7,6.3,1.3c1.3,0.4,2.5,0.9,3.6,1.8c1.2,1.1,2.6,1.9,4,2.7c0.8,0.4,1.7,0.9,2.4,1.4
		c1.2,0.8,2.6,0.9,3.9,1.5c0.9,1.2,1.9,2.3,2.7,3.5c1,1.5,1.9,3,2.8,4.5c0.4,0.7,0.8,1.4,1.1,2.2c0.7,2,1.3,4.1,2.1,6.1
		c0.7,1.7,1.9,3.1,2.8,4.8c0.5,1,0.5,2.2,1.1,3.1c1.6,2.1,2.3,4.2,2.4,6.9c0.1,1.6,1.5,3.2,2.2,4.8c0.6,1.3,1.1,2.6,1.6,3.9
		c0.3,0.9,0.6,1.7,0.8,2.6c-0.4,0.5-1.1,0.5-1.7,0.5c-1.1,0-1.9,0.2-1.9,1.5C339.1,150.6,338.9,150.8,338.7,150.9z"/>
	<path class="st14" d="M260.7,88.8c-2.1-1.5-3.6-0.5-5.1,1c-0.2,0.2-0.7,0.1-1.1,0.1c-1.8,0-3.7,0.2-5.5-0.1
		c-2.1-0.4-4.2-1.2-6.3-1.8c-0.4-0.1-0.7-0.1-1.1-0.2c-0.6-0.1-1.2-0.3-1.7-0.5c0.6-0.5,1.1-1.1,1.7-1.5c1.4-0.9,2.8-1.8,4.2-2.7
		c0.4-0.2,0.8-0.5,1.2-0.4c2.5,0.3,5.1,0.9,7.6,1.1c2.9,0.2,4.3-1.9,3.3-4.5c-0.1-0.2,0-0.4,0-0.6c1.9-0.7,2.1-2.4,2.4-4
		c0.5-3.2-0.6-6-2.3-8.4c-1.8-2.6-3.6-5.3-6.1-7.4c-0.3-0.2-0.6-0.6-1-0.5c-2,0.2-3-1.3-4.2-2.5c-0.7-0.7-1.4-1.3-2.4-1.7
		c-1.3-0.5-2-1.8-3-2.7c-2.2-2-4.1-4.4-6.4-6.3c-0.8-0.7-1.4-1.5-2.2-2.2c-0.4-0.3-0.4-0.8-0.1-1.3c1.1-0.9,2.2-1.9,3.3-2.8
		c0.6-0.5,1.1-1.1,1.7-1.7c0.8-0.8,1.6-1.6,2.5-2.3c1.3-1.1,2.6-2,3.9-3.1c1.7-1.3,3.3-2.6,4.9-3.9c0.5-0.4,0.9-0.7,1.3-1.1
		c0.1,0.7,0.1,1.4,0.4,2c1.8,4.3,0.9,8.7,1.1,13.1c0.1,1.7,0,3.4,0,5.1c0,0.3,0.3,0.6,0.5,0.8c0.1,0.1,0.5,0,0.7,0
		c4.8,0.3,9.8,0,14.5,1.1c2.9,0.6,6.4,1.2,8.1,4.5c1,1.9,2.2,3.6,3,5.6c0.9,2,1.4,4.1,2,6.2c0.6,1.9,1.3,3.7,1.9,5.6
		c-3.8,0.1-6.1,2.3-5.9,5.8c0,0.5,0.3,1.1,0.7,1.4c1.5,1,3.2,1.8,4.7,2.8c2.1,1.4,4,2.9,3.7,5.9c-0.5,0.6-1.3,0.5-2,0.5
		c-2.6,0-5.3,0-7.9,0c-0.8,0-1.5,0-2.1,0.6c-1.5,0.6-1.8,0.6-2.6-0.7c-0.3-0.4-0.5-0.5-0.9-0.4c-1.7,0.7-3.5,0.5-5.3,0.3
		c-1.5-0.1-2.5,0.9-3.7,1.3C261.1,88.6,260.9,88.7,260.7,88.8z"/>
	<path class="st1" d="M392.7,130.9c-1.7,1-3.4,2-5.2,2.9c-1.2,0.5-2.5,0.8-3.8,1.1c-0.6,0.5-1.2,0.4-1.9,0.4c-1.8,0-3.6,0-5.3,0
		c-0.6,0-1.3-0.1-1.6,0.6c-0.5,0.5-1.2,0.4-1.8,0.5c-2.1,0.2-4.1,0.5-5.7,2c-0.3,0.3-0.7,0.6-1.2,0.7c-0.5,0.1-0.9,0.3-1,0.9
		c-0.2,0.9-0.9,1.4-1.6,1.9c-0.3-0.1-0.8-0.3-0.7-0.4c0.4-2.5-1.6-3.4-2.9-4.8c-2-2-2-7.5-0.6-9.9c0.8-1.5,2.3-2.2,3.1-3.3
		c1.9-2.4,4.3-2.8,6.8-3.7c2-0.7,3.8-1.9,5.8-2.9c0.3-0.1,0.6-0.1,1-0.1c2.1-0.6,4.1-1.3,6.2-1.9c0.9-0.2,1.9-0.1,2.8-0.1
		c1.7,2,2.9,4.2,3.3,7c0.2,1.4,1.2,2.9,2.1,4.1c0.9,1.2,1.1,2.9,2.5,3.9C393.1,130,393.1,130.5,392.7,130.9z"/>
	<path class="st11" d="M338.7,150.9c-0.6-3.7,2.3-2.2,3.9-2.6c4.4-2.3,9.2-1.7,14-1.6c0.9,0,2,0.6,2.8,1.2c1.5,1.1,2.8,2.4,4.4,3.5
		c0.9,0.6,2,0.9,3,1.4c0.4,0.5,0.8,1,1.2,1.5c1.2,1.5,2.6,3,3.7,4.6c1.2,1.9,2.1,4,3.1,6.1c0.1,0.3,0.3,0.6,0.6,0.8
		c1.6,1.1,2,2.4,0.8,4.1c-0.6,0.9-0.9,2.1-1.4,3.1c-0.1,0.3-0.5,0.6-0.7,0.6c-0.6,0-1.2-0.2-1.7-0.5c-0.3-0.1-0.6-0.6-0.8-0.6
		c-3.8,0.4-6.3-1.8-8.6-4.4c-1.6-1.9-3.4-3.6-5.3-5.3c-1.9-1.8-3.9-3.5-6-5.1c-1.9-1.5-4-2.8-6.1-4c-0.8-0.5-1.9-0.3-2.8-0.7
		C341.3,152.5,340,151.7,338.7,150.9z"/>
	<path class="st15" d="M273.7,87.9c0.4-0.4,0.8-1.1,1.3-1.1c3.6-0.1,7.3-0.1,10.9-0.1c1.6,0.6,3.2,1.3,4.9,1.7
		c1.4,0.3,2.9,0.2,4.4,0.3c0.6,0.7,1.4,0.6,2.2,0.6c3.7,0,7.5,0,11.2,0c0.7,0,1.5-0.1,2.1,0.5c1.3,0.8,2.7,1.4,3.9,2.4
		c1,0.8,2,1.8,2.8,2.8c1.2,1.8,2.1,3.7,3.2,5.5c0.6,1.1,1.4,2.1,2,3.3c0.3,0.6,0.3,1.4,0.4,2.1c-2.2,0.3-3.8-0.8-5.4-2
		c-1.5-1.2-3.4-2.1-5.1-2.9c-1.6-0.8-3.2-1.5-4.8-2.1c-2.1-0.7-4.2-1.6-6.3-1.8c-2.4-0.2-4.8,0.4-7.2,0.5c-2.1,0.1-4.2,0.1-6.3,0.2
		c-2-0.8-3.8-2-5.6-3c-1.5-0.9-2.5-2.4-4.3-2.7c-0.5-0.1-0.8-0.6-1.2-0.9c-0.8-0.9-1.5-1.8-2.7-2.1
		C273.6,88.9,273.3,88.5,273.7,87.9z"/>
	<path class="st12" d="M363.6,141.9c0.6-1.9,1.8-3.3,3.6-3.9c2.4-0.8,5-1.4,7.5-2c1.4-0.7,7.7-0.7,9.1,0c0.4,0.3,0.8,0.6,1.1,1
		c0.2,0.2,0,0.6,0.2,0.8c3.2,2.5,2.2,6,1.7,9.1c-0.2,1.1-2.2,2.8-3.4,2.8c-4.5,0.1-9-0.4-13.5-0.7c-0.8-0.8-1.7-1.5-2.4-2.3
		c-1-1.1-1.8-2.3-2.7-3.4C364.3,142.8,364,142.3,363.6,141.9z"/>
	<path class="st4" d="M392.7,130.9c-0.7-1.3-1.3-2.8-2.2-3.9c-2.1-2.5-2.7-5.6-3.8-8.6c-0.5-1.3-1.3-2.4-1.9-3.6
		c2.4-0.3,5.1-0.1,7.2-1c1.8-0.8,4.3-1.5,4.7-4.3c0.3-1.9,1.3-3.6,2-5.4c0.1-0.2,0.6-0.2,1-0.3c0,11,0,22,0,33
		c-1.3-1.1-2.6-2.2-3.9-3.3C394.8,132.6,393.8,131.7,392.7,130.9z"/>
	<path class="st16" d="M378.6,0.9c4.3,0,8.7,0,13,0c0,1.9,0.2,3.9-0.1,5.8c-0.5,3.8-1.4,7.6-1.9,11.5c-0.5,4.7-0.6,9.5-0.9,14.2
		c0,0.5-0.4,1-0.5,1.5c-0.2-0.5-0.5-1-0.5-1.5c-0.1-1.2,0.1-2.5-0.1-3.7c-0.6-6-1.3-12-2-18.1c0-0.2-0.1-0.5-0.3-0.6
		c-1.9-1.5-3.7-3-5.6-4.5c-0.3-0.2-0.7-0.3-1.1-0.4C377.8,3.7,377.9,2.3,378.6,0.9z"/>
	<path class="st6" d="M374.8,84.5c0.3,0.5,0.7,1.1,1,1.6c0.8,1.3,1.7,2.5,2.4,3.8c1.2,2.1,2.4,4.3,3.5,6.5c0.4,0.7,0.9,1.4,1.1,2.2
		c0.2,0.5,0.2,1.3-0.1,1.7c-1,1.5-2.1,2.9-3.2,4.3c-0.1,0.1-0.4,0.2-0.6,0.2c-2.4-0.7-5.2-4.7-5.2-7.3c0-1.4,0.1-2.7,0-4.1
		c-0.3-2.3-0.8-4.6-1-6.9c-0.1-0.6,0.6-1.3,0.9-1.9C374,84.5,374.4,84.5,374.8,84.5z"/>
	<path class="st16" d="M363.6,0.9c1.7,0,3.4,0,5.1,0c0.7,0.8,0.4,1.7,0.5,2.6c0,0.9,0,1.8,0.7,2.5c0.3,0.3,0.4,0.8,0.4,1.2
		c-0.1,1.8,0.6,3.3,1.6,4.7c0.5,0.8,0.5,1.6,0.3,2.5c-0.2,0.9-0.6,1.3-1.5,0.7c-3.2-0.1-5.8-2.8-6-6C364.5,6.3,364,3.6,363.6,0.9z"
		/>
	<path class="st14" d="M370.7,15c2.2-0.2,1.3-2.3,1-2.6c-1.7-1.7-1.1-4.2-2.1-5.8c-1.2-2-0.5-3.9-0.9-5.7c2,0,4,0,5.9,0
		c0.5,0.6,0.5,1.3,0.5,2c0,2.7,0,5.5,0,8.2c0,0.9,0,1.7,0.7,2.5c0.6,0.7,0.6,1.6-0.1,2.3c-1.3,0-2.6,0-3.9-0.1
		C371.4,15.8,371.1,15.3,370.7,15z"/>
	<path class="st1" d="M375.7,15.9c-1.7-4.9-0.9-10-1.1-15c1.3,0,2.6,0,4,0c0,1.4,0,2.8,0,4.2c0,3.6,0,7.2,0,10.7
		c0,0.7-0.5,1.3-0.8,2C377.1,17.2,376.4,16.5,375.7,15.9z"/>
	<path class="st1" d="M310.8,89.9c-4.8,0-9.5,0-14.3,0c-0.4,0-0.9-0.7-1.3-1.1c4.8,0,9.6,0,14.4,0C310,88.8,310.4,89.5,310.8,89.9z"
		/>
	<path class="st17" d="M356.8,48.9c-0.4-0.4-1.1-0.8-1.1-1.1c-0.1-4.4-0.1-8.8,0-13.3c0-0.4,0.7-0.8,1.1-1.1
		C356.8,38.6,356.8,43.7,356.8,48.9z"/>
	<path class="st17" d="M354.8,90.2c-0.4-0.4-1-0.8-1.1-1.1c-0.1-3-0.1-6,0-9c0-0.4,0.7-0.8,1.1-1.1
		C354.8,82.6,354.8,86.4,354.8,90.2z"/>
	<path class="st6" d="M75.9,0.9c17.1,0,34.2,0,51.3,0c0.6,0,1.2,0,1.8-0.1c0.3,0,0.5,0,0.8,0.1c0.9,0.7,1.4,1.5,1.8,2.6
		c0.7,1.9,2,3.6,2.7,5.5c0.1,0.4,0.5,0.7,0.8,1c1.4,1.4,2.3,3.1,2.2,5.1c-0.1,1.3,0.9,2,1.3,3c1.4,3.4,3.3,6.6,4.9,9.9
		c0.6,1.3,1.4,2.6,1.8,4.1c0.1,0.2,0.1,0.3,0.3,0.5c1.8,1.7,2.6,4,3.6,6.1c0.1,0.3,0.3,0.6,0.5,0.8c1,0.9,1.6,2,2.2,3.2
		c1.4,3.1,3,6.1,4.5,9.1c1,1.9,1.8,4,3.2,5.8c0.9,1.1,1.6,2.5,1.9,4.1c0.2,1.4,0.4,2.9,0.9,4.2c0.6,1.5,1.3,3,2.1,4.4
		c1,1.7,1.9,3.4,2.8,5.2c1.7,3.3,1.9,6.8,2,10.3c0.1,2.9,0.1,5.7,0,8.6c0,0.7,0.1,1.8-1.3,1.4c-1.3-0.2-2.6-0.4-3.9-0.6
		c-2.9-0.4-3.1,1.6-3,3.7c0,0.6,0.1,1.1,0.2,1.7c-0.6,0.9-1.2,1.5-2.4,1.2c-1-1.6-2.7-2-4.3-2.3c-3.1-0.7-4.4-1.7-5-4.7
		c-1-5.7-2.3-11.3-2.1-17.1c0-0.6-0.1-1.2-0.6-1.7c-0.3-0.3-0.4-0.6-0.3-1c1.4-1.6,1.7-3.7,2.3-5.7c0.5-1.9-0.1-3.5-0.9-5.1
		c-0.9-1.7-1.9-3.3-2.5-5.1c-0.1-0.2-0.1-0.4-0.3-0.6c-1.7-1.7-2.4-3.9-3.5-5.9c-1-1.9-2-3.8-2.9-5.7c-0.9-2.1-2.8-4-2.4-6.6
		c0.1-0.5-0.2-0.9-0.6-1.3c-1.2-1.3-2-2.8-2.7-4.4c-0.2-0.4-0.5-0.8-0.9-1c-0.5-0.4-0.8-0.8-0.9-1.4c-0.1-0.7-0.5-1.2-1-1.6
		c-0.5-0.4-0.8-0.9-1-1.5c-1.2-2.9-2.6-5.6-5-7.6c-1.5-1.4-3.2-1.6-5.2-1.3c-2.4,0.4-4.5,1.6-6.6,2.6c-0.8,0.4-1.7,0.6-2.6,0.6
		c-1.6,0.1-3.3,0.1-4.9,0c-1.4,0-2.2,0.7-2.7,1.8c-0.7,1.6-1.9,2.6-3.4,3.3c-0.1,0-0.2,0-0.3,0.1c-1.7,2.3-4.7,1.9-6.9,3.4
		c-1.1,0.7-2.7,1.3-4.2,1.5c-0.5,0.1-0.9,0.2-1.3,0.4c-0.7,0.4-1.4,0.5-2.2,0.1c-1.2-0.8-2.1-1.7-2.5-3.1c-0.1-0.3-0.3-0.5-0.5-0.7
		c-1.9-2-3.5-4.2-4.8-6.6c-0.6-1.1-1.4-2.1-2.2-3c-1-1.2-1.4-2.6-2.4-3.8c-0.3-0.4-0.3-0.9-0.3-1.4c0-1.1,0-2.3,0-3.4
		c-0.1-1.2,0.1-2.3,1.3-3.1c0.3-0.2,0.6-0.5,0.6-0.8c0-1.9,1.2-3.3,1.9-4.9C75.5,2.6,75.1,1.6,75.9,0.9z"/>
	<path class="st14" d="M168,95.9c0.3-0.4,0.8-0.8,0.8-1.1c0.1-3.9,0.1-7.8,0-11.7c-0.1-1.9-0.2-3.9-0.9-5.6c-1-2.4-2.8-4.4-3.9-6.7
		c-1-2-1.4-4.3-2.2-6.5c-1-2.6-1.2-5.5-3.6-7.5c-0.5-0.5-0.7-1.3-1.1-2.1c-0.7-1.7-1.4-3.4-2.2-5.1c-0.8-1.6-1.9-3.2-2.8-4.8
		c-0.4-0.7-0.7-1.5-1-2.3c-0.8-1.6-1.7-3.1-2.6-4.6c-0.8-1.4-1.7-2.8-2.5-4.3c-0.7-1.3-1.3-2.8-2.1-4.1c-0.9-1.6-1.9-3.2-2.8-4.8
		c-0.4-0.6-0.6-1.3-0.9-2c-0.7-1.7-1.5-3.4-2.2-5.1c-0.8-2.1-1.2-4.2-2.1-6.2c-0.6-1.3-1.9-2.3-2.6-3.6c-0.9-1.6-1.6-3.4-2.4-5.1
		c-0.3-0.7-0.7-1.3-1.1-1.9c4,0,8.1,0,12.1,0c0.6,1.8,1.3,3.5,1.8,5.3c0.3,0.9,0,2.4,0.6,2.7c2.1,1.1,1.4,3.4,2.4,5
		c1.2,2,2.1,4.2,3,6.4c0.8,1.9,1.3,3.8,2.2,5.6c0.8,1.7,1.8,3.3,2.8,5c1.1,1.9,2.1,3.8,3.1,5.7c1,1.8,2,3.5,2.9,5.3
		c0.5,0.9,1,1.9,1,2.8c0,2.9,1.6,5.1,3,7.4c0.9,1.5,1.4,3.3,2.2,4.9c0.2,0.4,0.8,0.7,1,1.1c1,1.6,1.9,3.3,2.9,5
		c0.9,1.6,2,3.1,2.9,4.7c0.4,0.7,0.7,1.4,1,2.1c1.1,2.5,2,5,3.3,7.3c1,1.9,2.3,3.5,3.5,5.3c0.2,0.3,0.3,0.5,0.4,0.8
		c0.6,1.5,1.2,2.9,1.7,4.4c0.5,1.4,0.9,2.8,1.4,4.1c0.4,1,1,1.9,1.5,2.8c0.5,0.9,0.9,1.9,1.3,2.8c-2,1.8-4.2,3.3-7.1,3.1
		c-0.8,0-1.6-0.1-2.4,0c-3.4,0.4-6-0.9-8.2-3.3C169.5,96.9,168.7,96.4,168,95.9z"/>
	<path class="st9" d="M273.7,87.9c0.8,0.6,1.6,1.3,2.4,1.9c1.6,1.3,3.2,2.6,4.8,3.7c1.4,0.9,3,1.5,4.4,2.3c0.9,0.5,1.7,1.3,2.5,1.9
		c0,0.2-0.1,0.5,0,0.7c1.3,1.6,2.6,3.1,3.8,4.7c0.8,1.1,1.7,2.3,2,3.5c0.8,3.1,1.3,6.3,2.1,9.4c0.5,2.2,0.8,4.7,2.1,6.3
		c1.7,2.1,0.8,4.3,0.8,6.3c0,1.3-1.1,2.7-2,3.8c-1.3,1.8-2.9,3.5-4.3,5.2c-0.1,0.1-0.4,0.1-0.7,0.2c-0.5-0.4-1-0.7-1.5-1.1
		c-2.4-2-4.9-3.9-7.1-6.1c-1.4-1.4-2.2-3.3-3.3-5c-0.6-0.9-1.2-1.9-1.8-2.8c-0.4-0.7-0.8-1.4-1.1-2.2c-0.5-0.9-0.9-1.9-1.3-2.9
		c0.4-3.5,0.8-7,1.1-10.6c0.2-2.4-1.2-4.1-2.9-5.7c-1.8-1.7-3.4-3.7-5.1-5.4c-0.6-0.6-1.5-0.8-2.3-1.2c-1.1-0.5-2.3-0.7-3.3-1.3
		c-0.5-0.3-0.7-1.3-1-1.9c-0.5-1-1-2-1.5-3.1c1-0.7,1.9-1.7,2.9-1.9c2.4-0.5,4.9-0.5,7.3-0.7c0.3,0,0.8,0.2,0.8,0.3
		C271.5,88.3,272.7,87.9,273.7,87.9z"/>
	<path class="st13" d="M341.9,162.8c1.8,0.7,3.8,1.1,5.5,2.1c1.3,0.8,2.2,2.1,3.1,3.3c0.2,0.3,0,1.3-0.3,1.5
		c-1.5,0.8-3.1,1.5-4.7,2.1c-2.6,0.9-5.2,1.7-7.8,2.6c-1.1,0.4-2.3,0.8-3.3,1.4c-1,0.5-1.9,1.3-2.8,1.9c-0.4,0.6-1.6,0.2-1.6,1.3
		c-0.3,1.2-1.2,2-2.2,2.7c-1.2,1-1.7,2.5-2.2,3.9c-0.3-0.2-0.8-0.4-0.8-0.6c-0.1-3.3-2.3-5.4-4.6-7.1c-3-2.2-4.8-5.2-7.1-7.9
		c-1.4-1.6-2.2-3.7-3.2-5.6c-1.1-2-2.1-4.1-3.3-6.2c-0.9-1.6-2-3.2-2.8-4.8c-0.4-0.7-0.2-1.7-0.3-2.6c0.8-0.7,1.3-0.1,1.8,0.4
		c1.2,1.2,2.6,1.8,4.2,1.9c0.5,0,0.9,0.1,1.4,0.3c3,1.2,6,1.1,9.1,0c1.4-0.5,3.1-0.3,4.5-1.1c0.7-0.4,1.2-1.2,2.2-1.1
		c1.3-0.2,1.9,0.4,2.7,1.5c1.6,2.2,2.1,5,4.3,6.8c1.7,1.5,3.5,2.7,5.9,2.7C340.5,162.3,341.3,162.2,341.9,162.8z"/>
	<path class="st18" d="M228.8,163.9c0.4,3.6,0.8,7.2,1.1,10.7c0.4,0.6,0.2,1-0.2,1.4c-0.6,0.6-1.1,1.2-1.7,1.8
		c-1.7,0.4-3.2-0.4-3.6-2c-0.3-1.4-1.5-1.9-2.3-2.7c-1.1-1.2-2.3-2.2-3-3.8c-0.5-1.2-1.8-2-2.8-2.9c-0.8-0.7-1.2-1.6-1.8-2.5
		c-1-1.5-1.6-3.2-2.9-4.4c-0.8-0.8-0.9-1.9-1.7-2.7c-2.1-2.3-4.5-4.2-6.6-6.6c-0.4-0.5-0.8-0.9-0.9-1.5c-0.1-0.4-0.3-0.7-0.5-1
		c-2.1-1.7-2.8-4.5-5-6c-0.4-0.3-0.7-0.7-0.8-1.1c-0.6-1.8-2.1-2.9-3.5-4.1c-0.5-0.4-1-0.9-1.1-1.6c-0.2-0.8-0.7-1.3-1.3-1.8
		c-0.6-0.5-1.1-1.1-1.4-1.8c-0.3-0.7-0.5-1.3-1.4-1.4c-0.5-0.1-0.7-0.5-0.7-0.9c0-1.7-1.2-2.6-2.2-3.6c-0.4-0.4-0.8-0.8-1-1.5
		c-0.4-1.6-2-2.2-2.9-3.4c-0.5-0.6-0.9-1.2-1.2-1.9c-0.8-1.7-2.3-2.8-4-3.6c-0.5-0.2-1.1-0.2-1.3-0.9c0.3-0.7,0.1-1.6,0.7-2.2
		c1,0.8,2.2,1.6,3.1,2.5c2.7,2.7,5.3,5.4,8,8.2c1.3,1.4,2.4,3,3.8,4.3c1.5,1.4,3.4,2.5,4.9,3.9c2.1,1.9,4,4.1,6.1,6
		c2.2,2.1,4.6,3.9,6.9,6c1.8,1.6,3.5,3.2,5.1,5c1.5,1.6,2.5,3.6,4.1,5.1c2.8,2.5,5.9,4.5,8.7,6.9
		C226.8,160.9,227.7,162.5,228.8,163.9z"/>
	<path class="st19" d="M174.8,112c-0.2,0.7-0.4,1.5-0.6,2.2c-0.7,0.6-1.6,0.4-2.4,0.4c-1.7,0.1-3.5-0.2-5.1,0.5
		c-1.3,0.6-1.5,1.1-0.7,2.2c1.1,1.4,2,2.9,3.8,3.4c0.5,0.2,0.9,0.7,1.3,1.1c0.6,0.7,1.2,1.2,2,1.5c2.3,0.9,3.1,4.4,1.3,6.1
		c-0.7,0.7-1.4,1.4-2.1,2.1c-0.6,0.5-1,1.1-1.2,1.9c-0.2,1.1-1.2,1.6-2,2.3c-1.3,1.2-2.2,2.7-3.7,3.7c-0.4,0-0.7-0.3-0.8-0.7
		c-0.5-2.2-1.9-4.1-2.3-6.4c-0.1-0.4-0.3-0.6-0.5-0.8c-0.2-0.3-0.4-0.6-0.4-1c0-3-1.4-5.7-2.3-8.5c-1.2-3.9-2.4-7.9-3.1-12
		c-0.3-1.5-0.1-2.9,0.8-4.2c0.8-1,0.5-2.5,1.5-3.4c0.2-0.2,0.3-0.5,0.6-0.6c0.7-0.4,1.5-0.8,2.2-1.1c1.1,1.4,2.1,2.9,3.4,4
		c1.5,1.3,3.4,2.1,5.1,3.2C171.5,109.2,173.1,110.6,174.8,112z"/>
	<path class="st20" d="M325.7,185.7c-0.6-3.1,2.3-4.1,3.6-6c0.2-0.2,0.3-0.6,0.4-0.8c0.7-0.5,1.2-0.1,1.7,0.4c1.3,1.4,2.7,2.7,4,4
		c0.6,0.6,1.1,1.2,2,1.2c0.4,0,0.7,0.3,0.8,0.7c0.8,2,2.2,3.3,4.2,4.2c0.7,0.3,1.2,1,1.7,1.6c1,1.1,1.9,2.1,3.4,2.6
		c1.1,0.4,1.7,1.6,2.9,2.1c1.4,0.6,2.5,1.7,3.9,2.4c0.6,0.3,1.1,0.9,0.5,1.6c-9,0-18.1,0-27.1,0
		C327.1,195.1,326.4,190.4,325.7,185.7z"/>
	<path class="st12" d="M326.9,151.8c-0.9,0.4-1.8,0.9-2.8,1.2c-4.5,1.4-8.9,3.2-13.7,0.9c-1.2-0.6-2.7-0.6-4-1
		c-0.6-0.2-1.1-0.9-1.7-1.4c-0.3-0.2-0.8-0.3-1.1-0.5c-0.3-0.7-0.6-1.3-0.9-2c-0.9-1.5-0.3-3.2-0.5-4.8c-0.1-0.8-0.1-1.6,0.5-2.3
		c0.3,0,0.6-0.1,0.8-0.1c0.2-0.1,0.4-0.3,0.6-0.3c2.8-0.1,5.6-0.4,8.4,0.2c0.5,0.5,1.1,0.7,1.8,0.7c3.2,0,6.4,0,9.5,0
		c0.6,0,1.2-0.1,1.7,0.4c0.2,0.7,0.4,1.3,0.6,2C327.5,147,327.8,149.3,326.9,151.8z"/>
	<path class="st10" d="M302.9,141.9c0,2.4,0,4.7,0,7.1c-0.4-0.4-0.7-0.8-1.1-1.2c0-1.6-0.1-3.2,0.1-4.9
		C301.8,142.6,302.5,142.3,302.9,141.9z"/>
	<path class="st5" d="M354.9,199.8c-0.5-0.6-1-1.4-1.6-1.9c-1.6-1.1-3.4-2-5-3.2c-2-1.6-3.7-3.7-5.9-4.9c-2.1-1.1-3.7-2.4-4.6-4.6
		c-0.4-0.9-2-1.2-2.9-1.9c-1.4-1.2-2.7-2.6-4-3.9c-0.3-0.2-0.7-0.3-1.1-0.4c0.6-0.4,1.3-0.8,1.9-1.1c4,0,8-0.2,12,0.1
		c1.7,0.1,3.4,1,5.1,1.7c1.6,0.7,3.2,1.3,4.6,2.3c1.6,1.2,2.9,2.8,4.3,4.3c1.5,1.5,3,3.1,4.4,4.7c0.5,0.5,0.4,1.6,0.9,2.1
		c2,2,4.1,3.9,6.2,5.8c0.3,0.3,0.5,0.8,0.7,1.1c-4.7,0-9.4,0-14.1,0C355.4,199.8,355.1,199.8,354.9,199.8z"/>
	<path class="st11" d="M399.8,167.9c0,5.9,0,11.9,0,17.8c-1.9-0.3-3.9-0.3-5.7-1c-2.1-0.8-4.1-2-6.1-3.1c-0.1-0.1-0.2-0.3-0.3-0.4
		c-0.7-2.1,0.4-6,2.1-7.2c2.2-1.5,4.4-2.9,6.6-4.2C397.5,169.1,398.7,168.5,399.8,167.9z"/>
	<path class="st15" d="M326.9,151.8c-0.2-2.4-0.4-4.7-0.5-7.1c1.5,0.8,3.1,1.6,4.5,2.6c1.7,1.1,3.2,2.4,4.8,3.6
		c0.9,1.6,1.8,3.2,2.6,4.8c0.8,1.5,1.7,3,2.5,4.6c0.4,0.8,0.8,1.7,1.2,2.5c-1.1,0-2.3,0.3-3.4-0.1c-1.7-0.6-3.6-1.1-4.7-2.4
		c-1.9-2-3.5-4.4-4.7-7C328.5,152.2,328.2,151.6,326.9,151.8z"/>
	<path class="st6" d="M386.8,196.7c1.3,1,2.6,2.1,3.9,3.1c-3.7,0-7.3,0-11,0c-0.4,0-0.7-0.3-1.1-0.5c0.4-0.2,0.7-0.4,1.1-0.6
		c1.8-0.7,3.6-1.3,5.4-1.9C385.7,196.7,386.3,196.7,386.8,196.7z"/>
	<path class="st11" d="M395.8,190.8c-0.2,1.4,0.8,3.4-2,3.3c-0.1,0-0.2,0.4-0.3,0.7c-2,0-3.9,0-5.9,0c1.3-0.9,2.5-1.9,3.8-2.8
		c1.1-0.7,2.2-1.3,3.4-2c0.2-0.1,0.6-0.2,0.6-0.2C395.6,190.1,395.7,190.4,395.8,190.8z"/>
	<path class="st10" d="M383.7,135.9c-3,0-6.1,0-9.1,0c0.4-0.4,0.8-1,1.2-1c2.6-0.1,5.3,0,7.9,0C383.7,135.2,383.7,135.6,383.7,135.9
		z"/>
	<path class="st4" d="M75,199.8c-11.3,0-22.6,0-33.9,0c-1.5-1.8-4-2.6-4.1-5.5c0-0.8-1.3-1.4-1.8-2.2c-1.1-1.9-2-3.9-3.2-5.8
		c-2.6-4.3-1.5-9-2.1-13.6c-0.3-2.2-1.6-4.5-2.8-6.5c-1.5-2.5-3.3-4.8-5.1-7c-1.3-1.6-3-2.9-4.5-4.3c-1.3-1.2-2.8-2.1-3.9-3.4
		c-1-1.1-1.5-2.8-2.5-3.9c-1.3-1.4-2.9-2.5-4.4-3.7c-1.1-0.9-2.2-1.7-3.3-2.6c0.1-2.4,2.3-5,4.5-5.9c3.5-1.4,7.1-1.1,10.7-1.1
		c1.2,0,2.4,0.6,3.6,0.7c1,0.5,1.1,1.2,0.6,2.2c-0.4,1-0.8,1.9-1.7,2.5c-1.7,1.4-0.8,2.9,0.7,3.4c2,0.7,3.1,2.3,4.4,3.6
		c1,0.9,1.9,1.9,2.8,3c0.3,0.4,0.7,0.6,1.2,0.7c0.8,0.2,1.4,0.6,1.9,1.2c0.7,0.9,1.5,1.4,2.6,1.8c1.2,0.4,1.9,1.6,2.8,2.5
		c1.3,1.3,2.4,3.1,4.1,3.8c2.3,1.1,3.6,3.3,5.4,4.8c0.7,0.6,1.5,0.8,2.2,1.2c1.3,0.9,2.2,2.1,3.3,3.2c0.5,0.5,1,1,1.8,1.3
		c1.2,0.4,1.8,1.5,2.7,2.2c1.5,1.6,3,3.1,4.5,4.7c1.8,2,4,3.6,5.9,5.6c2,1.6,2.5,4.2,3.9,6.2c0.2,0.3,0.2,0.7,0.2,1.1
		c0,0.9,0.3,1.5,1,2c0.7,0.5,1,1.1,0.9,1.9c0,0.8,0.3,1.4,0.9,2C75.6,197.2,75.7,198.2,75,199.8z"/>
	<path class="st14" d="M22.4,135.4c-2.8-0.2-5.6-0.7-8.3-0.5c-2.6,0.2-5.3,0.9-7.6,2.1c-1.4,0.8-2.1,2.9-3.2,4.4
		c-0.8,0.2-1.6,0.4-2.5,0.5c0-6.7,0-13.4,0-20c0.5-0.5,1.2-0.5,1.9-0.5c3.9,0,7.8,0,11.7,0c0.9,0,1.8,0.1,2.5,0.7
		c0.5,0.4,1.2,0.4,1.8,0.4c1.8,0,3.6,0,5.4,0c1.8,0,3.5,0,5.3,0.7c1.5,0.6,3.2,0.2,4.8,0.2c1.2,0,2.4,0,3.5,0.8
		c0.5,0.4,1.3,0.3,1.9,0.3c1.5,0,2.9,0,4.3,0.7c0.9,0.4,2,0.3,2.9,0.2c2.1-0.2,3.8,1,5.6,1.8c0.3,1.2-0.6,1.1-1.3,1.1
		c-1.7,0.1-3.4,0.1-5.1,0c-2.6,0-4.8,1.2-7.1,2.1c-0.4,0.2-0.5,0.5-0.5,0.9c-0.1,0.5,0,1-0.1,1.5c-0.4,1.7-0.4,3.6-1.2,5.2
		c-0.3,0.3-0.7,0.3-1.2,0.3c-1.5-0.6-2.7-1.6-3.5-3c-0.4-0.6-0.7-0.9-1.4-0.9c-1.1,0-2.1-0.1-3.1,0.5c-0.6,0.4-1.3,0.3-1.9,0.3
		C24.8,135.2,23.6,135.3,22.4,135.4z"/>
	<path class="st1" d="M159,101.8c-0.6,1.5-1.3,2.9-1.9,4.4c-0.3,0.7-0.8,1.5-0.6,2.2c0.7,3.5,1.6,7.1,2.4,10.6c1,4,1.9,7.9,2.9,11.9
		c0.1,0.2,0.2,0.4,0.3,0.6c0.2,0.4,0.2,0.9,0.2,1.4c0,3.1,0,6.1,0,9.2c0,1.1-0.1,2.2,0.8,3.2c0.4,0.4,0.3,1,0.3,1.5
		c0,1.3,0,2.6,0,3.9c0,0.9-0.1,1.7-0.7,2.4c-0.2,0.3-0.4,0.6-0.4,0.9c0,1.7-0.8,2.8-2.1,3.8c-0.5,0.4-0.8,1.1-1.3,1.5
		c-1.5,1.4-3.1,2.7-4.5,4.2c-2.9,3-5.7,6.1-8.5,9.1c-0.2,0.3-0.7,0.3-1.1,0.4c-0.5,0.3-0.9,0.1-1.1-0.4c-0.5-1.3-1.3-2.5-1.9-3.7
		c-1.6-3.3-3.1-6.7-5-9.9c-0.3-0.5-0.3-1.2-0.3-1.8c0-0.7,0-1.4-0.5-2c-1.9-1.9-3-4.3-4-6.7c-1-2.3-2.7-4.2-3.5-6.6
		c-0.5-1.3-1-2.6-1.7-3.8c-0.2-1.1,0.1-2.4-1-3.3c-0.3-0.3-0.3-0.9-0.3-1.4c0.1-1.6-0.6-2.9-1.5-4.2c-0.1-0.2-0.4-0.4-0.4-0.6
		c0-1.7-1.2-3.2-1-4.9c0.1-0.6-0.1-1.1-0.6-1.5c-0.2-0.2-0.3-0.4-0.4-0.6c-0.4-2.8-2.3-5.2-2.2-8.1c0-0.4-0.2-0.8-0.5-1.1
		c-0.4-0.4-0.5-0.9-0.6-1.4c-0.4-1.7-0.9-3.3-1.6-4.9c-0.6-1.4-1-2.9-1.2-4.4c-0.1-0.6-0.3-1-0.6-1.5c-0.7-1.3-1-2.8-1.4-4.2
		c0-2.6-0.8-5-1.4-7.4c-0.6-2.7-0.8-5.5-0.6-8.2c-0.1-1.1,0.5-1.7,1.4-2c2.6-1.1,4.6-3.2,7.2-4.3c3.2-1.3,6.3-2.9,10-3.1
		c4.6-0.2,8.9,0.9,13.2,2.3c1.3,0.4,2.4,1,3.3,2c2.3,2.5,0.8,5.6,1.4,8.4c1,4.3,1.4,8.7,2.5,12.9c0.3,1.1,2.3,1.8,3.6,2.6
		C155.8,99.8,158.4,99.1,159,101.8z"/>
	<path class="st6" d="M126.9,137.7c1,2,1.9,4.1,2.9,6.1c1,2,2.3,3.8,3.4,5.8c0.6,1.1,1.1,2.2,1.7,3.2c0.3,0.5,0.9,0.7,1.1,1.2
		c0.4,1,0.5,2.1,0.9,3.2c0.4,1.2,1,2.3,1.6,3.5c0.8,1.7,1.5,3.4,2.4,5.1c0.9,1.7,1.9,3.3,2.9,4.9c0.4,0.6,0.7,1.3,1.1,1.9
		c0.9,1.7,1.8,3.4,2.7,5.1c0.8,1.3,1.6,2.6,2.4,4c1,1.7,1.9,3.4,2.9,5.2c0.4,0.7,0.7,1.5,1.1,2.3c1,1.7,2.1,3.3,3,5
		c0.8,1.5,1.4,3,2.2,4.5c-0.2,0.4-0.6,0.5-1,0.5c-1.9,0.1-3.8,0.3-5.6-0.1c-2.6-0.6-5.3-0.7-7.9-1.6c-3-1.1-5.9-2.4-8.1-4.8
		c-1.5-1.6-3.1-3-4.6-4.6c-0.3-0.3-0.5-0.6-0.5-1c-0.6-2.1,0.6-3.7,1.5-5.4c0.4-0.8,0.5-1.8,1.3-2.5c0.3-0.2,0.2-0.7-0.2-0.8
		c-2.4-0.6-3.4-2.8-4.9-4.3c-2.3-2.2-4.6-4.4-6.8-6.8c-0.9-1-2.4-1.1-3.4-2.2c-1.5-1.5-2.8-3.1-4.4-4.6c-0.6-0.6-1.1-1.3-2-1.4
		c-0.4-0.1-0.6-0.3-0.8-0.7c-1-2.1-2.5-3.6-4.6-4.5c-1-0.4-1.6-1.4-2.4-2.2c-0.8-1.7-1.4-3.6-2.9-4.9c-0.6-0.5-0.6-1.3-0.9-1.9
		c-0.8-1.8-2-3.4-2.6-5.3c-0.1-0.3-0.3-0.5-0.5-0.7c-1.3-1.1-1.8-2.7-2.6-4.1c-0.2-0.4-0.3-0.8-0.6-1.1c-1-1.1-2.1-2.1-2.4-3.6
		c-0.1-0.2-0.4-0.4-0.6-0.6c-0.1-0.3-0.2-0.6,0-0.8c1.2-1,1.7-2.4,2.3-3.6c0.7-1.4,1.2-2.8,1.3-4.4c0.1-1.3,0-2.5,0-3.8
		c0-0.9,0-1.7-0.6-2.4c-0.2-0.2-0.3-0.5-0.2-0.8c0.3-1.8-0.8-3.1-1.4-4.6c-0.6-1.5-0.9-3-1.7-4.4c-0.2-0.4-0.4-0.7-0.6-1.1
		c-0.7-1-0.8-2.1-0.1-3c0.6-0.8,0.7-1.5,0.7-2.3c0-0.7-0.1-1.5,0.8-1.8c0.8-0.3,1.3,0.5,1.8,0.9c3.6,3.5,7,7.2,10.6,10.7
		c0.1,0.1,0.3,0.2,0.3,0.3c0.5,2.1,2.5,3,3.6,4.6c1.1,1.6,2.2,3.1,3.5,4.5c0.4,0.4,0.4,0.8,0.4,1.3c0,1,0.4,1.7,1.2,2.3
		c0.8,0.6,1.4,1.4,1.7,2.4c0.4,1.1,1.6,1.6,2.2,2.6c0.9,1.6,2.1,3,3.8,3.8c1.2,0.6,1.1,2.3,2.2,3
		C125.1,134.1,125.3,136.4,126.9,137.7z"/>
	<path class="st17" d="M158.9,159.1c0.8-1.1,1.6-2.2,2.4-3.3c0.1-0.1,0.4-0.2,0.4-0.4c0.4-3.2,1.9-6.8,0.9-9.6
		c-1.5-4.4-0.3-8.6-0.8-12.9c-0.1-0.5,0.2-1,0.3-1.5c0.3,0.7,0.6,1.5,0.9,2.2c0.7,1.8,1.4,3.6,2.1,5.3c0.1,0.2,0.3,0.3,0.4,0.4
		c0.8,0.2,0.9,0.8,1,1.4c0.9,5.4,2.6,10.6,4.9,15.6c0.6,1.3,1.7,2.2,2.9,3.1c0.7,0.5,1.4,0.2,2-0.2c1.1-0.7,2.1-1.6,2.9-2.6
		c1-1.1,2.1-1.8,3.2-2.7c0.5-0.4,1-0.5,1.6-0.5c0.9,0,1.9,0,2.8,0c1.2,0,2,0.4,3.1,1c3,1.7,4.8,4.6,6.9,7.1c2,2.4,4,4.9,5.9,7.5
		c2,2.6,3.9,5.3,6,7.8c0.8,0.9,1.9,1.5,2.8,2.4c0.5,0.5,1.1,1,0.5,1.8c-1,0.9-1.9,2-3,2.8c-1.3,1-2.7,1.9-4.1,2.6
		c-1.2,0.6-2.6,0.9-3.9,1.4c-0.9,0.6-1.9,0.4-2.9,0.4c-1.5,0-2.9,0.5-4.2,1.1c-1.6,0.8-2,1.9-1.5,4.2c0.2,1.1,0.7,2.1,1.5,3
		c0.7,0.9,1.6,2,1.1,3.4l-0.1,0c0,0-0.1,0-0.1,0c-6.3,0-12.6,0-18.9,0c0-3.6,0.2-7.2-0.1-10.8c-0.1-1.9-1.1-3.8-1.8-5.6
		c-0.6-1.7-1.2-3.4-2.1-4.9c-1-1.7-2.3-3.1-3.4-4.7c-1.2-1.7-2.4-3.4-3.6-5.1c-1-1.4-2.1-2.6-2.9-4.1c-0.6-1-0.6-2.3-1.1-3.3
		C160.4,160.5,159.6,159.8,158.9,159.1z"/>
	<path class="st1" d="M131.8,186.8c1.1,1.2,2.2,2.5,3.3,3.7c1.1,1.2,2.1,2.4,3.4,3.3c3.3,2.3,7,3.8,11,4.2c3.1,0.3,6.3,0.4,9.4,0.5
		c1,0.2,2.1,0.4,3.1,0.6c-0.6,0.2-1.2,0.6-1.7,0.6c-10.8,0-21.6,0-32.5,0c-0.3-0.4-0.5-0.8-0.8-1.1c-1.2-2.2-2.6-4.2-4-6.3
		c-1.6-2.4-3.2-4.9-5.5-6.8c-0.9-0.8-1.6-1.8-2.6-2.5c-0.5-0.4-1-0.8-1.7-1c-0.7-0.2-1.2-0.7-1.5-1.4c-0.6-1.6-1.9-2.3-3.4-2.4
		c-0.8-0.1-1.5-0.3-2.2-0.9c-0.6-0.5-1.3-1-2.1-1.4c-0.8-0.3-1.5-1.1-1.3-2.1c0.3-0.5,0.7-1,1.1-1.4c1.2-1.2,1.1-3.1,0.1-4.3
		c-1.4-1.5-2.8-3-4.7-3.9c-1.1-0.6-1.7-1.9-2.9-2.4c-1.2-1.7-2.8-3.1-3.9-4.9c-0.2-0.3-0.3-0.6-0.1-0.9c0.2-0.2,0.4-0.5,0.6-0.5
		c2.9-0.2,6-1,8.6,1c2.4,2.2,4.7,4.5,7,6.9c0.6,0.6,1.2,1.2,1.8,1.7c1.8,1.5,2.5,3.9,4.3,5.4c2.2,1.8,4.2,3.9,6,6.1
		c0.1,0.1,0.3,0.3,0.4,0.3c2.8,0.6,4,3.1,5.9,4.7c1.3,1.1,2.4,2.5,3.7,3.6C131.3,185.8,131.3,186.5,131.8,186.8z"/>
	<path class="st21" d="M211.8,180.9c-0.7-1-1.4-2-2.1-2.9c-1.9-2.3-3.9-4.6-5.8-6.9c-1.9-2.2-3.8-4.4-5.6-6.7
		c-2.2-2.8-4.5-5.5-6.6-8.4c-2-2.7-8.1-3.1-10.6-0.7c-1.7,1.6-3.6,3.1-5.4,4.5c-0.4,0.3-1.3,0.1-1.8-0.2c-3.8-2.6-4.5-7-5.8-11
		c-1-3.1-1.7-6.2-2.6-9.3c1.6-1.8,3.3-3.5,4.9-5.4c1.5-1.7,3-3.5,4.3-5.4c1.1-1.5-0.2-4.4-2-4.8c-0.4-0.1-0.8-0.5-1.2-0.8
		c-1.8-1.5-3.6-2.9-5.3-4.5c-0.7-0.7-1.4-2.4-1.1-2.7c0.8-0.8,2-1.4,3.2-1.6c1.9-0.2,3.9-0.1,5.9-0.1c1.2,0.7,2.7,1.2,3.6,2.1
		c1.4,1.4,2.5,3.2,3.8,4.8c1.7,2.1,3.4,4,5.1,6.1c0.2,0.3,0.1,0.9,0.2,1.4c0.1,0.4,0.1,0.9,0.3,1c2.4,1.3,3.4,3.7,4.7,5.9
		c0.7,1.2,2,1.9,3,2.9c1.4,1.5,2.6,3.1,3.9,4.7c1.2,1.5,2.3,3.2,3.6,4.6c2.8,3.1,5.7,6.1,8.4,9.3c1.3,1.5,1.9,3.5,3.1,5.1
		c1.5,2.1,3.3,3.9,4.9,5.9c2,2.3,4.4,4.3,5.8,6.9c0.9,1.7,1.6,2.6,3.4,2.8c0.1,0,0.1,0.1,0.2,0.1c1,1.2,1.5,2.6,2.2,4
		c0.2,0.3,0.3,0.7,0.6,0.9c1.6,1.5,3.1,3.1,4.7,4.6c0.5,0.4,0.7,0.9,0.2,1.4c-1,1.2-2,2.3-3.1,3.5c-1.2,1.2-2.4,2.4-3.6,3.7
		c-1.4,1.5-2.8,0.9-4-0.1c-2.7-2.3-5.3-4.5-7.7-7c-1.6-1.6-3-3.5-4.4-5.4C212.5,182.7,212.2,181.7,211.8,180.9z"/>
	<path class="st4" d="M235.8,188.8c-1.1-1.3-2.3-2.6-3.4-3.9c-0.6-0.7-1.1-1.4-1.7-2.1c0.8-0.7,0.7-1.3-0.1-2
		c-0.5-0.5-1.1-1.1-1.2-1.9c-0.1-1-1.1-0.7-1.6-1.2c0,0,0,0,0,0c0.7-1,1.3-2.1,2-3.1c2.5,1.1,5.2,1.9,7.6,3.3c1.7,1,2.8,2.8,4.3,4.2
		c0.6,0.6,1.5,1,2.2,1.5c0.9,0.7,1.8,1.4,2.6,2.1c1.5,1.2,3,2.4,4.4,3.7c1.1,1,2.1,2.2,3.3,3.2c1.6,1.4,3.4,2.6,5,4
		c1.2,1,2.2,2,3.4,3.1c-4,0-7.9,0-11.9,0c-0.4,0-0.7,0-1.1,0c-0.6-0.7-1.1-1.4-1.7-1.9c-0.6-0.5-1.5-0.9-2.1-1.4
		c-1.7-1.4-3.3-3-5.1-4.3c-0.9-0.7-2.7-1.1-2.8-1.8C237.8,188.7,236.9,188.7,235.8,188.8z"/>
	<path class="st4" d="M194.9,199.8c-0.9-1.8-1.9-3.5-2.7-5.3c-1.6-3.5,0.5-6.7,4.5-6.8c1.4,0,2.7,0,4.1,0c0.6,0.4,1.2,0.7,1.7,1.2
		c2.5,2.2,4.9,4.5,7.5,6.6c0.4,0.3,1.3,0.2,1.6,0.5c0.8,0.9,1.4,2,2.2,3c-0.4,0.2-0.8,0.7-1.2,0.7
		C206.7,199.8,200.8,199.8,194.9,199.8z"/>
	<path class="st1" d="M206.7,0.9c-0.6,2-1,4-1.8,5.9c-0.8,2-2,3.9-3.1,5.8c-0.2,0.3-1.2,0.4-1.7,0.3c-1.5-0.5-2.8-1.2-4.3-1.8
		c-1.3-0.5-2.7-0.7-3.9-1.3c-0.6-0.3-1.1-1.3-1.1-2c0.1-2.3,0.5-4.6,0.8-6.8C196.7,0.9,201.7,0.9,206.7,0.9z"/>
	<path class="st1" d="M7.1,0.9c10.4,0,20.8,0,31.1,0c0.6,0,1.2,0.5,1.8,0.8c0.2,0.1,0.6,0.3,0.6,0.2c1.8-2.2,4.3-0.5,6.4-1
		c0.4,1.8,1.3,3.3,0.9,5.4c-0.4,2-0.3,4,0.6,6.1c1,2.5,1.6,5.2,2.4,7.8c0.5,1.7,0.8,3.4,2.1,4.7c0.4,0.4,0.4,0.9,0.4,1.5
		c0,0.7,0.2,1.4,0.3,2.1c0.2,2.7,2.2,4.8,2.4,7.5c0,0.4,0.4,0.6,0.7,0.9c0.4,0.4,0.6,0.8,0.6,1.4c0,1.4,0.7,2.7,0.7,4.2
		c0,0.1,0,0.3,0.1,0.4c1.7,1.5,1,3.8,1.8,5.6c0.1,0.1,0,0.3,0.1,0.4c2.2,3.4,1.9,7.3,2.7,11c0.4,1.8,1.1,3.5,1.7,5.2
		c0.2,0.7,0.6,1.3,0.6,2c1.2,3,1.9,6.2,3.2,9.2c0.1,0.2,0.1,0.4,0.1,0.5c-0.4,1.8,0.7,3.2,1.4,4.7c0.6,1.1,0.7,2.2,0.6,3.4
		c0,0.7-0.2,1.3-0.7,1.8c-1.7,1.5-2.2,3.4-2.1,5.5c0,0.8,0.3,1.5,0.8,2c1.3,1.4,2.7,2.7,4.6,3.3c0.6,0.2,1.1,0.4,1.5,0.9
		c0.7,0.9,1.7,1.1,2.7,1.4c0.5,0.4,0.6,1,0.6,1.7c0.1,1.9,0.6,3.7,1,5.5c0.1,1.2,0.3,2.5,1,3.6c0.4,0.6,0.3,1.4,0.3,2.2
		c0,1.1,0,2.2,0.4,3.3c0.2,1.5,0.2,3,0.1,4.5c-0.1,1.6,0.5,2.6,1.8,3.4c0.8,1.5,0.4,2.4-1.3,2.5c-1.8,0.1-3.5,0-5.3-0.5
		c-3.1-0.9-6-2.1-9.3-2.4c-1.7-0.2-3.6-0.7-5.3-1.3c-1.4-0.4-2.6-0.5-4-0.5c-1.1,0-2.3,0-3.2-0.8c-0.4-0.4-1-0.3-1.5-0.3
		c-1.3,0-2.6,0-4,0c-0.9,0-1.7-0.1-2.4-0.7c-0.5-0.4-1.1-0.4-1.7-0.4c-1.5,0-2.9,0-4.4,0c-1,0-1.9-0.1-2.9-0.6
		c-1-0.5-2.1-0.2-3.2-0.3c-1.4,0-2.9,0.2-4.2-0.9c-0.4-0.4-1.2-0.2-1.8-0.2c-4.2,0-8.4,0-12.6,0c-1.1,0-2.2-0.1-3.3-0.6
		c-1-0.5-2-0.2-3.1-0.3c-1.1,0-2.2,0-3-0.8c-0.3-0.3-0.8-0.3-1.2-0.3c-1.4,0-2.6-0.7-3.8-1.4c0-3,0-6,0-9c1.2-1.2,1.7-2.5,1.5-4.2
		c-0.1-1.5,0-2.8,1.4-3.9C5,95.8,4.5,94,3.2,93.2c-0.8-0.5-1.5-0.9-2.3-1.4c0-26.8,0-53.6,0-80.4c0-0.5,0-1,0-1.6c2.8,0,5.5,0,8.3,0
		c0.4,0,0.8,0,1.1,0.2c0.5,0.2,0.9,0.6,1.3,0.9c0.1-0.6,0.5-1.3,0.3-1.8C11.5,8,11,6.9,10.4,5.9C9.3,4.2,8.2,2.6,7.1,0.9z"/>
	<path class="st16" d="M80.1,115.9c-0.2-0.2-0.4-0.5-0.4-0.7c-0.4-2.8-0.8-5.6-1.2-8.4c1.3-0.5,1.9-0.3,2.6,1
		c0.8,1.6,1.8,3.1,2.3,4.8c0.1,0.4,0.3,0.7,0.6,1c1.9,2.2,3.5,4.6,3.5,7.7c0,0.3,0,0.7,0.2,0.9c2,2,3,4.6,4.1,7.1
		c0.1,0.2,0.3,0.3,0.4,0.4c0.3,0.1,0.8,0.1,1,0.4c0.8,1.1,1.4,2.3,2.1,3.5c0.9,1.6,1.9,3.1,2.8,4.7c0.7,1.3,1.3,2.6,2.1,3.9
		c1.1,1.9,2.4,3.8,3.5,5.7c0.7,1.2,1.1,2.6,1.6,3.9c0.6,1.4,0.5,1.8-0.8,2.4c-0.4,0.2-0.7,0.4-0.8,0.8c-0.2,0.9-0.9,1.4-1.6,1.9
		c-2.5-0.4-5-0.8-7.6-1.1c-0.6-0.1-1.2,0.4-1.8,0.6c-0.2,0.1-0.5,0-0.7-0.1c-1.2-1.4-2.9-2.5-4-4c-0.8-1-1.5-2.1-1.5-3.5
		c0-0.5-0.5-0.9-0.8-1.3c-1.2-1.3-2.1-2.7-3.2-4.1c-1.1-1.4-2.3-2.8-3.6-4c-2.4-2.2-4.5-4.9-7.2-6.7c-1.7-1.2-3.3-2.6-5.7-2.6
		c-1.6,0-3.3-0.7-5-1.4c-1.9-0.7-3.9-1-5.9-1c-0.9,0-1.8,0.2-2.6-0.4c-2.7-0.5-5.4-1-8.1-1.4c-2.2-0.3-4.8,0.1-6.5-1
		c-2.6-1.7-5.2-0.7-7.8-0.9c-4.2-0.4-8.6,0.1-12.5-1.1c-5.6-1.7-11-0.3-16.5-0.9c0-2.6,0-5.3,0-7.9c1.9,0.6,3.9,1.2,5.8,1.8
		c0.3,0.1,0.5,0.1,0.8,0.2c7.2,0.3,14.3,0.4,21.5,0.9c3,0.2,6,1.4,9,1.8c2,0.3,4,0,6.1,0.1c3.3,0.3,6.5,0.7,9.7,1.1
		c2,0.3,4,0.6,6,1.1c2,0.5,3.9,1.2,5.8,1.8c0.4,0.1,0.9,0.1,1.4,0.1c1.9,0.3,4.1,0.2,5.7,1c2.6,1.3,5.2,1.8,8,1.8
		c1.6,0,1.9-0.6,1.3-2c-1.2-1.6-1.8-3.5-1.6-5.6C80.5,117.5,80.8,116.6,80.1,115.9z"/>
	<path class="st13" d="M0.9,91.9c1.3,0.5,3.3,0.7,3.7,1.6c0.6,1.4,0.7,3.4-1.4,4.5c-0.4,0.2-0.2,1.7-0.3,2.6
		c-0.2,1.2-0.5,2.5-0.9,3.7c-0.1,0.3-0.7,0.4-1.1,0.6C0.9,100.5,0.9,96.2,0.9,91.9z"/>
	<path class="st14" d="M64.5,67c-0.4-1.5-0.9-3-1.3-4.6c-0.6-2.4-1.2-4.8-1.8-7.2c-0.5-1.9,0.2-4.2-1.7-5.8c-0.4-0.4-0.3-1.3-0.5-2
		c-0.8-3.2-1.5-6.3-2.4-9.5c-0.4-1.3-1.2-2.4-1.6-3.6c-0.9-2.8-1.5-5.8-2.3-8.6c-0.3-1-1.1-1.8-1.4-2.8c-1.1-2.9-2.1-5.8-3-8.7
		c-0.9-3-2-6-0.8-9.3c0.4-1.1-0.4-2.6-0.7-4c6.7,0,13.4,0,20.1,0c0,0,0,0,0,0c0.8,0.7,1,1.7,1.4,2.7c0.8,2,1.2,4.2,2.4,6.1
		c0.4,0.5,0.6,1.1,0.5,1.7c0,0.3,0,0.6,0,0.8c0.4,3-0.3,5.6-2.9,7.5c-0.7,0.5-1,1.4-1,2.4c0,1.4,0,2.7,0,4.1c0,0.2,0,0.5,0.1,0.7
		c1.3,2.8,0.6,5.8,0.8,8.8c0.1,1-0.1,2.1,0.8,2.9c0.4,0.5,0.4,1.1,0.4,1.8c0,1.5,0,3,0,4.5c0,1.4,0,2.9,0.6,4.3
		c0.5,1.2,0.2,2.6,0.2,3.9c0,1,0,2,0,3c0,0.4-0.1,0.8,0.1,1.1c1.4,1.6,0.9,3.6,1,5.4c0.1,1.3-0.1,2.5,0.5,3.7c0.2,0.5,0,1.1-0.5,1.1
		C69.1,67.5,66.8,67.9,64.5,67z"/>
	<path class="st20" d="M64.5,67c2.1,0,4.1,0,6.2,0c0.3,0,0.7-0.2,1-0.3c-0.2-0.2-0.5-0.5-0.5-0.7c-0.1-1.4-0.1-2.9-0.2-4.3
		c-0.4-4.1-0.7-8.3-1.1-12.4c-0.2-2.3-0.6-4.7-0.8-7c-0.4-4.5-0.7-9-1.2-13.5c-0.2-2.2-0.5-4.3-0.8-6.4c-0.4-2.6,2-3.4,3-5.1
		c0.4-0.7,0.8-1.4,1-2.1c0.2-0.6-0.1-1.2,0-1.8c0.4-2.1-0.8-3.7-1.7-5.5c-0.7-1.3-0.9-2.9-1.4-4.4c-0.3-0.8-0.5-1.6-0.8-2.5
		c2.9,0,5.8,0,8.8,0c-0.6,1.8-1.3,3.5-1.9,5.3c-0.3,1-0.4,2.3-1,3.1c-1.4,1.8-1.6,5.9-0.2,7.9c1.1,1.7,2,3.5,3,5.2
		c1,1.7,2.1,3.4,3.2,5c0.3,0.5,1,0.8,1.3,1.3c1.3,1.7,2.5,3.5,3.7,5.2c0.7,0.8,0.6,1.8,0.7,2.8c0.4,3,0.9,5.9,1.4,8.8
		c0.3,1.6,0.6,3.1,1.9,4.3c0.7,0.6,1.1,1.4,1.9,1.9c1,0.8,2.1,1.6,1.5,3.1c-0.1,0.3,0.2,0.7,0.3,1.1c1,2.1,1.5,4.2,1.8,6.5
		c0.1,0.9,0.2,1.8,1.3,2.3c0.7,0.3,0.8,1.1,0.8,1.8c0.1,2.3,0.4,4.5,2.4,6c2.3,1.1,3.3,3.2,4.2,5.4c1.1,1.2,1.2,2.6,1.2,4.2
		c0,1.8-0.2,3.6,0.7,5.4c0.4,0.7,0.1,1.7,0.2,2.5c0,1.2-0.1,2.3,0.8,3.3c0.4,0.4,0.3,1.1,0.3,1.6c0,0.9,0.3,1.6,1,2.2
		c0.8,0.7,1.6,1.6,2.7,0.3c0.2-0.3,0.7-0.3,1.1-0.2c0.9,0,1.6-0.4,2.2-1.1c0.4-0.6,0.9-1,1.6-0.4c0.6,1.4,1.3,2.8,1.8,4.2
		c0.4,1,0.6,2,0.8,3.1c0.4,1.5,0.8,3.1,1.3,4.6c0.5,1.5,1.2,3,1.8,4.5c0.1,0.3,0.1,0.6,0.2,1c0.6,2,1.3,3.9,1.9,5.9
		c0.5,1.5,0.8,3.1,1.3,4.6c0.8,2.5,1.7,4.9,2.5,7.3c0,0.1,0.2,0.1,0.2,0.2c0.4,2.3,0.8,4.5,1.2,6.8c-0.6-0.4-1.3-0.8-1.8-1.4
		c-0.8-1-1.4-2.2-2.2-3.3c-0.7-1-1.4-1.9-2.2-2.7c-0.6-0.6-1.6-0.8-2-1.4c-1.7-2.2-2.9-4.8-4.8-6.6c-2.2-2-2-5.2-4.7-7
		c-2-1.3-2.7-4.4-4.4-6.4c-1.7-2-3.7-3.7-5.6-5.6c-2.1-2-4.1-4.1-6.1-6.2c-0.2-0.2-1-0.1-1-0.1c-0.5,1.5-1.1,3.1-1.1,4.6
		c-0.1,1.1,0.6,2.2,1.1,3.2c0.9,1.9,1.9,3.8,2.9,5.7c0.1,0.1,0.2,0.2,0.2,0.4c0.3,3.6,1.1,7.3,0.7,10.8c-0.3,2.5-2.4,4.7-3.7,7
		c-0.1,0.2-0.1,0.4-0.1,0.5c-0.4-0.3-0.9-0.5-1.1-0.9c-1-1.8-2-3.7-2.9-5.6c-0.4-0.8-0.7-1.6-1-2.4c-0.6-1.4-1.1-2.8-1.8-4.2
		c-1-2-1.8-4.2-3.1-5.9c-1.1-1.3-0.8-4.1-3.6-3.9c-0.4-1.8-0.8-3.5-1.1-5.3c-0.1-0.6-0.2-1.2-0.3-1.7c-1.6-2.9-2.9-6-4.5-8.9
		c-0.9-1.6-0.9-3.4-1.8-4.9c-0.2-0.4-0.3-0.9-0.7-1.2c-0.6-1.7-1.2-3.3-1.8-5C68,79.5,68,79.2,67.9,79c-0.9-3.2-1.8-6.3-2.7-9.5
		C64.9,68.7,64.7,67.8,64.5,67z"/>
	<path class="st22" d="M102.9,173.8c0.7,0.7,1.3,1.4,2,2c0.5,0.4,1,0.9,1.5,1.1c1.5,0.7,3.2,1.2,4.6,2c0.6,0.4,0.9,1.4,1.4,1.9
		c1.2,1,2.8,1.8,3.9,2.9c2,2.1,3.8,4.4,5.6,6.7c1.7,2.1,3.3,4.3,4.9,6.6c0.3,0.4,0.2,1.1,0.2,1.7c-0.4,0.4-0.8,1.1-1.3,1.1
		c-4.6,0.1-9.2,0-13.8,0c-0.8-0.7-1.5-1.4-2.6-1.6c-0.4-0.1-0.7-0.3-0.9-0.6c-0.2-0.2-0.3-0.5-0.6-0.6c-1.5-0.6-2.7-1.6-4-2.5
		c-0.6-0.4-1.3-0.7-1.8-1.2c-0.9-0.9-2.2-1.2-3.3-1.9c-3.1-1.9-6.6-3.3-9.8-5c-1-0.6-1.9-1.2-2.8-1.8c-1-0.7-2.5-0.5-3.5-1.3
		c-1.2-1-3-0.9-4.1-2.1c-0.4-1,0-1.6,1-1.9c0.4-0.1,0.8-0.3,1.1-0.6c0.8-0.9,1.8-1.3,3-1.5c1.2-0.2,2-1.2,2.4-2.4
		c0.2-0.4,0.2-0.9,0.6-1.2c1.3-0.4,2.5-0.4,3.7,0.3c0.5,0.3,1.1,0.3,1.6,0.3c2.5,0,5.1,0,7.6,0c0.6,0,1.2-0.1,1.8-0.4
		C102.1,173.5,102.5,173.4,102.9,173.8z"/>
	<path class="st6" d="M78.9,181.2c2.5,0.9,5,1.6,7.4,2.7c1.4,0.6,2.5,1.9,3.8,2.7c0.6,0.4,1.3,0.6,2,0.9c1.7,0.7,3.5,1.3,5.1,2.2
		c2,1.1,3.9,2.5,5.8,3.7c1.4,0.9,2.8,1.6,4.2,2.4c0.2,0.1,0.4,0,0.5,0.1c1.4,1,2.8,1.9,4.1,2.9c0.2,0.1,0.1,0.6,0.2,0.9
		c-12.1,0-24.1,0-36.2,0c-0.3,0-0.6,0-0.9,0c0.2-1.6-0.3-2.8-1.5-4c-1.2-1.3-1.7-3.3-2.5-4.9c-0.6-1.3-1-2.7-1.6-4
		c-0.7-1.4-1.6-2.6-2.4-3.9c0.8-0.8,1.8-0.5,2.7-0.5c1.2-0.1,2.3-0.3,3.4-0.7C74.9,181.1,76.9,180.1,78.9,181.2z"/>
	<path class="st9" d="M232.7,41.8c1,1.1,2,2.3,3.1,3.4c1.9,1.9,3.7,3.8,5.7,5.7c1.5,1.4,3.2,2.6,4.8,3.9c0.7,0.6,1.2,1.6,2,1.9
		c3.2,1.5,6.1,3.3,8,6.3c0.9,1.4,1.5,3.1,2.6,4.4c2.2,2.4,2.1,5.2,1.7,8c-0.2,1.3,0.1,3.9-2.7,3.5c-1.2-1-2.2-2.1-3.5-3
		c-2.4-1.7-4.9-3.2-7.2-5c-1.3-0.9-2.2-2.3-3.4-3.2c-1.8-1.4-3.8-2.5-5.5-3.8c-0.6-0.5-0.6-1.6-1.2-2.1c-1.8-1.4-3.7-2.5-5.6-3.8
		c-1.4-1-2.7-2-4.1-3.1c-2-1.6-4-3.2-6-4.7c-2-1.5-1.9-3.9-2.5-6c-0.1-0.3,0.7-1,1.1-1.1C224.3,42.6,228.5,42.2,232.7,41.8z"/>
	<path class="st0" d="M185.5,34c-0.7,1.2-1.1,2.3-1.9,2.8c-0.4,0.3-1.8-0.5-2.3-1.1c-1.2-1.5-2.2-3.3-3.3-4.9
		c-0.9-1.3-1.8-2.6-2.6-3.9c-0.4-0.6-0.6-1.3-1-2c-0.8-1.7-1.5-3.4-2.4-5.1c-0.8-1.6-2-3.2-2.7-4.8c-0.4-1-0.5-2.2-0.3-3.2
		c0.1-0.6,0.9-1.1,1.4-1.6c0.4,2,3.1-0.1,3.8,2.3c0.6,2.4,2.4,4.5,3.6,6.8c0.8,1.4,1.4,2.8,2.1,4.2c1.3,2.7,2.7,5.4,4,8.1
		C184.3,32.3,184.8,33,185.5,34z"/>
	<path class="st14" d="M272.3,33.7c0.7,0.4,1.6,1,2.4,1.7c0.2,0.2,0.2,1.1-0.1,1.4c-1.6,2-3.4,4-5.1,6c-0.9,1.1-1.7,2.3-2.6,3.5
		c-0.2,0.2-0.6,0.5-0.6,0.5c-1.2-1.4-2.8-2.6-3.4-4.3c-0.3-0.7,1.1-2.3,1.9-3.3c1.6-1.8,3.3-3.5,5.1-5.1
		C270.3,33.9,271.1,34,272.3,33.7z"/>
	<path class="st15" d="M312.7,141.9c-3,0-6-0.1-9-0.1c1.1-0.6,2.2-1.4,3.4-1.9c1.6-0.7,3.3-1.2,4.9-1.7c1.3-0.5,2.7-1.4,4-1.3
		c1.6,0.1,3.2,0.9,4.8,1.7c1.2,0.6,2.3,1.4,3.4,2.2c0.3,0.2,0.5,0.7,0.7,1.1c-0.3,0.4-0.8,0.4-1.3,0.4c-3.2,0-6.4,0-9.6,0
		C313.6,142.3,313.1,142.3,312.7,141.9z"/>
	<path class="st10" d="M312.7,141.9c4.1,0,8.1,0,12.2,0c0.3,0.3,0.5,0.6,0.8,0.9c-3.9,0-7.8,0-11.7-0.1
		C313.6,142.7,313.2,142.2,312.7,141.9z"/>
	<path class="st23" d="M101.9,78c-0.3-0.6-0.5-1.3-0.9-1.8c-1-1.1-2.1-2.2-3.1-3.2c-0.6-0.8-0.4-1.7-0.4-2.5
		c0.1-1.4-0.2-2.6-1.7-3.2c-0.2-0.1-0.3-0.3-0.4-0.5c-0.7-1.1-1.7-2.2-2.1-3.4c-0.9-2.6-2.3-5.3-2.1-7.8c0.3-3.1-2.8-3.3-3.2-5.4
		c-0.4-0.5-0.5-1.1-0.2-1.6c0.5-0.9,0.6-1.9,1-2.7c2.3-0.6,4.6-1.7,7.1-1.2c2.2,0.4,4.3,1.2,6.2,2.4c1,0.6,1.2,0.6,1.3-0.6
		c0.1-0.7,0.2-1.4,0.7-1.9c0.2-0.2,0.3-0.4,0.3-0.6c-0.3-2.3,1-4.5,0.9-6.8c0-1,0-1.9,0.8-2.6c0.3-0.3,0.2-0.8,0.4-1.2
		c0.9-1.9,1.1-4,1.3-6.1c0.1-0.9,0.6-1.7,0.8-2.7c0.1-0.8,1-1.1,1.5-1.6c1.4-0.6,2.9-0.9,4-1.8c2.7-2.3,8.8-1.7,11.2,0.7
		c2.3,2.3,3.5,4.9,4.7,7.7c0.6,1.4,2,2.5,2.8,3.8c0.8,1.2,1.5,2.5,2.1,3.8c1,2,2,4,2.9,6.1c1,2.3,1.9,4.7,3,7
		c0.8,1.6,1.9,3.1,2.8,4.8c1.1,2,2.1,4.1,3.1,6.2c0.9,1.7,1.9,3.4,2.5,5.3c0.4,1.1,0.2,2.5-0.1,3.7c-0.3,1.5-0.8,2.9-1.4,4.3
		c-0.1,0.3-0.7,0.4-1.1,0.6c-2.5-0.9-5-1.9-7.5-2.7c-5.1-1.6-10.2-1.8-15.2,0.4c-2.3,1-4.5,2-6.7,3.2c-1.8,0.9-3.4,2.1-5.1,3.2
		c-0.2,0.1-0.1,0.6-0.2,0.9c-0.8,0.6-1.6,0.5-2.4,0.2c-2.2-0.8-4.6-1.2-6.9-1.8C102.4,78.3,102.1,78.2,101.9,78z"/>
	<path class="st4" d="M110,22.9c-0.5,1.3-1.1,2.7-1.6,4c-0.1,0.3-0.3,0.7-0.3,1c-0.4,2.2-0.8,4.4-1.2,6.6c-0.6,3.2-1.3,6.4-2,9.5
		c-0.3,1.3-0.8,2.5-1.3,3.8c-0.1,0.2-0.9,0.4-1.3,0.2c-1.9-0.9-3.6-2.2-5.6-2.8c-1.3-0.5-3-0.2-4.5-0.1c-1.2,0.1-2.3,0.5-3.5,0.8
		c-0.9,0.7-1.9,0.6-2.8,0c-0.4-1.4-0.9-2.7-1.1-4.2c-0.4-2.6-0.6-5.1-0.9-7.7c1.7-0.6,3.3-1.3,5-1.9c2.2-0.7,4.4-1.4,6.7-2.1
		c0.5-0.2,0.9-0.5,1.3-0.8c1-0.6,2-1.2,2.8-2c1.1-1.2,2.1-2.6,3.1-3.8c0.2-0.3,0.7-0.4,1.1-0.4C106.1,22.9,108.1,22.9,110,22.9z"/>
	<path class="st24" d="M80.3,181.7c-1.9,0.2-4.3-0.2-5.6,0.8c-2.3,1.8-4.7,0.6-7,1.1c-3.2-3.1-6.4-6.1-9.6-9.2
		c-0.5-0.5-0.8-1.1-1.3-1.7c-1-2.5-2.3-4.9-3.6-7.3c-0.9-1.8-1.7-3.7-2.7-5.4c-1-1.6-1.7-3.3-2.5-5c-0.4-0.7-1.5-1.2-1-2.3
		c3.5-2.9,6.4-6.3,9.5-9.6c0.4-0.5,1.1-0.7,1.5-1.2c0.5-0.2,0.9,0.1,1.4,0.4c0.8,0.6,1.5,1.5,2.6,1.7c0.5,0.1,0.6,0.8,0.7,1.2
		c0.3,0.9,0.8,1.7,1.9,1.9c0.9,0.1,1.4,0.7,1.9,1.3c1.7,1.8,3.5,3.2,5.9,4c1.2,0.4,2.3,1.2,3.3,2c0.6,0.5,0.8,1,0.4,1.7
		c-2.7,2.2-3.2,5.1-2.9,8.3c0.1,0.6,0.4,1,0.9,1.1c2.2,0.9,4.1,2.4,6.7,2.8c2.8,0.4,5.6,1.3,7.5,3.9c0.4,0.6,1,1.1,0.4,1.8
		c0,2.6-1.5,3.9-4.1,4.3c-0.7,0.1-1.3,0.7-1.9,1.2C81.9,180.1,81.1,180.9,80.3,181.7z"/>
	<path class="st20" d="M52,156.7c0.7,1.2,1.4,2.4,2,3.6c0.4,0.7,0.6,1.5,0.9,2.2c0.9,2,1.8,4,2.9,6c1,1.9,2.3,3.7,3.2,5.6
		c0.6,1.4,0.9,2.9,1.3,4.4c-2.6-2-5.1-3.9-7.7-5.9c-1.8-1.4-3.6-2.7-5.3-4.1c-3.1-2.7-6.1-5.4-9.2-8.1c-2.6-2.3-5.3-4.4-7.9-6.7
		c-2.6-2.2-5-4.6-7.6-6.9c-1.1-0.9-2.4-1.6-3.5-2.4c-2.9-2.1-0.4-3.3,0.6-4.9c0.7-1.1,0.7-2.5,1.1-3.8c0.2-0.2,0.5-0.5,0.7-0.6
		c3.3-0.4,6.6-0.7,9.9-1c0.4,0,1,0.3,1.3,0.7c1.2,1.2,2.4,2.5,3.6,3.8c0.7,1.5,1.8,2.8,2,4.6c0.2,1.4,1.7,2.1,2.6,3.1
		c0.3,0.5,0.8,0.9,1.2,1.3c1.1,1.2,2.4,2.2,3,3.9c0.6,1.7,2.5,2.6,3.7,4C51.2,155.8,51.8,156.1,52,156.7z"/>
	<path class="st18" d="M75,156.9c-1.1-1-2.1-2.1-3.3-3c-2.1-1.5-4.4-2.9-6.6-4.3c-1-0.7-2.6-1.1-2.9-2c-0.7-2.2-2.8-2.4-4.1-3.6
		c-0.2,0.2-0.6,0.4-0.8,0.2c-1-0.8-2.3-1.1-3.3-2c-1.5-1.3-2.3-3.1-3.5-4.5c-1.5-1.8-3.5-3-5.5-4.1c-0.4-0.2-0.8-0.2-1.2-0.2
		c-1.4,0-2.7,0-4.1,0c-0.6,0-1.2,0.1-1.7-0.4c-0.7-2.8,1.1-3.6,3.3-3.9c3.5-0.5,7-0.8,10.5-1.2c0.2,0,0.4-0.3,0.7-0.5
		c2.6,0.2,5.2,0.2,7.8,0.6c2.9,0.5,5.8,0.9,8.4,2.1c2.4,1.1,4.3,3.2,6.3,5c1.9,1.8,3.7,3.8,5.5,5.8c1.5,1.7,2.9,3.5,4.4,5.2
		c1.2,1.4,2.3,2.6,2.2,4.7c0,0.7,1,1.6,1.6,2.2c1.2,1.2,2.6,2.4,3.9,3.5c1.3,1.8,2.7,3.6,4,5.3c-0.3,0.9-1.1,1.1-1.8,1
		c-3-0.5-6.2-0.1-9.1-1.4c-2.7-1.3-5.5-2.2-8.1-3.6C76.7,157.2,75.7,157.6,75,156.9z"/>
	<path class="st25" d="M38,132.8c1.6,0,3.2,0.1,4.8,0c3.7-0.2,6,2.1,8.2,4.5c1.4,1.6,2.5,3.4,4,4.9c0.8,0.8,2.1,1.1,3.1,1.7
		c-1.7,1.9-3.5,3.8-5.3,5.7c-1.2,1.3-2.5,2.5-3.8,3.8c-0.3,0.2-0.7,0.3-1.1,0.4c-1.6-1.7-3.2-3.5-4.8-5.2c-0.8-0.9-1.6-1.8-2.4-2.7
		c-0.3-0.3-0.5-0.8-0.7-1.1c-0.9-2.3-2.4-4.3-2.8-6.8C37.4,136.2,37.7,134.5,38,132.8z"/>
	<path class="st2" d="M37.3,137.9c0.3,0.1,0.7,0.1,0.8,0.2c0.9,2.9,1.8,5.9,2.7,8.8c-1.1-1.7-2.4-3.2-3.4-5c-0.7-1.2-1-2.7-1.4-4
		C36.4,137.9,36.9,137.9,37.3,137.9z"/>
	<path class="st6" d="M101.1,78c2.8,0.7,5.6,1.4,8.4,2c0.8,0.2,1.6,0.1,2.4,0.2c0.7,4.9,1.4,9.7,2.1,14.6c0.1,0.8,0,1.7,0.1,2.6
		c-0.4,0.2-0.8,0.5-1.2,0.7c-0.9,0.5-1.8,0.9-2.6,1.4c-0.5,0.3-1.1,0.7-1.6,0.8c-0.6,0.2-1.5,0.4-1.7,0.2c-1.2-1.4-2.5-2.4-2.6-4.7
		c0-2.8-1.3-5.6-1.8-8.4c-0.2-1.1,0-2.3-0.1-3.3C101.9,82,101.5,80,101.1,78z"/>
	<path class="st0" d="M101.8,156.9c0.9-1.1,0.7-2.9,2.6-3.2c0.3,0,0.4-1.2,0.6-1.9c2.3,1.8,5.1,3.2,6.8,5.5c1.6,2.1,4.2,3.2,5.6,5.5
		c0.5,0.9,1.5,1.4,2.3,2.1c2.7,2.5,5.5,4.9,8.2,7.4c1.7,1.6,3.4,3.3,5.1,5c0.3,0.3,0.9,0.3,1.1,0.6c0.4,0.5,0.9,1.4,0.7,1.7
		c-1.4,2.3-3.1,4.4-2.9,7.3c-1.6-1.4-3.1-2.9-4.7-4.3c-1.9-1.7-3-4.2-5.9-5c-1.1-0.3-1.9-2-2.9-3c-1.9-1.9-3.8-3.8-5.7-5.8
		c-2.7-2.9-5.2-6-7.9-8.9C103.9,158.8,102.8,157.9,101.8,156.9z"/>
	<path class="st25" d="M73.7,155.2c1.9,0.7,3.9,1.3,5.8,2c0.8,0.3,1.5,0.7,2.2,1c4.5,1.6,9.1,3,14,2.9c0.5,0,1-0.4,1.5-0.6
		c0.8,0.4,1.6,0.8,2.3,1.3c1.8,1.4,3.7,2.8,5.4,4.3c1.6,1.5,2.6,3.3,1.5,5.5c-0.4,0.9-1.4,1.5-2.2,2.2c-4,0.3-8.1,0.7-12.1,0.9
		c-1.8,0-3.7-0.6-5.5-0.9c-1.5-1.4-2.7-3.3-4.5-4.2c-2.8-1.5-5.8-2.7-8.9-3.3c-4.8-1-3-4.5-2.9-7C70.6,157.8,72.6,156.5,73.7,155.2z
		"/>
	<path class="st5" d="M227.9,177.8c2.2-0.8,1.7,1.7,2.8,2.3c0.5,0.3,1.1,0.8,1.1,1.2c-0.1,0.5-0.6,1-1,1.5c-0.6-0.8-1.4-1.5-1.9-2.4
		C228.4,179.7,228.2,178.7,227.9,177.8z"/>
	<path class="st9" d="M5.5,23c0.7-1,1.4-2.6,2.2-2.7c1.1-0.1,2.5,0.7,3.4,1.5c2.6,2.2,5,4.7,7.5,7.1c2.1,2.1,4.3,4.2,6.3,6.5
		c1.5,1.8,2.7,4,4.1,6c1.4,1.9,3.1,3.7,4.5,5.6c0.9,1.2,1.7,2.5,2.4,3.8c1,1.8,1.8,3.7,3,5.4c1.4,2.1,3.2,3.9,4.7,5.9
		c0.9,1.4,1.4,3,2.3,4.4c1,1.6,2.3,3,3.4,4.5c0.6,0.8,1,1.7,1.5,2.5c1,1.6,2,3.2,3,4.8c1,1.8,2,3.6,3.1,5.4c1.3,2.2,2.8,4.3,3.7,6.6
		c0.5,1.2,0.2,2.9,0,4.3c0,0.2-1.8,0.6-2.2,0.3c-1.6-1.3-3.1-2.7-4.3-4.2c-1.5-2-2.6-4.3-4.1-6.3c-1.2-1.5-3-2.6-4.2-4.1
		c-1.7-2.1-3.1-4.5-4.7-6.7c-1.6-2.2-3.9-4.1-4.2-7.2c-0.1-0.8-1.4-1.5-2-2.3c-1.4-1.8-2.7-3.7-4.1-5.6c0,0,0-0.1,0-0.1
		c-1.2-1.2-2.5-2.3-3.6-3.5c-1.1-1.3-2.1-2.8-3.1-4.2c-1.7-2.4-3.4-4.8-5.2-7.1c-1.6-2-3.4-3.9-5-5.9c-1.4-1.9-2.6-3.9-3.9-5.8
		c-1.3-2-2.8-4-4-6.1C5.8,25.1,6,24.2,6,23.4C5.8,23.3,5.6,23.1,5.5,23z"/>
	<path class="st16" d="M69.9,84.8c0.7,1,1.4,2,1.9,3.1c0.6,1.3,0.9,2.7,1.5,3.9c0.8,1.8,1.7,3.5,2.5,5.3c0.4,0.9,0.7,1.8,1.1,2.7
		c-1-0.5-2.1-1.1-3.1-1.6c-0.8-0.4-1.5-0.8-2.3-1.2c-3.5-1.5-4.9-3.6-4.3-7.4c0.2-1.3,1.4-2.4,2.1-3.6
		C69.5,85.6,69.7,85.2,69.9,84.8z"/>
	<path class="st7" d="M80.1,115.9c0.3,0.1,0.7,0.2,0.8,0.4c0.4,2.5,0.8,5,1.2,7.5c-0.7-0.7-1.8-1.3-1.9-2.1
		C79.9,119.8,80.1,117.8,80.1,115.9z"/>
	<path class="st5" d="M95.4,66.7c3.8,0.9,2.1,4,2.5,6.3c-0.6-0.9-1.5-1.7-1.9-2.6C95.5,69.2,95.6,67.9,95.4,66.7z"/>
	<path class="st6" d="M86,45.8c0.9,0,1.9,0,2.8,0c-0.3,1.4-0.6,2.8-0.9,4.3C87.3,48.6,86.6,47.2,86,45.8z"/>
</g>
</svg>
