<?xml version="1.0" encoding="utf-8"?>
<!-- Generator: Adobe Illustrator 26.1.0, SVG Export Plug-In . SVG Version: 6.00 Build 0)  -->
<svg version="1.1" id="Layer_1" xmlns="http://www.w3.org/2000/svg" xmlns:xlink="http://www.w3.org/1999/xlink" x="0px" y="0px"
	 viewBox="0 0 2560 1322.7" style="enable-background:new 0 0 2560 1322.7;" xml:space="preserve">
<style type="text/css">
	.st0{fill:#1B1B1B;}
	.st1{fill:#292929;}
</style>
<path class="st0" d="M237.3,128H-33.4c-11.2,0-20.3-9.1-20.3-20.3V24.3C-53.7,13.1-44.6,4-33.4,4h270.7c11.2,0,20.3,9.1,20.3,20.3
	v83.3C257.6,118.9,248.5,128,237.3,128z"/>
<path class="st0" d="M557.2,128H286.6c-11.2,0-20.3-9.1-20.3-20.3V24.3c0-11.2,9.1-20.3,20.3-20.3h270.7c11.2,0,20.3,9.1,20.3,20.3
	v83.3C577.6,118.9,568.5,128,557.2,128z"/>
<path class="st0" d="M877.2,128H606.5c-11.2,0-20.3-9.1-20.3-20.3V24.3c0-11.2,9.1-20.3,20.3-20.3h270.7c11.2,0,20.3,9.1,20.3,20.3
	v83.3C897.5,118.9,888.5,128,877.2,128z"/>
<path class="st0" d="M1197,128H926.3c-11.2,0-20.3-9.1-20.3-20.3V24.3C906,13.1,915.1,4,926.3,4H1197c11.2,0,20.3,9.1,20.3,20.3
	v83.3C1217.3,118.9,1208.2,128,1197,128z"/>
<path class="st0" d="M89.7,260.2H-181c-11.2,0-20.3-9.1-20.3-20.3v-83.3c0-11.2,9.1-20.3,20.3-20.3H89.7c11.2,0,20.3,9.1,20.3,20.3
	V240C110,251.1,100.9,260.2,89.7,260.2z"/>
<path class="st0" d="M409.6,260.2H138.9c-11.2,0-20.3-9.1-20.3-20.3v-83.3c0-11.2,9.1-20.3,20.3-20.3h270.7
	c11.2,0,20.3,9.1,20.3,20.3V240C430,251.1,420.9,260.2,409.6,260.2z"/>
<path class="st0" d="M729.6,260.2H458.9c-11.2,0-20.3-9.1-20.3-20.3v-83.3c0-11.2,9.1-20.3,20.3-20.3h270.7
	c11.2,0,20.3,9.1,20.3,20.3V240C749.9,251.1,740.8,260.2,729.6,260.2z"/>
<path class="st0" d="M1049.4,260.2H778.7c-11.2,0-20.3-9.1-20.3-20.3v-83.3c0-11.2,9.1-20.3,20.3-20.3h270.7
	c11.2,0,20.3,9.1,20.3,20.3V240C1069.7,251.1,1060.6,260.2,1049.4,260.2z"/>
<path class="st1" d="M240.1,392.4H-30.6c-11.2,0-20.3-9.1-20.3-20.3v-83.4c0-11.2,9.1-20.3,20.3-20.3h270.7
	c11.2,0,20.3,9.1,20.3,20.3v83.4C260.4,383.3,251.3,392.4,240.1,392.4z"/>
<path class="st0" d="M560.1,392.4H289.4c-11.2,0-20.3-9.1-20.3-20.3v-83.4c0-11.2,9.1-20.3,20.3-20.3h270.7
	c11.2,0,20.3,9.1,20.3,20.3v83.4C580.4,383.3,571.3,392.4,560.1,392.4z"/>
</svg>
