<?xml version="1.0" encoding="utf-8"?>
<!-- Generator: Adobe Illustrator 26.1.0, SVG Export Plug-In . SVG Version: 6.00 Build 0)  -->
<svg version="1.1" id="Layer_1" xmlns="http://www.w3.org/2000/svg" xmlns:xlink="http://www.w3.org/1999/xlink" x="0px" y="0px"
	 viewBox="0 0 1654 1430" style="enable-background:new 0 0 1654 1430;" xml:space="preserve">
<style type="text/css">
	.st0{fill:#f3f3f3;}
</style>
<path class="st0" d="M1310.9,570.8c72,38.4,140.4,85.8,198.6,150.6c58.8,64.8,107.4,147.6,93,222.6c-13.8,74.4-90,141-147,208.8
	c-57,67.2-94.8,135.6-152.4,156.6c-57.6,20.4-135.6-6-208.8-14.4c-73.2-8.4-141.6,1.8-225.6-3.6s-183.6-27-216.6-86.4
	s0-156,14.4-244.8c13.8-88.8,9-169.8,46.8-220.8c37.2-51.6,118.2-73.8,187.8-113.4c69.6-40.2,129-97.8,196.2-111
	C1164.5,501.2,1239.5,531.8,1310.9,570.8z"/>
</svg>
