<?xml version="1.0" encoding="utf-8"?>
<!-- Generator: Adobe Illustrator 26.1.0, SVG Export Plug-In . SVG Version: 6.00 Build 0)  -->
<svg version="1.1" id="Layer_1" xmlns="http://www.w3.org/2000/svg" xmlns:xlink="http://www.w3.org/1999/xlink" x="0px" y="0px"
	 viewBox="0 0 1080 1080" style="enable-background:new 0 0 1080 1080;" xml:space="preserve">
<style type="text/css">
	.st0{fill:#D6D6D6;}
	.st1{fill:#0071BC;}
	.st2{fill:#FBB03B;}
</style>
<path class="st0" d="M736.9,220.8c72,38.4,140.4,85.8,198.6,150.6c58.8,64.8,107.4,147.6,93,222.6c-13.8,74.4-90,141-147,208.8
	c-57,67.2-94.8,135.6-152.4,156.6c-57.6,20.4-135.6-6-208.8-14.4c-73.2-8.4-141.6,1.8-225.6-3.6c-84-5.4-183.6-27-216.6-86.4
	c-33-59.4,0-156,14.4-244.8c13.8-88.8,9-169.8,46.8-220.8c37.2-51.6,118.2-73.8,187.8-113.4c69.6-40.2,129-97.8,196.2-111
	C590.5,151.2,665.5,181.8,736.9,220.8z"/>
<path class="st1" d="M1029.93,584.86c-14.59-16.51-33.37-32.38-51.93-32.86c-39-1-91,12-161,116s-135,97-203,134
	c-35.12,19.11-75.84,74.5-105.77,141.78c4.01,0.36,8.03,0.75,12.07,1.22c73.2,8.4,151.2,34.8,208.8,14.4
	c57.6-21,95.4-89.4,152.4-156.6c57-67.8,133.2-134.4,147-208.8C1029.08,590.97,1029.55,587.92,1029.93,584.86z"/>
<path class="st2" d="M917,572c-6-66-105-108-225-75s39,212,39,212s51,107-38,171s-225-95-316-102s-152,18-205,53
	c-26.17,17.28-36.24,47-39.74,72.66c45.34,23.65,107.26,34.19,162.44,37.74c84,5.4,152.4-4.8,225.6,3.6
	c73.2,8.4,151.2,34.8,208.8,14.4c57.6-21,95.4-89.4,152.4-156.6c19.1-22.72,40.35-45.3,60.69-68.08
	C922.03,689.42,921.37,620.09,917,572z"/>
<path class="st2" d="M634,438c52.59,7.22,112-9,121-31s16-83-51-91s-102,16-104,42S583,431,634,438z"/>
<path class="st2" d="M624,269c-26.42-12.33-47-55-40-84s19-93,51-92s42,22,33,39s-16,52.99,15,48.99
	c31-3.99,51.56,11.83,45.78,35.42S713,265,692,275S654,283,624,269z"/>
</svg>
