<?xml version="1.0" encoding="utf-8"?>
<!-- Generator: Adobe Illustrator 26.1.0, SVG Export Plug-In . SVG Version: 6.00 Build 0)  -->
<svg version="1.1" id="Layer_1" xmlns="http://www.w3.org/2000/svg" xmlns:xlink="http://www.w3.org/1999/xlink" x="0px" y="0px"
	 viewBox="0 0 446 86" style="enable-background:new 0 0 446 86;" xml:space="preserve">
<style type="text/css">
	.st0{fill:#333333;}
	.st1{fill:#1A1A1A;}
	.st2{fill:url(#SVGID_1_);}
	.st3{fill:url(#SVGID_00000111901914467397246620000016886250414820825742_);}
	.st4{fill:url(#SVGID_00000133491233561231153710000013296965735911974079_);}
	.st5{fill:url(#SVGID_00000176042488343774638850000008322783430733436320_);}
	.st6{fill:url(#SVGID_00000057835464027902391820000003896485159943378341_);}
	.st7{fill:url(#SVGID_00000025408920039346231470000000900924006285102266_);}
	.st8{fill:url(#SVGID_00000109728509255759636720000003618439804255122065_);}
	.st9{fill:url(#SVGID_00000036936664134406397190000006989475202991344023_);}
	.st10{fill:url(#SVGID_00000119818095506433301440000017762204831175635903_);}
	.st11{fill:url(#SVGID_00000106141509522059947620000000416966555965339833_);}
	.st12{fill:url(#SVGID_00000152980698464988439410000012671920861640734373_);}
	.st13{fill:url(#SVGID_00000044862660359376513060000012067825852921176744_);}
	.st14{fill:url(#SVGID_00000092417595128264042160000013647534585392232836_);}
	.st15{fill:url(#SVGID_00000146497731887745163300000012265432409116457127_);}
	.st16{fill:url(#SVGID_00000165219644742820102150000000701069973397473424_);}
	.st17{fill:url(#SVGID_00000109741860550519373250000003082847696543851158_);}
	.st18{fill:url(#SVGID_00000058560597418524852480000013325808565541296310_);}
	.st19{fill:url(#SVGID_00000178190452883310421210000004388634378789383602_);}
	.st20{fill:url(#SVGID_00000044884623018603950460000004565171392352533132_);}
	.st21{fill:url(#SVGID_00000124869845957522791560000011095407423114472120_);}
	.st22{fill:url(#SVGID_00000041255773886977317880000012213930589184824759_);}
	.st23{fill:url(#SVGID_00000049928440853232978800000017444523612227717301_);}
	.st24{fill:url(#SVGID_00000109720907028651563750000017856398954204218252_);}
	.st25{fill:url(#SVGID_00000078018225018711485460000016669114528907980183_);}
	.st26{fill:url(#SVGID_00000099654910994994042730000003259554881738332575_);}
	.st27{fill:url(#SVGID_00000076562679998029812350000000211231272795212454_);}
	.st28{fill:url(#SVGID_00000072273671614905524500000017041596353620007839_);}
	.st29{fill:url(#SVGID_00000010998837656188196650000009014210666725932449_);}
	.st30{fill:url(#SVGID_00000058577804667645520470000007670360835869037734_);}
	.st31{fill:url(#SVGID_00000061440702440745013110000010689502141778399398_);}
	.st32{fill:url(#SVGID_00000020392592643681143070000008878428852988649143_);}
	.st33{fill:url(#SVGID_00000082368117536966249260000011703465944305727890_);}
	.st34{fill:url(#SVGID_00000057108157245478692360000008319868693290525374_);}
	.st35{fill:url(#SVGID_00000111168442663720672810000011745865996290301852_);}
	.st36{fill:url(#SVGID_00000023268697512794730540000005719936908183747972_);}
	.st37{fill:url(#SVGID_00000160869833105940498400000017021912472916532404_);}
	.st38{fill:url(#SVGID_00000111897512349451620130000013069853038339783866_);}
	.st39{fill:url(#SVGID_00000088127511159496558990000002699696437768804281_);}
	.st40{fill:url(#SVGID_00000145753541978401403370000003703561528112837283_);}
	.st41{fill:url(#SVGID_00000075880069845985718290000007591841591927842706_);}
	.st42{fill:url(#SVGID_00000154417126957618404900000005947805570548494254_);}
	.st43{fill:url(#SVGID_00000088826534121191894970000012917414688414698112_);}
	.st44{fill:url(#SVGID_00000045581780089542324110000008950390113769031833_);}
	.st45{fill:url(#SVGID_00000016764681112838967550000000012867679819193737_);}
	.st46{fill:url(#SVGID_00000125560751376925821160000005797986565211355315_);}
	.st47{fill:url(#SVGID_00000180337981435101308700000007414066806367776444_);}
	.st48{fill:url(#SVGID_00000121991220265896576950000011007168653281306009_);}
	.st49{fill:url(#SVGID_00000044894351185368650490000005499466229714044810_);}
	.st50{fill:url(#SVGID_00000040556408097917129110000011458751036117657534_);}
	.st51{fill:url(#SVGID_00000039126886502778032540000004155266299067190671_);}
	.st52{fill:url(#SVGID_00000165939606170849671680000014282428572902437311_);}
	.st53{fill:url(#SVGID_00000179635745499991755300000013000652244752684419_);}
	.st54{fill:url(#SVGID_00000003816143623875615890000010138094049276335271_);}
	.st55{fill:url(#SVGID_00000151505992576879276920000009975750430991859084_);}
	.st56{fill:url(#SVGID_00000071558060826048408700000001446805864710320259_);}
	.st57{fill:url(#SVGID_00000079464929461324246610000006478662316497456012_);}
	.st58{fill:url(#SVGID_00000156579047585236121630000008539984117771815354_);}
	.st59{fill:url(#SVGID_00000003074207565157750780000010303211976627400860_);}
	.st60{fill:url(#SVGID_00000018196959903109659120000001052307581181761202_);}
	.st61{fill:url(#SVGID_00000018206644829532081180000009691396565933146303_);}
	.st62{fill:url(#SVGID_00000128460157126386778160000015489818426100526233_);}
	.st63{fill:url(#SVGID_00000055669104763919055950000016240365292359242668_);}
	.st64{fill:url(#SVGID_00000069361000947073655330000009824469447110613928_);}
	.st65{fill:url(#SVGID_00000079484154583239527210000014164271672220402314_);}
</style>
<polygon class="st0" points="37.41,18.01 384.11,18.01 394.08,66.79 27.44,66.79 "/>
<rect x="27.44" y="66.79" class="st1" width="366.65" height="6.4"/>
<g>
	<linearGradient id="SVGID_1_" gradientUnits="userSpaceOnUse" x1="43.0474" y1="20.6582" x2="71.5126" y2="20.6582">
		<stop  offset="0" style="stop-color:#AFAFAF"/>
		<stop  offset="1" style="stop-color:#6A6A6A"/>
	</linearGradient>
	<path class="st2" d="M68.49,15.77c-0.17-0.52-0.66-0.87-1.21-0.87h-4.81H52.09h-4.81c-0.55,0-1.03,0.35-1.21,0.87l-2.96,8.98
		c-0.27,0.82,0.34,1.67,1.21,1.67h7.77h10.38h7.77c0.86,0,1.48-0.85,1.21-1.67L68.49,15.77z"/>
</g>
<g>
	
		<linearGradient id="SVGID_00000147181942901095651460000015781559486405516178_" gradientUnits="userSpaceOnUse" x1="73.1008" y1="20.6582" x2="93.4099" y2="20.6582">
		<stop  offset="0" style="stop-color:#AFAFAF"/>
		<stop  offset="1" style="stop-color:#6A6A6A"/>
	</linearGradient>
	<path style="fill:url(#SVGID_00000147181942901095651460000015781559486405516178_);" d="M90.38,15.77
		c-0.17-0.52-0.66-0.87-1.21-0.87h-4.81h-2.23h-4.81c-0.55,0-1.03,0.35-1.21,0.87l-2.96,8.98c-0.27,0.82,0.34,1.67,1.21,1.67h7.77
		h2.23h7.77c0.86,0,1.48-0.85,1.21-1.67L90.38,15.77z"/>
</g>
<g>
	
		<linearGradient id="SVGID_00000131329395190573546770000016182310920560775599_" gradientUnits="userSpaceOnUse" x1="95.0723" y1="20.6582" x2="115.3814" y2="20.6582">
		<stop  offset="0" style="stop-color:#AFAFAF"/>
		<stop  offset="1" style="stop-color:#6A6A6A"/>
	</linearGradient>
	<path style="fill:url(#SVGID_00000131329395190573546770000016182310920560775599_);" d="M112.36,15.77
		c-0.17-0.52-0.66-0.87-1.21-0.87h-4.81h-2.23H99.3c-0.55,0-1.03,0.35-1.21,0.87l-2.96,8.98c-0.27,0.82,0.34,1.67,1.21,1.67h7.77
		h2.23h7.77c0.86,0,1.48-0.85,1.21-1.67L112.36,15.77z"/>
</g>
<g>
	
		<linearGradient id="SVGID_00000013914515069264474640000016809666672130802821_" gradientUnits="userSpaceOnUse" x1="117.0175" y1="20.6582" x2="137.3266" y2="20.6582">
		<stop  offset="0" style="stop-color:#AFAFAF"/>
		<stop  offset="1" style="stop-color:#6A6A6A"/>
	</linearGradient>
	<path style="fill:url(#SVGID_00000013914515069264474640000016809666672130802821_);" d="M134.3,15.77
		c-0.17-0.52-0.66-0.87-1.21-0.87h-4.81h-2.23h-4.81c-0.55,0-1.03,0.35-1.21,0.87l-2.96,8.98c-0.27,0.82,0.34,1.67,1.21,1.67h7.77
		h2.23h7.77c0.86,0,1.48-0.85,1.21-1.67L134.3,15.77z"/>
</g>
<g>
	
		<linearGradient id="SVGID_00000172415165664698129680000005120760126412996014_" gradientUnits="userSpaceOnUse" x1="138.7675" y1="20.6582" x2="159.0766" y2="20.6582">
		<stop  offset="0" style="stop-color:#AFAFAF"/>
		<stop  offset="1" style="stop-color:#6A6A6A"/>
	</linearGradient>
	<path style="fill:url(#SVGID_00000172415165664698129680000005120760126412996014_);" d="M156.05,15.77
		c-0.17-0.52-0.66-0.87-1.21-0.87h-4.81h-2.23H143c-0.55,0-1.03,0.35-1.21,0.87l-2.96,8.98c-0.27,0.82,0.34,1.67,1.21,1.67h7.77
		h2.23h7.77c0.86,0,1.48-0.85,1.21-1.67L156.05,15.77z"/>
</g>
<g>
	
		<linearGradient id="SVGID_00000087391682211494663810000007301159468309356475_" gradientUnits="userSpaceOnUse" x1="160.739" y1="20.6582" x2="181.0481" y2="20.6582">
		<stop  offset="0" style="stop-color:#AFAFAF"/>
		<stop  offset="1" style="stop-color:#6A6A6A"/>
	</linearGradient>
	<path style="fill:url(#SVGID_00000087391682211494663810000007301159468309356475_);" d="M178.02,15.77
		c-0.17-0.52-0.66-0.87-1.21-0.87h-4.81h-2.23h-4.81c-0.55,0-1.03,0.35-1.21,0.87l-2.96,8.98c-0.27,0.82,0.34,1.67,1.21,1.67h7.77
		h2.23h7.77c0.86,0,1.48-0.85,1.21-1.67L178.02,15.77z"/>
</g>
<g>
	
		<linearGradient id="SVGID_00000085937652669708297500000008567560135971851408_" gradientUnits="userSpaceOnUse" x1="182.7953" y1="20.6582" x2="203.1043" y2="20.6582">
		<stop  offset="0" style="stop-color:#AFAFAF"/>
		<stop  offset="1" style="stop-color:#6A6A6A"/>
	</linearGradient>
	<path style="fill:url(#SVGID_00000085937652669708297500000008567560135971851408_);" d="M200.08,15.77
		c-0.17-0.52-0.66-0.87-1.21-0.87h-4.81h-2.23h-4.81c-0.55,0-1.03,0.35-1.21,0.87l-2.96,8.98c-0.27,0.82,0.34,1.67,1.21,1.67h7.77
		h2.23h7.77c0.86,0,1.48-0.85,1.21-1.67L200.08,15.77z"/>
</g>
<g>
	
		<linearGradient id="SVGID_00000145760993221177444820000003485156034649059750_" gradientUnits="userSpaceOnUse" x1="204.5453" y1="20.6582" x2="224.8543" y2="20.6582">
		<stop  offset="0" style="stop-color:#AFAFAF"/>
		<stop  offset="1" style="stop-color:#6A6A6A"/>
	</linearGradient>
	<path style="fill:url(#SVGID_00000145760993221177444820000003485156034649059750_);" d="M221.83,15.77
		c-0.17-0.52-0.66-0.87-1.21-0.87h-4.81h-2.23h-4.81c-0.55,0-1.03,0.35-1.21,0.87l-2.96,8.98c-0.27,0.82,0.34,1.67,1.21,1.67h7.77
		h2.23h7.77c0.86,0,1.48-0.85,1.21-1.67L221.83,15.77z"/>
</g>
<g>
	
		<linearGradient id="SVGID_00000081610320700208192380000003229404556321296821_" gradientUnits="userSpaceOnUse" x1="226.5168" y1="20.6582" x2="246.8259" y2="20.6582">
		<stop  offset="0" style="stop-color:#AFAFAF"/>
		<stop  offset="1" style="stop-color:#6A6A6A"/>
	</linearGradient>
	<path style="fill:url(#SVGID_00000081610320700208192380000003229404556321296821_);" d="M243.8,15.77
		c-0.17-0.52-0.66-0.87-1.21-0.87h-4.81h-2.23h-4.81c-0.55,0-1.03,0.35-1.21,0.87l-2.96,8.98c-0.27,0.82,0.34,1.67,1.21,1.67h7.77
		h2.23h7.77c0.86,0,1.48-0.85,1.21-1.67L243.8,15.77z"/>
</g>
<g>
	
		<linearGradient id="SVGID_00000112594515493878322830000001329563075289955244_" gradientUnits="userSpaceOnUse" x1="249.0964" y1="20.6582" x2="269.4055" y2="20.6582">
		<stop  offset="0" style="stop-color:#AFAFAF"/>
		<stop  offset="1" style="stop-color:#6A6A6A"/>
	</linearGradient>
	<path style="fill:url(#SVGID_00000112594515493878322830000001329563075289955244_);" d="M266.38,15.77
		c-0.17-0.52-0.66-0.87-1.21-0.87h-4.81h-2.23h-4.81c-0.55,0-1.03,0.35-1.21,0.87l-2.96,8.98c-0.27,0.82,0.34,1.67,1.21,1.67h7.77
		h2.23h7.77c0.86,0,1.48-0.85,1.21-1.67L266.38,15.77z"/>
</g>
<g>
	
		<linearGradient id="SVGID_00000023267326305933824730000001992203765879268231_" gradientUnits="userSpaceOnUse" x1="271.1934" y1="20.6582" x2="295.506" y2="20.6582">
		<stop  offset="0" style="stop-color:#AFAFAF"/>
		<stop  offset="1" style="stop-color:#6A6A6A"/>
	</linearGradient>
	<path style="fill:url(#SVGID_00000023267326305933824730000001992203765879268231_);" d="M292.48,15.77
		c-0.17-0.52-0.66-0.87-1.21-0.87h-4.81h-6.23h-4.81c-0.55,0-1.03,0.35-1.21,0.87l-2.96,8.98c-0.27,0.82,0.34,1.67,1.21,1.67h7.77
		h6.23h7.77c0.86,0,1.48-0.85,1.21-1.67L292.48,15.77z"/>
</g>
<g>
	
		<linearGradient id="SVGID_00000160897574075307563950000006436341266795736963_" gradientUnits="userSpaceOnUse" x1="311.6878" y1="20.6582" x2="331.9969" y2="20.6582">
		<stop  offset="0" style="stop-color:#AFAFAF"/>
		<stop  offset="1" style="stop-color:#6A6A6A"/>
	</linearGradient>
	<path style="fill:url(#SVGID_00000160897574075307563950000006436341266795736963_);" d="M328.97,15.77
		c-0.17-0.52-0.66-0.87-1.21-0.87h-4.81h-2.23h-4.81c-0.55,0-1.03,0.35-1.21,0.87l-2.96,8.98c-0.27,0.82,0.34,1.67,1.21,1.67h7.77
		h2.23h7.77c0.86,0,1.48-0.85,1.21-1.67L328.97,15.77z"/>
</g>
<g>
	
		<linearGradient id="SVGID_00000025420222302218550100000008524402380380487066_" gradientUnits="userSpaceOnUse" x1="335.8165" y1="20.6582" x2="356.1255" y2="20.6582">
		<stop  offset="0" style="stop-color:#AFAFAF"/>
		<stop  offset="1" style="stop-color:#6A6A6A"/>
	</linearGradient>
	<path style="fill:url(#SVGID_00000025420222302218550100000008524402380380487066_);" d="M353.1,15.77
		c-0.17-0.52-0.66-0.87-1.21-0.87h-4.81h-2.23h-4.81c-0.55,0-1.03,0.35-1.21,0.87l-2.96,8.98c-0.27,0.82,0.34,1.67,1.21,1.67h7.77
		h2.23h7.77c0.86,0,1.48-0.85,1.21-1.67L353.1,15.77z"/>
</g>
<g>
	
		<linearGradient id="SVGID_00000018217664405613839270000014964582591532319154_" gradientUnits="userSpaceOnUse" x1="359.4832" y1="20.6582" x2="379.7922" y2="20.6582">
		<stop  offset="0" style="stop-color:#AFAFAF"/>
		<stop  offset="1" style="stop-color:#6A6A6A"/>
	</linearGradient>
	<path style="fill:url(#SVGID_00000018217664405613839270000014964582591532319154_);" d="M376.77,15.77
		c-0.17-0.52-0.66-0.87-1.21-0.87h-4.81h-2.23h-4.81c-0.55,0-1.03,0.35-1.21,0.87l-2.96,8.98c-0.27,0.82,0.34,1.67,1.21,1.67h7.77
		h2.23h7.77c0.86,0,1.48-0.85,1.21-1.67L376.77,15.77z"/>
</g>
<linearGradient id="SVGID_00000057854002658247256350000017668335400396762279_" gradientUnits="userSpaceOnUse" x1="211.7787" y1="27.5634" x2="211.7787" y2="18.8488">
	<stop  offset="0" style="stop-color:#333333;stop-opacity:0.4"/>
	<stop  offset="1" style="stop-color:#333333;stop-opacity:0"/>
</linearGradient>
<rect x="40.56" y="18.85" style="fill:url(#SVGID_00000057854002658247256350000017668335400396762279_);" width="342.44" height="8.71"/>
<g>
	
		<linearGradient id="SVGID_00000160158562506782883950000009079485725325118613_" gradientUnits="userSpaceOnUse" x1="40.6702" y1="28.9637" x2="74.0681" y2="28.9637">
		<stop  offset="0" style="stop-color:#AFAFAF"/>
		<stop  offset="1" style="stop-color:#6A6A6A"/>
	</linearGradient>
	<path style="fill:url(#SVGID_00000160158562506782883950000009079485725325118613_);" d="M71.04,24.08
		c-0.17-0.52-0.66-0.87-1.21-0.87h-4.81H49.71H44.9c-0.55,0-1.03,0.35-1.21,0.87l-2.96,8.98c-0.27,0.82,0.34,1.67,1.21,1.67h7.77
		h15.31h7.77c0.86,0,1.48-0.85,1.21-1.67L71.04,24.08z"/>
</g>
<g>
	
		<linearGradient id="SVGID_00000150062207903982878640000016643978541783249305_" gradientUnits="userSpaceOnUse" x1="75.1564" y1="28.9637" x2="95.4654" y2="28.9637">
		<stop  offset="0" style="stop-color:#AFAFAF"/>
		<stop  offset="1" style="stop-color:#6A6A6A"/>
	</linearGradient>
	<path style="fill:url(#SVGID_00000150062207903982878640000016643978541783249305_);" d="M92.44,24.08
		c-0.17-0.52-0.66-0.87-1.21-0.87h-4.81H84.2h-4.81c-0.55,0-1.03,0.35-1.21,0.87l-2.96,8.98c-0.27,0.82,0.34,1.67,1.21,1.67h7.77
		h2.23h7.77c0.86,0,1.48-0.85,1.21-1.67L92.44,24.08z"/>
</g>
<g>
	
		<linearGradient id="SVGID_00000139990924743260942140000014821513456758889114_" gradientUnits="userSpaceOnUse" x1="97.3508" y1="28.9637" x2="117.6599" y2="28.9637">
		<stop  offset="0" style="stop-color:#AFAFAF"/>
		<stop  offset="1" style="stop-color:#6A6A6A"/>
	</linearGradient>
	<path style="fill:url(#SVGID_00000139990924743260942140000014821513456758889114_);" d="M114.63,24.08
		c-0.17-0.52-0.66-0.87-1.21-0.87h-4.81h-2.23h-4.81c-0.55,0-1.03,0.35-1.21,0.87l-2.96,8.98c-0.27,0.82,0.34,1.67,1.21,1.67h7.77
		h2.23h7.77c0.86,0,1.48-0.85,1.21-1.67L114.63,24.08z"/>
</g>
<g>
	
		<linearGradient id="SVGID_00000096041738000697348960000012519667098737830323_" gradientUnits="userSpaceOnUse" x1="120.6286" y1="28.9637" x2="140.9377" y2="28.9637">
		<stop  offset="0" style="stop-color:#AFAFAF"/>
		<stop  offset="1" style="stop-color:#6A6A6A"/>
	</linearGradient>
	<path style="fill:url(#SVGID_00000096041738000697348960000012519667098737830323_);" d="M137.91,24.08
		c-0.17-0.52-0.66-0.87-1.21-0.87h-4.81h-2.23h-4.81c-0.55,0-1.03,0.35-1.21,0.87l-2.96,8.98c-0.27,0.82,0.34,1.67,1.21,1.67h7.77
		h2.23h7.77c0.86,0,1.48-0.85,1.21-1.67L137.91,24.08z"/>
</g>
<g>
	
		<linearGradient id="SVGID_00000106849902639168855020000013929688006811675566_" gradientUnits="userSpaceOnUse" x1="143.3885" y1="28.9637" x2="163.6976" y2="28.9637">
		<stop  offset="0" style="stop-color:#AFAFAF"/>
		<stop  offset="1" style="stop-color:#6A6A6A"/>
	</linearGradient>
	<path style="fill:url(#SVGID_00000106849902639168855020000013929688006811675566_);" d="M160.67,24.08
		c-0.17-0.52-0.66-0.87-1.21-0.87h-4.81h-2.23h-4.81c-0.55,0-1.03,0.35-1.21,0.87l-2.96,8.98c-0.27,0.82,0.34,1.67,1.21,1.67h7.77
		h2.23h7.77c0.86,0,1.48-0.85,1.21-1.67L160.67,24.08z"/>
</g>
<g>
	
		<linearGradient id="SVGID_00000104678920281913373640000004072328144878464145_" gradientUnits="userSpaceOnUse" x1="165.583" y1="28.9637" x2="185.8921" y2="28.9637">
		<stop  offset="0" style="stop-color:#AFAFAF"/>
		<stop  offset="1" style="stop-color:#6A6A6A"/>
	</linearGradient>
	<path style="fill:url(#SVGID_00000104678920281913373640000004072328144878464145_);" d="M182.87,24.08
		c-0.17-0.52-0.66-0.87-1.21-0.87h-4.81h-2.23h-4.81c-0.55,0-1.03,0.35-1.21,0.87l-2.96,8.98c-0.27,0.82,0.34,1.67,1.21,1.67h7.77
		h2.23h7.77c0.86,0,1.48-0.85,1.21-1.67L182.87,24.08z"/>
</g>
<g>
	
		<linearGradient id="SVGID_00000163751913488789877720000002434730458806399625_" gradientUnits="userSpaceOnUse" x1="188.8608" y1="28.9637" x2="209.1698" y2="28.9637">
		<stop  offset="0" style="stop-color:#AFAFAF"/>
		<stop  offset="1" style="stop-color:#6A6A6A"/>
	</linearGradient>
	<path style="fill:url(#SVGID_00000163751913488789877720000002434730458806399625_);" d="M206.14,24.08
		c-0.17-0.52-0.66-0.87-1.21-0.87h-4.81h-2.23h-4.81c-0.55,0-1.03,0.35-1.21,0.87l-2.96,8.98c-0.27,0.82,0.34,1.67,1.21,1.67h7.77
		h2.23h7.77c0.86,0,1.48-0.85,1.21-1.67L206.14,24.08z"/>
</g>
<g>
	
		<linearGradient id="SVGID_00000088102599411239269100000016000555497964213395_" gradientUnits="userSpaceOnUse" x1="211.349" y1="28.9637" x2="231.6581" y2="28.9637">
		<stop  offset="0" style="stop-color:#AFAFAF"/>
		<stop  offset="1" style="stop-color:#6A6A6A"/>
	</linearGradient>
	<path style="fill:url(#SVGID_00000088102599411239269100000016000555497964213395_);" d="M228.63,24.08
		c-0.17-0.52-0.66-0.87-1.21-0.87h-4.81h-2.23h-4.81c-0.55,0-1.03,0.35-1.21,0.87l-2.96,8.98c-0.27,0.82,0.34,1.67,1.21,1.67h7.77
		h2.23h7.77c0.86,0,1.48-0.85,1.21-1.67L228.63,24.08z"/>
</g>
<g>
	
		<linearGradient id="SVGID_00000065772974244020267260000009196256443237490055_" gradientUnits="userSpaceOnUse" x1="233.5434" y1="28.9637" x2="253.8525" y2="28.9637">
		<stop  offset="0" style="stop-color:#AFAFAF"/>
		<stop  offset="1" style="stop-color:#6A6A6A"/>
	</linearGradient>
	<path style="fill:url(#SVGID_00000065772974244020267260000009196256443237490055_);" d="M250.83,24.08
		c-0.17-0.52-0.66-0.87-1.21-0.87h-4.81h-2.23h-4.81c-0.55,0-1.03,0.35-1.21,0.87l-2.96,8.98c-0.27,0.82,0.34,1.67,1.21,1.67h7.77
		h2.23h7.77c0.86,0,1.48-0.85,1.21-1.67L250.83,24.08z"/>
</g>
<g>
	
		<linearGradient id="SVGID_00000139279344916948130530000004639905510850788245_" gradientUnits="userSpaceOnUse" x1="256.8212" y1="28.9637" x2="277.1303" y2="28.9637">
		<stop  offset="0" style="stop-color:#AFAFAF"/>
		<stop  offset="1" style="stop-color:#6A6A6A"/>
	</linearGradient>
	<path style="fill:url(#SVGID_00000139279344916948130530000004639905510850788245_);" d="M274.1,24.08
		c-0.17-0.52-0.66-0.87-1.21-0.87h-4.81h-2.23h-4.81c-0.55,0-1.03,0.35-1.21,0.87l-2.96,8.98c-0.27,0.82,0.34,1.67,1.21,1.67h7.77
		h2.23h7.77c0.86,0,1.48-0.85,1.21-1.67L274.1,24.08z"/>
</g>
<g>
	
		<linearGradient id="SVGID_00000042008471595845033430000016435921527451950003_" gradientUnits="userSpaceOnUse" x1="278.4601" y1="28.9637" x2="298.7692" y2="28.9637">
		<stop  offset="0" style="stop-color:#AFAFAF"/>
		<stop  offset="1" style="stop-color:#6A6A6A"/>
	</linearGradient>
	<path style="fill:url(#SVGID_00000042008471595845033430000016435921527451950003_);" d="M295.74,24.08
		c-0.17-0.52-0.66-0.87-1.21-0.87h-4.81h-2.23h-4.81c-0.55,0-1.03,0.35-1.21,0.87l-2.96,8.98c-0.27,0.82,0.34,1.67,1.21,1.67h7.77
		h2.23h7.77c0.86,0,1.48-0.85,1.21-1.67L295.74,24.08z"/>
</g>
<g>
	
		<linearGradient id="SVGID_00000137121712323004191000000000080688542744604348_" gradientUnits="userSpaceOnUse" x1="361.4045" y1="28.9637" x2="381.7136" y2="28.9637">
		<stop  offset="0" style="stop-color:#AFAFAF"/>
		<stop  offset="1" style="stop-color:#6A6A6A"/>
	</linearGradient>
	<path style="fill:url(#SVGID_00000137121712323004191000000000080688542744604348_);" d="M378.69,24.08
		c-0.17-0.52-0.66-0.87-1.21-0.87h-4.81h-2.23h-4.81c-0.55,0-1.03,0.35-1.21,0.87l-2.96,8.98c-0.27,0.82,0.34,1.67,1.21,1.67h7.77
		h2.23h7.77c0.86,0,1.48-0.85,1.21-1.67L378.69,24.08z"/>
</g>
<g>
	
		<linearGradient id="SVGID_00000060738518958686491190000005389383110152944792_" gradientUnits="userSpaceOnUse" x1="337.7934" y1="28.9637" x2="358.1025" y2="28.9637">
		<stop  offset="0" style="stop-color:#AFAFAF"/>
		<stop  offset="1" style="stop-color:#6A6A6A"/>
	</linearGradient>
	<path style="fill:url(#SVGID_00000060738518958686491190000005389383110152944792_);" d="M355.08,24.08
		c-0.17-0.52-0.66-0.87-1.21-0.87h-4.81h-2.23h-4.81c-0.55,0-1.03,0.35-1.21,0.87l-2.96,8.98c-0.27,0.82,0.34,1.67,1.21,1.67h7.77
		h2.23h7.77c0.86,0,1.48-0.85,1.21-1.67L355.08,24.08z"/>
</g>
<g>
	
		<linearGradient id="SVGID_00000151541302790345422230000011954658617870127789_" gradientUnits="userSpaceOnUse" x1="313.9045" y1="28.9637" x2="334.2136" y2="28.9637">
		<stop  offset="0" style="stop-color:#AFAFAF"/>
		<stop  offset="1" style="stop-color:#6A6A6A"/>
	</linearGradient>
	<path style="fill:url(#SVGID_00000151541302790345422230000011954658617870127789_);" d="M331.19,24.08
		c-0.17-0.52-0.66-0.87-1.21-0.87h-4.81h-2.23h-4.81c-0.55,0-1.03,0.35-1.21,0.87l-2.96,8.98c-0.27,0.82,0.34,1.67,1.21,1.67h7.77
		h2.23h7.77c0.86,0,1.48-0.85,1.21-1.67L331.19,24.08z"/>
</g>
<linearGradient id="SVGID_00000076605730846030391080000009574138539704404157_" gradientUnits="userSpaceOnUse" x1="210.5547" y1="35.1304" x2="210.5547" y2="26.4158">
	<stop  offset="0" style="stop-color:#333333;stop-opacity:0.4"/>
	<stop  offset="1" style="stop-color:#333333;stop-opacity:0"/>
</linearGradient>
<rect x="38.11" y="26.42" style="fill:url(#SVGID_00000076605730846030391080000009574138539704404157_);" width="344.88" height="8.71"/>
<g>
	
		<linearGradient id="SVGID_00000060741486087952734260000001551636695422128556_" gradientUnits="userSpaceOnUse" x1="242.8207" y1="37.5471" x2="263.1298" y2="37.5471">
		<stop  offset="0" style="stop-color:#AFAFAF"/>
		<stop  offset="1" style="stop-color:#6A6A6A"/>
	</linearGradient>
	<path style="fill:url(#SVGID_00000060741486087952734260000001551636695422128556_);" d="M260.1,32.66
		c-0.17-0.52-0.66-0.87-1.21-0.87h-4.81h-2.23h-4.81c-0.55,0-1.03,0.35-1.21,0.87l-2.96,8.98c-0.27,0.82,0.34,1.67,1.21,1.67h7.77
		h2.23h7.77c0.86,0,1.48-0.85,1.21-1.67L260.1,32.66z"/>
</g>
<g>
	
		<linearGradient id="SVGID_00000134208821886725394780000004815290094365355187_" gradientUnits="userSpaceOnUse" x1="219.9457" y1="37.5471" x2="240.2548" y2="37.5471">
		<stop  offset="0" style="stop-color:#AFAFAF"/>
		<stop  offset="1" style="stop-color:#6A6A6A"/>
	</linearGradient>
	<path style="fill:url(#SVGID_00000134208821886725394780000004815290094365355187_);" d="M237.23,32.66
		c-0.17-0.52-0.66-0.87-1.21-0.87h-4.81h-2.23h-4.81c-0.55,0-1.03,0.35-1.21,0.87l-2.96,8.98c-0.27,0.82,0.34,1.67,1.21,1.67h7.77
		h2.23h7.77c0.86,0,1.48-0.85,1.21-1.67L237.23,32.66z"/>
</g>
<g>
	
		<linearGradient id="SVGID_00000088111041786729187830000008205768668720709052_" gradientUnits="userSpaceOnUse" x1="196.8207" y1="37.5471" x2="217.1298" y2="37.5471">
		<stop  offset="0" style="stop-color:#AFAFAF"/>
		<stop  offset="1" style="stop-color:#6A6A6A"/>
	</linearGradient>
	<path style="fill:url(#SVGID_00000088111041786729187830000008205768668720709052_);" d="M214.1,32.66
		c-0.17-0.52-0.66-0.87-1.21-0.87h-4.81h-2.23h-4.81c-0.55,0-1.03,0.35-1.21,0.87l-2.96,8.98c-0.27,0.82,0.34,1.67,1.21,1.67h7.77
		h2.23h7.77c0.86,0,1.48-0.85,1.21-1.67L214.1,32.66z"/>
</g>
<g>
	
		<linearGradient id="SVGID_00000097468504919608433410000001228441430121429942_" gradientUnits="userSpaceOnUse" x1="173.779" y1="37.5471" x2="194.0881" y2="37.5471">
		<stop  offset="0" style="stop-color:#AFAFAF"/>
		<stop  offset="1" style="stop-color:#6A6A6A"/>
	</linearGradient>
	<path style="fill:url(#SVGID_00000097468504919608433410000001228441430121429942_);" d="M191.06,32.66
		c-0.17-0.52-0.66-0.87-1.21-0.87h-4.81h-2.23h-4.81c-0.55,0-1.03,0.35-1.21,0.87l-2.96,8.98c-0.27,0.82,0.34,1.67,1.21,1.67h7.77
		h2.23h7.77c0.86,0,1.48-0.85,1.21-1.67L191.06,32.66z"/>
</g>
<g>
	
		<linearGradient id="SVGID_00000011018381086882234260000017848543322809430657_" gradientUnits="userSpaceOnUse" x1="151.6435" y1="37.5471" x2="171.9526" y2="37.5471">
		<stop  offset="0" style="stop-color:#AFAFAF"/>
		<stop  offset="1" style="stop-color:#6A6A6A"/>
	</linearGradient>
	<path style="fill:url(#SVGID_00000011018381086882234260000017848543322809430657_);" d="M168.93,32.66
		c-0.17-0.52-0.66-0.87-1.21-0.87h-4.81h-2.23h-4.81c-0.55,0-1.03,0.35-1.21,0.87l-2.96,8.98c-0.27,0.82,0.34,1.67,1.21,1.67h7.77
		h2.23h7.77c0.86,0,1.48-0.85,1.21-1.67L168.93,32.66z"/>
</g>
<g>
	
		<linearGradient id="SVGID_00000162342747771065515110000010877654487764988583_" gradientUnits="userSpaceOnUse" x1="128.2685" y1="37.5471" x2="148.5776" y2="37.5471">
		<stop  offset="0" style="stop-color:#AFAFAF"/>
		<stop  offset="1" style="stop-color:#6A6A6A"/>
	</linearGradient>
	<path style="fill:url(#SVGID_00000162342747771065515110000010877654487764988583_);" d="M145.55,32.66
		c-0.17-0.52-0.66-0.87-1.21-0.87h-4.81h-2.23h-4.81c-0.55,0-1.03,0.35-1.21,0.87l-2.96,8.98c-0.27,0.82,0.34,1.67,1.21,1.67h7.77
		h2.23h7.77c0.86,0,1.48-0.85,1.21-1.67L145.55,32.66z"/>
</g>
<g>
	
		<linearGradient id="SVGID_00000041990603857433839220000005767774377299485594_" gradientUnits="userSpaceOnUse" x1="105.2269" y1="37.5471" x2="125.5359" y2="37.5471">
		<stop  offset="0" style="stop-color:#AFAFAF"/>
		<stop  offset="1" style="stop-color:#6A6A6A"/>
	</linearGradient>
	<path style="fill:url(#SVGID_00000041990603857433839220000005767774377299485594_);" d="M122.51,32.66
		c-0.17-0.52-0.66-0.87-1.21-0.87h-4.81h-2.23h-4.81c-0.55,0-1.03,0.35-1.21,0.87l-2.96,8.98c-0.27,0.82,0.34,1.67,1.21,1.67h7.77
		h2.23h7.77c0.86,0,1.48-0.85,1.21-1.67L122.51,32.66z"/>
</g>
<g>
	
		<linearGradient id="SVGID_00000095314937700471476850000005863795540657804686_" gradientUnits="userSpaceOnUse" x1="82.1078" y1="37.5471" x2="102.4168" y2="37.5471">
		<stop  offset="0" style="stop-color:#AFAFAF"/>
		<stop  offset="1" style="stop-color:#6A6A6A"/>
	</linearGradient>
	<path style="fill:url(#SVGID_00000095314937700471476850000005863795540657804686_);" d="M99.39,32.66
		c-0.17-0.52-0.66-0.87-1.21-0.87h-4.81h-2.23h-4.81c-0.55,0-1.03,0.35-1.21,0.87l-2.96,8.98c-0.27,0.82,0.34,1.67,1.21,1.67h7.77
		h2.23h7.77c0.86,0,1.48-0.85,1.21-1.67L99.39,32.66z"/>
</g>
<g>
	
		<linearGradient id="SVGID_00000129201560146928497060000004338772305082589604_" gradientUnits="userSpaceOnUse" x1="38.1945" y1="37.5471" x2="80.7015" y2="37.5471">
		<stop  offset="0" style="stop-color:#AFAFAF"/>
		<stop  offset="1" style="stop-color:#6A6A6A"/>
	</linearGradient>
	<path style="fill:url(#SVGID_00000129201560146928497060000004338772305082589604_);" d="M77.68,32.66
		c-0.17-0.52-0.66-0.87-1.21-0.87h-4.81H47.24h-4.81c-0.55,0-1.03,0.35-1.21,0.87l-2.96,8.98c-0.27,0.82,0.34,1.67,1.21,1.67h7.77
		h24.42h7.77c0.86,0,1.48-0.85,1.21-1.67L77.68,32.66z"/>
</g>
<g>
	
		<linearGradient id="SVGID_00000178182105730989374980000004360826631433296265_" gradientUnits="userSpaceOnUse" x1="266.3086" y1="37.5471" x2="302.1436" y2="37.5471">
		<stop  offset="0" style="stop-color:#AFAFAF"/>
		<stop  offset="1" style="stop-color:#6A6A6A"/>
	</linearGradient>
	<path style="fill:url(#SVGID_00000178182105730989374980000004360826631433296265_);" d="M299.12,32.66
		c-0.17-0.52-0.66-0.87-1.21-0.87h-4.81h-17.75h-4.81c-0.55,0-1.03,0.35-1.21,0.87l-2.96,8.98c-0.27,0.82,0.34,1.67,1.21,1.67h7.77
		h17.75h7.77c0.86,0,1.48-0.85,1.21-1.67L299.12,32.66z"/>
</g>
<linearGradient id="SVGID_00000055692354114503107380000017342986043538586790_" gradientUnits="userSpaceOnUse" x1="210.7795" y1="43.436" x2="210.7795" y2="34.7214">
	<stop  offset="0" style="stop-color:#333333;stop-opacity:0.4"/>
	<stop  offset="1" style="stop-color:#333333;stop-opacity:0"/>
</linearGradient>
<rect x="36.23" y="34.72" style="fill:url(#SVGID_00000055692354114503107380000017342986043538586790_);" width="349.11" height="8.71"/>
<g>
	
		<linearGradient id="SVGID_00000176723199610250922410000011344394819417789862_" gradientUnits="userSpaceOnUse" x1="344.3186" y1="46.5471" x2="364.6277" y2="46.5471">
		<stop  offset="0" style="stop-color:#AFAFAF"/>
		<stop  offset="1" style="stop-color:#6A6A6A"/>
	</linearGradient>
	<path style="fill:url(#SVGID_00000176723199610250922410000011344394819417789862_);" d="M361.6,41.66
		c-0.17-0.52-0.66-0.87-1.21-0.87h-4.81h-2.23h-4.81c-0.55,0-1.03,0.35-1.21,0.87l-2.96,8.98c-0.27,0.82,0.34,1.67,1.21,1.67h7.77
		h2.23h7.77c0.86,0,1.48-0.85,1.21-1.67L361.6,41.66z"/>
</g>
<g>
	
		<linearGradient id="SVGID_00000042724950157464462570000014047828302248666514_" gradientUnits="userSpaceOnUse" x1="260.4565" y1="46.5471" x2="305.3898" y2="46.5471">
		<stop  offset="0" style="stop-color:#AFAFAF"/>
		<stop  offset="1" style="stop-color:#6A6A6A"/>
	</linearGradient>
	<path style="fill:url(#SVGID_00000042724950157464462570000014047828302248666514_);" d="M302.36,41.66
		c-0.17-0.52-0.66-0.87-1.21-0.87h-4.81H269.5h-4.81c-0.55,0-1.03,0.35-1.21,0.87l-2.96,8.98c-0.27,0.82,0.34,1.67,1.21,1.67h7.77
		h26.85h7.77c0.86,0,1.48-0.85,1.21-1.67L302.36,41.66z"/>
</g>
<g>
	
		<linearGradient id="SVGID_00000129194023526490746930000003408604288608800166_" gradientUnits="userSpaceOnUse" x1="238.2547" y1="46.5471" x2="258.5638" y2="46.5471">
		<stop  offset="0" style="stop-color:#AFAFAF"/>
		<stop  offset="1" style="stop-color:#6A6A6A"/>
	</linearGradient>
	<path style="fill:url(#SVGID_00000129194023526490746930000003408604288608800166_);" d="M255.54,41.66
		c-0.17-0.52-0.66-0.87-1.21-0.87h-4.81h-2.23h-4.81c-0.55,0-1.03,0.35-1.21,0.87l-2.96,8.98c-0.27,0.82,0.34,1.67,1.21,1.67h7.77
		h2.23h7.77c0.86,0,1.48-0.85,1.21-1.67L255.54,41.66z"/>
</g>
<g>
	
		<linearGradient id="SVGID_00000147191957980266553730000004920609190543966089_" gradientUnits="userSpaceOnUse" x1="215.6243" y1="46.5471" x2="235.9334" y2="46.5471">
		<stop  offset="0" style="stop-color:#AFAFAF"/>
		<stop  offset="1" style="stop-color:#6A6A6A"/>
	</linearGradient>
	<path style="fill:url(#SVGID_00000147191957980266553730000004920609190543966089_);" d="M232.91,41.66
		c-0.17-0.52-0.66-0.87-1.21-0.87h-4.81h-2.23h-4.81c-0.55,0-1.03,0.35-1.21,0.87l-2.96,8.98c-0.27,0.82,0.34,1.67,1.21,1.67h7.77
		h2.23h7.77c0.86,0,1.48-0.85,1.21-1.67L232.91,41.66z"/>
</g>
<g>
	
		<linearGradient id="SVGID_00000045601232715740906870000002880369708243545503_" gradientUnits="userSpaceOnUse" x1="192.6936" y1="46.5471" x2="213.0027" y2="46.5471">
		<stop  offset="0" style="stop-color:#AFAFAF"/>
		<stop  offset="1" style="stop-color:#6A6A6A"/>
	</linearGradient>
	<path style="fill:url(#SVGID_00000045601232715740906870000002880369708243545503_);" d="M209.98,41.66
		c-0.17-0.52-0.66-0.87-1.21-0.87h-4.81h-2.23h-4.81c-0.55,0-1.03,0.35-1.21,0.87l-2.96,8.98c-0.27,0.82,0.34,1.67,1.21,1.67h7.77
		h2.23h7.77c0.86,0,1.48-0.85,1.21-1.67L209.98,41.66z"/>
</g>
<g>
	
		<linearGradient id="SVGID_00000065069455130786273340000015577216822740933037_" gradientUnits="userSpaceOnUse" x1="169.1297" y1="46.5471" x2="189.4388" y2="46.5471">
		<stop  offset="0" style="stop-color:#AFAFAF"/>
		<stop  offset="1" style="stop-color:#6A6A6A"/>
	</linearGradient>
	<path style="fill:url(#SVGID_00000065069455130786273340000015577216822740933037_);" d="M186.41,41.66
		c-0.17-0.52-0.66-0.87-1.21-0.87h-4.81h-2.23h-4.81c-0.55,0-1.03,0.35-1.21,0.87l-2.96,8.98c-0.27,0.82,0.34,1.67,1.21,1.67h7.77
		h2.23h7.77c0.86,0,1.48-0.85,1.21-1.67L186.41,41.66z"/>
</g>
<g>
	
		<linearGradient id="SVGID_00000003816650150461589050000006437208252131952779_" gradientUnits="userSpaceOnUse" x1="146.4993" y1="46.5471" x2="166.8084" y2="46.5471">
		<stop  offset="0" style="stop-color:#AFAFAF"/>
		<stop  offset="1" style="stop-color:#6A6A6A"/>
	</linearGradient>
	<path style="fill:url(#SVGID_00000003816650150461589050000006437208252131952779_);" d="M163.78,41.66
		c-0.17-0.52-0.66-0.87-1.21-0.87h-4.81h-2.23h-4.81c-0.55,0-1.03,0.35-1.21,0.87l-2.96,8.98c-0.27,0.82,0.34,1.67,1.21,1.67h7.77
		h2.23h7.77c0.86,0,1.48-0.85,1.21-1.67L163.78,41.66z"/>
</g>
<g>
	
		<linearGradient id="SVGID_00000052076667177007793520000013274937587585389743_" gradientUnits="userSpaceOnUse" x1="123.5686" y1="46.5471" x2="143.8777" y2="46.5471">
		<stop  offset="0" style="stop-color:#AFAFAF"/>
		<stop  offset="1" style="stop-color:#6A6A6A"/>
	</linearGradient>
	<path style="fill:url(#SVGID_00000052076667177007793520000013274937587585389743_);" d="M140.85,41.66
		c-0.17-0.52-0.66-0.87-1.21-0.87h-4.81h-2.23h-4.81c-0.55,0-1.03,0.35-1.21,0.87l-2.96,8.98c-0.27,0.82,0.34,1.67,1.21,1.67h7.77
		h2.23h7.77c0.86,0,1.48-0.85,1.21-1.67L140.85,41.66z"/>
</g>
<g>
	
		<linearGradient id="SVGID_00000076591390678889793570000007995121420253228682_" gradientUnits="userSpaceOnUse" x1="98.7631" y1="46.5471" x2="119.0721" y2="46.5471">
		<stop  offset="0" style="stop-color:#AFAFAF"/>
		<stop  offset="1" style="stop-color:#6A6A6A"/>
	</linearGradient>
	<path style="fill:url(#SVGID_00000076591390678889793570000007995121420253228682_);" d="M116.05,41.66
		c-0.17-0.52-0.66-0.87-1.21-0.87h-4.81h-2.23h-4.81c-0.55,0-1.03,0.35-1.21,0.87l-2.96,8.98c-0.27,0.82,0.34,1.67,1.21,1.67h7.77
		h2.23h7.77c0.86,0,1.48-0.85,1.21-1.67L116.05,41.66z"/>
</g>
<g>
	
		<linearGradient id="SVGID_00000065775297651929267730000014759914038621850771_" gradientUnits="userSpaceOnUse" x1="76.1326" y1="46.5471" x2="96.4417" y2="46.5471">
		<stop  offset="0" style="stop-color:#AFAFAF"/>
		<stop  offset="1" style="stop-color:#6A6A6A"/>
	</linearGradient>
	<path style="fill:url(#SVGID_00000065775297651929267730000014759914038621850771_);" d="M93.42,41.66
		c-0.17-0.52-0.66-0.87-1.21-0.87H87.4h-2.23h-4.81c-0.55,0-1.03,0.35-1.21,0.87l-2.96,8.98c-0.27,0.82,0.34,1.67,1.21,1.67h7.77
		h2.23h7.77c0.86,0,1.48-0.85,1.21-1.67L93.42,41.66z"/>
</g>
<g>
	
		<linearGradient id="SVGID_00000144333987099204587990000000920738946870445731_" gradientUnits="userSpaceOnUse" x1="35.4537" y1="46.5471" x2="74.7188" y2="46.5471">
		<stop  offset="0" style="stop-color:#AFAFAF"/>
		<stop  offset="1" style="stop-color:#6A6A6A"/>
	</linearGradient>
	<path style="fill:url(#SVGID_00000144333987099204587990000000920738946870445731_);" d="M71.69,41.66
		c-0.17-0.52-0.66-0.87-1.21-0.87h-4.81H44.5h-4.81c-0.55,0-1.03,0.35-1.21,0.87l-2.96,8.98c-0.27,0.82,0.34,1.67,1.21,1.67h7.77
		h21.18h7.77c0.86,0,1.48-0.85,1.21-1.67L71.69,41.66z"/>
</g>
<linearGradient id="SVGID_00000164512116520334429480000006946004362174820749_" gradientUnits="userSpaceOnUse" x1="210.5547" y1="52.4924" x2="210.5547" y2="46.5471">
	<stop  offset="0" style="stop-color:#333333;stop-opacity:0.4"/>
	<stop  offset="1" style="stop-color:#333333;stop-opacity:0"/>
</linearGradient>
<rect x="33.78" y="46.55" style="fill:url(#SVGID_00000164512116520334429480000006946004362174820749_);" width="353.55" height="5.95"/>
<g>
	
		<linearGradient id="SVGID_00000183207232674715319040000004417818736106618507_" gradientUnits="userSpaceOnUse" x1="32.8929" y1="56.5448" x2="53.2019" y2="56.5448">
		<stop  offset="0" style="stop-color:#AFAFAF"/>
		<stop  offset="1" style="stop-color:#6A6A6A"/>
	</linearGradient>
	<path style="fill:url(#SVGID_00000183207232674715319040000004417818736106618507_);" d="M50.18,51.66
		c-0.17-0.52-0.66-0.87-1.21-0.87h-4.81h-2.23h-4.81c-0.55,0-1.03,0.35-1.21,0.87l-2.96,8.98c-0.27,0.82,0.34,1.67,1.21,1.67h7.77
		h2.23h7.77c0.86,0,1.48-0.85,1.21-1.67L50.18,51.66z"/>
</g>
<g>
	
		<linearGradient id="SVGID_00000092454959322765381180000004492565198791377583_" gradientUnits="userSpaceOnUse" x1="55.5226" y1="56.5448" x2="75.8317" y2="56.5448">
		<stop  offset="0" style="stop-color:#AFAFAF"/>
		<stop  offset="1" style="stop-color:#6A6A6A"/>
	</linearGradient>
	<path style="fill:url(#SVGID_00000092454959322765381180000004492565198791377583_);" d="M72.81,51.66
		c-0.17-0.52-0.66-0.87-1.21-0.87h-4.81h-2.23h-4.81c-0.55,0-1.03,0.35-1.21,0.87l-2.96,8.98c-0.27,0.82,0.34,1.67,1.21,1.67h7.77
		h2.23h7.77c0.86,0,1.48-0.85,1.21-1.67L72.81,51.66z"/>
</g>
<g>
	
		<linearGradient id="SVGID_00000023979188136792581120000008633679009792840377_" gradientUnits="userSpaceOnUse" x1="77.7814" y1="56.5448" x2="98.0905" y2="56.5448">
		<stop  offset="0" style="stop-color:#AFAFAF"/>
		<stop  offset="1" style="stop-color:#6A6A6A"/>
	</linearGradient>
	<path style="fill:url(#SVGID_00000023979188136792581120000008633679009792840377_);" d="M95.06,51.66
		c-0.17-0.52-0.66-0.87-1.21-0.87h-4.81h-2.23h-4.81c-0.55,0-1.03,0.35-1.21,0.87l-2.96,8.98c-0.27,0.82,0.34,1.67,1.21,1.67h7.77
		h2.23h7.77c0.86,0,1.48-0.85,1.21-1.67L95.06,51.66z"/>
</g>
<g>
	
		<linearGradient id="SVGID_00000101803316515214144960000014941256918378367917_" gradientUnits="userSpaceOnUse" x1="101.1086" y1="56.5448" x2="213.3029" y2="56.5448">
		<stop  offset="0" style="stop-color:#AFAFAF"/>
		<stop  offset="1" style="stop-color:#6A6A6A"/>
	</linearGradient>
	<path style="fill:url(#SVGID_00000101803316515214144960000014941256918378367917_);" d="M210.28,51.66
		c-0.17-0.52-0.66-0.87-1.21-0.87h-4.81h-94.11h-4.81c-0.55,0-1.03,0.35-1.21,0.87l-2.96,8.98c-0.27,0.82,0.34,1.67,1.21,1.67h7.77
		h94.11h7.77c0.86,0,1.48-0.85,1.21-1.67L210.28,51.66z"/>
</g>
<g>
	
		<linearGradient id="SVGID_00000031922211855960799140000001213953178197108642_" gradientUnits="userSpaceOnUse" x1="216.053" y1="56.5448" x2="236.362" y2="56.5448">
		<stop  offset="0" style="stop-color:#AFAFAF"/>
		<stop  offset="1" style="stop-color:#6A6A6A"/>
	</linearGradient>
	<path style="fill:url(#SVGID_00000031922211855960799140000001213953178197108642_);" d="M233.34,51.66
		c-0.17-0.52-0.66-0.87-1.21-0.87h-4.81h-2.23h-4.81c-0.55,0-1.03,0.35-1.21,0.87l-2.96,8.98c-0.27,0.82,0.34,1.67,1.21,1.67h7.77
		h2.23h7.77c0.86,0,1.48-0.85,1.21-1.67L233.34,51.66z"/>
</g>
<g>
	
		<linearGradient id="SVGID_00000063619832602151378420000012418511225789516707_" gradientUnits="userSpaceOnUse" x1="238.9418" y1="56.5448" x2="259.2509" y2="56.5448">
		<stop  offset="0" style="stop-color:#AFAFAF"/>
		<stop  offset="1" style="stop-color:#6A6A6A"/>
	</linearGradient>
	<path style="fill:url(#SVGID_00000063619832602151378420000012418511225789516707_);" d="M256.22,51.66
		c-0.17-0.52-0.66-0.87-1.21-0.87h-4.81h-2.23h-4.81c-0.55,0-1.03,0.35-1.21,0.87l-2.96,8.98c-0.27,0.82,0.34,1.67,1.21,1.67h7.77
		h2.23h7.77c0.86,0,1.48-0.85,1.21-1.67L256.22,51.66z"/>
</g>
<g>
	
		<linearGradient id="SVGID_00000098918390964894021420000011515651437535388601_" gradientUnits="userSpaceOnUse" x1="263.0113" y1="56.5448" x2="283.3204" y2="56.5448">
		<stop  offset="0" style="stop-color:#AFAFAF"/>
		<stop  offset="1" style="stop-color:#6A6A6A"/>
	</linearGradient>
	<path style="fill:url(#SVGID_00000098918390964894021420000011515651437535388601_);" d="M280.29,51.66
		c-0.17-0.52-0.66-0.87-1.21-0.87h-4.81h-2.23h-4.81c-0.55,0-1.03,0.35-1.21,0.87l-2.96,8.98c-0.27,0.82,0.34,1.67,1.21,1.67h7.77
		h2.23h7.77c0.86,0,1.48-0.85,1.21-1.67L280.29,51.66z"/>
</g>
<g>
	
		<linearGradient id="SVGID_00000153701497693724281860000004600150676735894453_" gradientUnits="userSpaceOnUse" x1="287.0807" y1="56.5448" x2="307.3898" y2="56.5448">
		<stop  offset="0" style="stop-color:#AFAFAF"/>
		<stop  offset="1" style="stop-color:#6A6A6A"/>
	</linearGradient>
	<path style="fill:url(#SVGID_00000153701497693724281860000004600150676735894453_);" d="M304.36,51.66
		c-0.17-0.52-0.66-0.87-1.21-0.87h-4.81h-2.23h-4.81c-0.55,0-1.03,0.35-1.21,0.87l-2.96,8.98c-0.27,0.82,0.34,1.67,1.21,1.67h7.77
		h2.23h7.77c0.86,0,1.48-0.85,1.21-1.67L304.36,51.66z"/>
</g>
<g>
	
		<linearGradient id="SVGID_00000106132831794988760440000004036623503243988358_" gradientUnits="userSpaceOnUse" x1="321.8423" y1="56.5448" x2="342.1514" y2="56.5448">
		<stop  offset="0" style="stop-color:#AFAFAF"/>
		<stop  offset="1" style="stop-color:#6A6A6A"/>
	</linearGradient>
	<path style="fill:url(#SVGID_00000106132831794988760440000004036623503243988358_);" d="M339.13,51.66
		c-0.17-0.52-0.66-0.87-1.21-0.87h-4.81h-2.23h-4.81c-0.55,0-1.03,0.35-1.21,0.87l-2.96,8.98c-0.27,0.82,0.34,1.67,1.21,1.67h7.77
		h2.23h7.77c0.86,0,1.48-0.85,1.21-1.67L339.13,51.66z"/>
</g>
<g>
	
		<linearGradient id="SVGID_00000053534714100058583600000004078506078562872966_" gradientUnits="userSpaceOnUse" x1="344.3186" y1="56.5448" x2="364.6277" y2="56.5448">
		<stop  offset="0" style="stop-color:#AFAFAF"/>
		<stop  offset="1" style="stop-color:#6A6A6A"/>
	</linearGradient>
	<path style="fill:url(#SVGID_00000053534714100058583600000004078506078562872966_);" d="M361.6,51.66
		c-0.17-0.52-0.66-0.87-1.21-0.87h-4.81h-2.23h-4.81c-0.55,0-1.03,0.35-1.21,0.87l-2.96,8.98c-0.27,0.82,0.34,1.67,1.21,1.67h7.77
		h2.23h7.77c0.86,0,1.48-0.85,1.21-1.67L361.6,51.66z"/>
</g>
<g>
	
		<linearGradient id="SVGID_00000149373879068449425110000015595528475756203416_" gradientUnits="userSpaceOnUse" x1="367.0226" y1="56.5448" x2="387.3317" y2="56.5448">
		<stop  offset="0" style="stop-color:#AFAFAF"/>
		<stop  offset="1" style="stop-color:#6A6A6A"/>
	</linearGradient>
	<path style="fill:url(#SVGID_00000149373879068449425110000015595528475756203416_);" d="M384.31,51.66
		c-0.17-0.52-0.66-0.87-1.21-0.87h-4.81h-2.23h-4.81c-0.55,0-1.03,0.35-1.21,0.87l-2.96,8.98c-0.27,0.82,0.34,1.67,1.21,1.67h7.77
		h2.23h7.77c0.86,0,1.48-0.85,1.21-1.67L384.31,51.66z"/>
</g>
</svg>
