<?xml version="1.0" encoding="utf-8"?>
<!-- Generator: Adobe Illustrator 26.1.0, SVG Export Plug-In . SVG Version: 6.00 Build 0)  -->
<svg version="1.1" id="Layer_1" xmlns="http://www.w3.org/2000/svg" xmlns:xlink="http://www.w3.org/1999/xlink" x="0px" y="0px"
	 viewBox="0 0 131 100.33" style="enable-background:new 0 0 131 100.33;" xml:space="preserve">
<style type="text/css">
	.st0{fill:#333333;}
	.st1{fill:#1A1A1A;}
	.st2{fill:#676767;}
</style>
<path class="st0" d="M43.34,30.7c0,0,1.13-0.26,1.83-0.1c0.69,0.15,4.39-1.65,4.39-1.65S46.44,29.19,43.34,30.7z"/>
<path class="st1" d="M102.37,60.69c0-10.03-4.55-25.14-21.94-32.47c-0.01-0.01-0.03-0.01-0.04-0.02c-0.07-0.03-0.13-0.06-0.2-0.09
	c-0.09-0.04-0.17-0.07-0.26-0.1c-3.49-1.47-7.45-2.34-11.82-2.47C60.34,25,49.69,27.62,34.57,35.69c0,0-14.91,4.74,2.53,17.39
	c17.44,12.64,35.77,14.95,50.46,14.95c9.62,0,15.16-3.04,14.79-7.35L102.37,60.69z"/>
<path class="st2" d="M34.46,34.55c0,0-8.52,5.07-0.96,11.32c6.75-4.68,24.21-16.61,24.21-16.61S46.25,29.39,34.46,34.55z"/>
<path class="st2" d="M59.99,26.02c0,0-12.36,2.27-16.65,4.68c0,0,8.67-3.13,15.75-2.75c0,0,3.76-1.03,4.16-2.35
	C60.2,25.99,59.99,26.02,59.99,26.02z"/>
<path class="st0" d="M44.83,48.34c2.12-3.63,11.58-2.88,17.54-0.21c5.96,2.67,10.88,6.12,9.21,10.17
	c-1.67,4.04-12.46,2.58-17.58,0.88C48.88,57.46,41.63,53.84,44.83,48.34z"/>
<g>
	<path class="st0" d="M64.9,27.39c-2.81-0.54-4.26,1.13-4.44,1.36c-0.09,0.16-0.15,0.33-0.2,0.49l8.49,1.66
		C68.64,29.92,67.6,27.91,64.9,27.39z"/>
	<path class="st2" d="M64.9,27.39c2.71,0.52,3.74,2.53,3.85,3.51l0.75,0.15c-0.06-1.34-1.31-3.69-4.3-4.12
		c-2.63-0.38-4.15,0.72-4.74,1.83C60.64,28.53,62.08,26.86,64.9,27.39z"/>
</g>
</svg>
