<?xml version="1.0" encoding="utf-8"?>
<!-- Generator: Adobe Illustrator 26.1.0, SVG Export Plug-In . SVG Version: 6.00 Build 0)  -->
<svg version="1.1" id="Layer_1" xmlns="http://www.w3.org/2000/svg" xmlns:xlink="http://www.w3.org/1999/xlink" x="0px" y="0px"
	 viewBox="0 0 600 600" style="enable-background:new 0 0 600 600;" xml:space="preserve">
<g>
	<path d="M142.86,234.12c5.42-29.67,21.12-52.53,45.84-69.48c34.59-23.72,73.28-34.44,114.76-34.14
		c28.73,0.21,56.24,7.69,82.28,19.98c21.87,10.32,40.85,24.3,54.41,44.71c10.04,15.11,15.55,31.77,17.08,49.92
		c2.48,29.32-4.47,56.73-16.34,83.12c-17.75,39.48-42.91,73.73-74.61,103.1c-13.8,12.79-28.79,24.13-46.3,31.61
		c-13.82,5.9-27.61,6.52-41.32-0.4c0.78-1.02,1.64-2,2.33-3.08c5.39-8.53,8.34-18.22,12.8-27.2c1.53-0.96,1.91-2.68,2.64-4.13
		c13.53-26.96,18.99-55.33,15.31-85.41c-3.97-32.46-17.19-60.5-39.87-84.01c-10.55-10.94-20.16-22.52-27.59-35.86
		c-1.58-2.83-1.76-3.95,1.52-5.41c14.85-6.63,30.25-11.34,46.41-12.97c12-1.21,24.03-0.66,36.14,0.02
		c10.77,0.6,20.93,2.77,31.13,5.52c15.88,4.28,30.18,12.05,44.19,20.42c0.25,0.92,1,1.1,1.79,1.25c1.17,1.26,2.32,2.55,4.17,2.8
		c0.14,0.22,0.29,0.45,0.43,0.67c0.14-0.15,0.29-0.3,0.43-0.45c-0.24-0.12-0.49-0.24-0.73-0.36c-0.77-1.64-1.85-2.91-3.79-3.16
		c-0.31-1.04-0.99-1.47-2.07-1.29c-3.48-5.5-9.25-8.35-14.38-11.72c-29.84-19.62-62.44-31.05-98.31-33.41
		c-31.08-2.05-60.74,3.21-89.48,14.77c-2.59,1.04-2.98,2.07-1.83,4.74c7.8,18.11,18.08,34.59,31.25,49.29
		c1.48,1.64,3.67,2.87,3.92,5.44c-2.39,0.86-3.63-1.26-5.2-2.21c-9.36-5.65-19.07-10.62-29.36-14.28
		C181.9,235.86,162.59,233.4,142.86,234.12z"/>
	<path d="M409.64,234.46c-1.85-0.25-3-1.53-4.17-2.8c0.16-0.18,0.33-0.35,0.51-0.51c1.93,0.25,3.02,1.52,3.79,3.16L409.64,234.46z"
		/>
	<path d="M403.92,229.87c1.07-0.18,1.76,0.25,2.07,1.29c-0.18,0.15-0.36,0.32-0.51,0.51c-0.79-0.14-1.54-0.33-1.79-1.25
		C403.79,230.25,403.86,230.06,403.92,229.87z"/>
	<path d="M409.77,234.32c0.24,0.12,0.49,0.24,0.73,0.36c-0.14,0.15-0.29,0.3-0.43,0.45c-0.14-0.22-0.29-0.45-0.43-0.67
		C409.64,234.46,409.77,234.32,409.77,234.32z"/>
	<path d="M234.89,259.16c2.19-0.64,2.45,1.01,2.91,2.44C236.51,261.17,235.12,260.85,234.89,259.16z"/>
	<path d="M270.87,459.29c19.78-40.1,31.21-91.25-5.44-153.44c-30.8-52.25-92.52-62.76-123.96-64.6c-0.41,2.85-0.65,5.72-0.78,8.61
		c-1.3,30.69,7.41,59.11,20.74,86.15c20.28,41.13,47.79,76.83,83.46,105.89C252.99,448.5,261.42,454.76,270.87,459.29z"/>
</g>
</svg>
