<svg id="Layer_1" data-name="Layer 1" xmlns="http://www.w3.org/2000/svg" viewBox="0 0 300 300"><defs><style>.cls-1{fill:none;}</style></defs><path class="cls-1" d="M224.23,280.37a150,150,0,0,1-21.65,10.15l-12.71-22L177,246.26,164,223.66,150.87,201l-.87-1.5-.87,1.5L136,223.7l-13.06,22.63L110.13,268.5l-12.71,22A150.11,150.11,0,0,1,0,150V300H300V150A149.94,149.94,0,0,1,224.23,280.37Z"/><path class="cls-1" d="M150,25A124.43,124.43,0,0,0,86.72,42.19L99.19,63.78A100,100,0,1,1,199.2,237l12.53,21.71A125,125,0,0,0,150,25Z"/><path class="cls-1" d="M150,0A150,150,0,0,1,300,150V0Z"/><path class="cls-1" d="M51,73.77A125,125,0,0,0,88.27,258.71l12.47-21.6,12.51-21.66,15.44-26.76,10.06-17.42a13,13,0,0,1,22.5,0l10,17.37,15.42,26.69a75,75,0,1,0-75-129.89L150,151.83H150a24.55,24.55,0,0,0-20.8,11.49L93.16,101,86.37,89.19,80.11,78.35,67.34,56.24l-12.71-22,.67-.53A149.36,149.36,0,0,1,150,0H0V150A149.43,149.43,0,0,1,37.61,50.67Z"/><path d="M150,0A149.36,149.36,0,0,0,55.3,33.69l-.67.53,12.71,22L80.11,78.35l6.26,10.84L93.16,101l36,62.37A24.55,24.55,0,0,1,150,151.83H150L111.7,85.44a75,75,0,1,1,75,129.89l-15.42-26.69-10-17.37a13,13,0,0,0-22.5,0l-10.06,17.42-15.44,26.76-12.51,21.66-12.47,21.6A125,125,0,0,1,51,73.77L37.61,50.67A150.07,150.07,0,0,0,97.42,290.52l12.71-22,12.81-22.17L136,223.7,149.13,201l.87-1.5.87,1.5L164,223.66,177,246.26l12.84,22.25,12.71,22A150,150,0,0,0,150,0Zm61.73,258.71L199.2,237a100,100,0,1,0-100-173.22L86.72,42.19a125,125,0,1,1,125,216.52Z"/></svg>