<svg id="Layer_4" data-name="Layer 4" xmlns="http://www.w3.org/2000/svg" viewBox="0 0 394.18 389.92"><defs><style>.cls-1{stroke:#231f20;stroke-miterlimit:10;}</style></defs><path class="cls-1" d="M197.09,40.86a149.36,149.36,0,0,0-94.7,33.69l-.67.53,12.71,22,12.77,22.11,6.26,10.84,6.79,11.76,36,62.37a24.55,24.55,0,0,1,20.8-11.49h.06L158.79,126.3a75,75,0,1,1,75,129.89L218.36,229.5l-10-17.37a13,13,0,0,0-22.5,0l-10.06,17.43-15.44,26.75L147.83,278l-12.47,21.59A125,125,0,0,1,98,114.63L84.7,91.53a150.07,150.07,0,0,0,59.81,239.85l12.71-22L170,287.19l13.06-22.63,13.13-22.75.87-1.5.87,1.5,13.1,22.71,13.06,22.6L237,309.37l12.71,22A150,150,0,0,0,197.09,40.86Zm61.73,258.71-12.53-21.71a100,100,0,1,0-100-173.22L133.81,83.05a125,125,0,1,1,125,216.52Z"/></svg>