<?xml version="1.0" encoding="utf-8"?>
<!-- Generator: Adobe Illustrator 26.1.0, SVG Export Plug-In . SVG Version: 6.00 Build 0)  -->
<svg version="1.1" id="Layer_1" xmlns="http://www.w3.org/2000/svg" xmlns:xlink="http://www.w3.org/1999/xlink" x="0px" y="0px"
	 viewBox="0 0 600 600" style="enable-background:new 0 0 600 600;" xml:space="preserve">
<style type="text/css">
	.st0{fill:#FFFFFF;}
</style>
<g>
	<path class="st0" d="M99.86,500.24c0-133.43,0-266.86,0-400.29c133.43,0,266.86,0,400.29,0c0,133.43,0,266.86,0,400.29
		C366.71,500.24,233.29,500.24,99.86,500.24z M300.02,483.41c59.95,0,119.9,0,179.85,0c3.45,0,3.45,0,3.45-3.56
		c0-119.9,0-239.8,0-359.7c0-3.39,0-3.39-3.37-3.39c-119.98,0-239.96,0-359.95,0c-3.32,0-3.32,0-3.32,3.43c0,119.9,0,239.8,0,359.7
		c0,3.51,0,3.51,3.49,3.51C180.12,483.41,240.07,483.41,300.02,483.41z"/>
	<path d="M300.02,483.41c-59.95,0-119.9,0-179.85,0c-3.49,0-3.49,0-3.49-3.51c0-119.9,0-239.8,0-359.7c0-3.43,0-3.43,3.32-3.43
		c119.98,0,239.96,0,359.95,0c3.37,0,3.37,0,3.37,3.39c0,119.9,0,239.8,0,359.7c0,3.56,0,3.56-3.45,3.56
		C419.92,483.41,359.97,483.41,300.02,483.41z M234.47,201.29c-5.34,0-10.67,0.05-16.01-0.03c-1.89-0.03-2.5,0.62-2.71,2.55
		c-0.53,4.78-1.04,9.62-2.23,14.26c-1.46,5.69-3.63,11.21-5.46,16.81c-2.91,8.91-5.78,17.83-8.7,26.74
		c-2.42,7.42-4.91,14.81-7.31,22.24c-2.91,9-5.74,18.02-8.64,27.02c-2.42,7.5-4.93,14.98-7.34,22.49
		c-2.96,9.24-5.85,18.51-8.77,27.76c-1.6,5.07-3.26,10.12-4.81,15.2c-0.54,1.76-0.58,3.47,2,3.48c8.09,0.02,16.17,0.08,24.26-0.09
		c1.01-0.02,2.57-1.19,2.89-2.15c2.45-7.4,4.61-14.9,6.95-22.34c2.48-7.92,5.12-15.79,7.52-23.73c0.52-1.72,1.4-1.92,2.88-1.92
		c17.26,0.03,34.51,0.06,51.77-0.03c1.92-0.01,2.67,0.81,3.16,2.39c1.46,4.76,2.92,9.52,4.46,14.25
		c3.35,10.25,6.81,20.47,10.11,30.74c0.68,2.12,1.82,2.94,3.97,2.91c5.08-0.07,10.17-0.02,15.25-0.02c3.42,0,6.84,0.03,10.25-0.02
		c1.65-0.02,2.89-0.63,2.25-2.6c-3.51-10.8-7.06-21.6-10.61-32.39c-3.01-9.14-6.07-18.27-9.05-27.42
		c-3.67-11.28-7.28-22.59-10.93-33.88c-3.93-12.16-7.84-24.32-11.82-36.47c-4.7-14.36-9.51-28.67-14.12-43.06
		c-0.71-2.23-1.8-2.79-3.94-2.74C244.65,201.38,239.56,201.3,234.47,201.29z M356.61,259.32c-0.58-3.51-1.07-6.59-1.6-9.66
		c-0.33-1.95-1.52-2.82-3.5-2.81c-6.84,0.03-13.67,0.03-20.51,0c-2.18-0.01-2.88,1.01-2.8,3.12c0.5,12.16,1.22,24.31,1.29,36.47
		c0.18,29.93,0.06,59.87,0.06,89.8c0,3.3,0.29,3.6,3.55,3.6c7.17,0.01,14.34,0.01,21.51,0c3.6,0,3.82-0.24,3.82-3.84
		c0-30.18,0.02-60.37-0.04-90.55c0-1.84,0.48-3.16,1.85-4.33c5.55-4.77,11.56-8.62,18.98-9.69c8.81-1.27,17.47,1.96,21.19,11.02
		c2.38,5.78,2.84,11.77,2.84,17.87c0.02,25.27,0,50.53,0.01,75.8c0,3.11,0.58,3.72,3.59,3.73c7.42,0.02,14.84-0.03,22.26,0.03
		c2.18,0.02,3.16-0.75,3.15-3.07c-0.11-28.6-0.03-57.2-0.28-85.8c-0.08-9.48-2.25-18.66-6.56-27.18
		c-6.17-12.19-16.17-18.88-29.83-19.64c-14.29-0.8-26.45,4.5-37.13,13.67C357.94,258.29,357.39,258.7,356.61,259.32z"/>
	<path d="M256.5,302.78c-14.75,0-28.81,0-43.26,0c7.14-24.46,14.21-48.72,21.32-73.08C241.82,253.9,249.09,278.11,256.5,302.78z"/>
</g>
</svg>
