<?xml version="1.0" encoding="utf-8"?>
<!-- Generator: Adobe Illustrator 26.1.0, SVG Export Plug-In . SVG Version: 6.00 Build 0)  -->
<svg version="1.1" id="Layer_1" xmlns="http://www.w3.org/2000/svg" xmlns:xlink="http://www.w3.org/1999/xlink" x="0px" y="0px"
	 viewBox="0 0 600 600" style="enable-background:new 0 0 600 600;" xml:space="preserve">
<g>
	<path d="M222.16,373.21c-2.08-16.64-4.07-32.62-6.07-48.6c-2.5-19.94-5.02-39.88-7.53-59.81c-1.04-8.24-3.52-16.63-2.69-24.67
		c0.84-8.18,3.84-16.64,7.83-23.92c18.57-33.87,47.72-50.18,86.2-48.21c38.53,1.98,72.89,32.16,80.07,70
		c1.3,6.88-0.9,14.47-1.78,21.7c-2.43,19.95-5.04,39.87-7.52,59.81c-2.07,16.65-3.97,33.32-6.24,49.94
		c-0.19,1.4-2.55,3.44-4.06,3.58c-12.76,1.17-12.87,0.94-11.2-11.61c5.03-37.73,9.4-75.56,15.4-113.14
		c2.51-15.69-3.78-27.27-12.42-38.26c-14.59-18.57-34.29-28.16-57.86-28.85c-31.9-0.93-62.3,20.12-72.38,50.38
		c-1.77,5.31-0.92,11.8-0.16,17.6c3.94,30.34,8.28,60.62,12.41,90.93c1.28,9.37,2.27,18.78,3.51,28.16
		c0.48,3.59-0.54,5.32-4.47,5.03C229.75,373.01,226.26,373.21,222.16,373.21z"/>
	<path d="M215.18,370.93c-21.93-0.35-47.97-26.42-52.93-52.12c-6.06-31.39,10.13-64.22,37.99-75.84
		C205.23,285.74,210.2,328.27,215.18,370.93z"/>
	<path d="M370.89,371.1c5-42.77,9.94-85.05,14.89-127.43c19.8,6.25,40.34,32.18,39.4,61.7C424.12,338.7,399.08,368.73,370.89,371.1z
		"/>
	<path d="M289.18,249.73c1.88-0.09,3.2-0.09,4.51-0.23c3.11-0.35,4.43,0.71,4.43,4.11c-0.06,31.44,0.05,62.87,0.05,94.31
		c0,4.69-1.28,5.18-8.99,3.66C289.18,317.84,289.18,284.03,289.18,249.73z"/>
	<path d="M257.36,342.98c-1.68-27.88-3.37-55.88-5.07-84.11c1.02-0.2,1.79-0.44,2.59-0.51c6.71-0.57,6.54-0.55,6.97,6.37
		c1.46,23.58,2.96,47.16,4.64,70.72C267.09,343.91,266.76,344.42,257.36,342.98z"/>
	<path d="M325.86,257.94c3.33,0.23,5.8,0.41,8.97,0.63c-0.38,7.23-0.71,14.29-1.15,21.35c-1.16,18.92-2.34,37.83-3.58,56.74
		c-0.51,7.87-0.58,7.87-9.75,6.05C322.18,314.72,324,286.61,325.86,257.94z"/>
	<path d="M306.11,338.24c0-14.82-0.11-29.09,0.04-43.36c0.09-8.15,0.67-16.29,0.9-24.43c0.23-8.09,1.36-8.92,9.46-6.33
		c-0.8,23.68-1.41,47.44-2.53,71.17C313.68,341.52,308.58,337.71,306.11,338.24z"/>
	<path d="M282.57,338.01c-1.48,0.28-2.12,0.46-2.78,0.52c-6.62,0.63-6.71,0.5-6.91-5.99c-0.63-20.8-1.34-41.6-1.94-62.41
		c-0.22-7.69,0.37-8.08,8.78-6.43C280.67,288.28,281.61,312.98,282.57,338.01z"/>
	<path d="M337.1,324.82c1.63-16.72,3.15-32.4,4.72-48.46c3.17,0.15,5.76,0.27,9.09,0.43c-1.47,16.23-2.91,32.04-4.41,48.64
		C343.35,325.23,340.52,325.05,337.1,324.82z"/>
	<path d="M249.66,324.75c-2.87,0.28-5.45,0.53-8.77,0.86c-0.53-5.09-1.06-9.79-1.49-14.5c-0.94-10.25-1.77-20.5-2.78-30.74
		c-0.29-2.92,0.95-3.99,3.63-3.86c2.24,0.11,5.15-1.36,5.52,2.83c1.26,14.22,2.69,28.42,4.03,42.63
		C249.87,322.61,249.74,323.27,249.66,324.75z"/>
</g>
</svg>
