<?xml version="1.0" encoding="utf-8"?>
<!-- Generator: Adobe Illustrator 26.1.0, SVG Export Plug-In . SVG Version: 6.00 Build 0)  -->
<svg version="1.1" id="Layer_1" xmlns="http://www.w3.org/2000/svg" xmlns:xlink="http://www.w3.org/1999/xlink" x="0px" y="0px"
	 viewBox="0 0 2560 1322.67" style="enable-background:new 0 0 2560 1322.67;" xml:space="preserve">
<style type="text/css">
	.st0{fill:#1B1B1B;}
	.st1{fill:#292929;}
</style>
<path class="st0" d="M237.28,128.02H-33.4c-11.23,0-20.33-9.1-20.33-20.33V24.33C-53.73,13.1-44.63,4-33.4,4h270.68
	c11.23,0,20.33,9.1,20.33,20.33v83.35C257.62,118.91,248.51,128.02,237.28,128.02z"/>
<path class="st0" d="M557.25,128.02H286.57c-11.23,0-20.33-9.1-20.33-20.33V24.33c0-11.23,9.1-20.33,20.33-20.33h270.68
	c11.23,0,20.33,9.1,20.33,20.33v83.35C577.59,118.91,568.48,128.02,557.25,128.02z"/>
<path class="st0" d="M877.22,128.02H606.54c-11.23,0-20.33-9.1-20.33-20.33V24.33C586.2,13.1,595.31,4,606.54,4h270.68
	c11.23,0,20.33,9.1,20.33,20.33v83.35C897.55,118.91,888.45,128.02,877.22,128.02z"/>
<path class="st0" d="M1197.01,128.02H926.33c-11.23,0-20.33-9.1-20.33-20.33V24.33C905.99,13.1,915.1,4,926.33,4h270.68
	c11.23,0,20.33,9.1,20.33,20.33v83.35C1217.34,118.91,1208.24,128.02,1197.01,128.02z"/>
<path class="st0" d="M1516.98,128.02h-270.68c-11.23,0-20.33-9.1-20.33-20.33V24.33c0-11.23,9.1-20.33,20.33-20.33h270.68
	c11.23,0,20.33,9.1,20.33,20.33v83.35C1537.31,118.91,1528.21,128.02,1516.98,128.02z"/>
<path class="st0" d="M1836.94,128.02h-270.68c-11.23,0-20.33-9.1-20.33-20.33V24.33c0-11.23,9.1-20.33,20.33-20.33h270.68
	c11.23,0,20.33,9.1,20.33,20.33v83.35C1857.28,118.91,1848.17,128.02,1836.94,128.02z"/>
<path class="st0" d="M2156.91,128.02h-270.68c-11.23,0-20.33-9.1-20.33-20.33V24.33C1865.9,13.1,1875,4,1886.23,4h270.68
	c11.23,0,20.33,9.1,20.33,20.33v83.35C2177.24,118.91,2168.14,128.02,2156.91,128.02z"/>
<path class="st0" d="M2476.7,128.02h-270.68c-11.23,0-20.33-9.1-20.33-20.33V24.33c0-11.23,9.1-20.33,20.33-20.33h270.68
	c11.23,0,20.33,9.1,20.33,20.33v83.35C2497.03,118.91,2487.93,128.02,2476.7,128.02z"/>
<path class="st0" d="M2796.67,128.02h-270.68c-11.23,0-20.33-9.1-20.33-20.33V24.33c0-11.23,9.1-20.33,20.33-20.33h270.68
	c11.23,0,20.33,9.1,20.33,20.33v83.35C2817,118.91,2807.9,128.02,2796.67,128.02z"/>
<path class="st0" d="M89.65,260.21h-270.68c-11.23,0-20.33-9.1-20.33-20.33v-83.35c0-11.23,9.1-20.33,20.33-20.33H89.65
	c11.23,0,20.33,9.1,20.33,20.33v83.35C109.98,251.11,100.88,260.21,89.65,260.21z"/>
<path class="st0" d="M409.62,260.21H138.94c-11.23,0-20.33-9.1-20.33-20.33v-83.35c0-11.23,9.1-20.33,20.33-20.33h270.68
	c11.23,0,20.33,9.1,20.33,20.33v83.35C429.95,251.11,420.85,260.21,409.62,260.21z"/>
<path class="st0" d="M729.59,260.21H458.9c-11.23,0-20.33-9.1-20.33-20.33v-83.35c0-11.23,9.1-20.33,20.33-20.33h270.68
	c11.23,0,20.33,9.1,20.33,20.33v83.35C749.92,251.11,740.81,260.21,729.59,260.21z"/>
<path class="st0" d="M1049.37,260.21H778.69c-11.23,0-20.33-9.1-20.33-20.33v-83.35c0-11.23,9.1-20.33,20.33-20.33h270.68
	c11.23,0,20.33,9.1,20.33,20.33v83.35C1069.71,251.11,1060.6,260.21,1049.37,260.21z"/>
<path class="st1" d="M1369.34,260.21h-270.68c-11.23,0-20.33-9.1-20.33-20.33v-83.35c0-11.23,9.1-20.33,20.33-20.33h270.68
	c11.23,0,20.33,9.1,20.33,20.33v83.35C1389.67,251.11,1380.57,260.21,1369.34,260.21z"/>
<path class="st0" d="M1689.31,260.21h-270.68c-11.23,0-20.33-9.1-20.33-20.33v-83.35c0-11.23,9.1-20.33,20.33-20.33h270.68
	c11.23,0,20.33,9.1,20.33,20.33v83.35C1709.64,251.11,1700.54,260.21,1689.31,260.21z"/>
<path class="st0" d="M2009.28,260.21h-270.68c-11.23,0-20.33-9.1-20.33-20.33v-83.35c0-11.23,9.1-20.33,20.33-20.33h270.68
	c11.23,0,20.33,9.1,20.33,20.33v83.35C2029.61,251.11,2020.51,260.21,2009.28,260.21z"/>
<path class="st0" d="M2329.06,260.21h-270.68c-11.23,0-20.33-9.1-20.33-20.33v-83.35c0-11.23,9.1-20.33,20.33-20.33h270.68
	c11.23,0,20.33,9.1,20.33,20.33v83.35C2349.4,251.11,2340.29,260.21,2329.06,260.21z"/>
<path class="st0" d="M2649.03,260.21h-270.68c-11.23,0-20.33-9.1-20.33-20.33v-83.35c0-11.23,9.1-20.33,20.33-20.33h270.68
	c11.23,0,20.33,9.1,20.33,20.33v83.35C2669.37,251.11,2660.26,260.21,2649.03,260.21z"/>
<path class="st1" d="M240.11,392.41H-30.57c-11.23,0-20.33-9.1-20.33-20.33v-83.35c0-11.23,9.1-20.33,20.33-20.33h270.68
	c11.23,0,20.33,9.1,20.33,20.33v83.35C260.44,383.31,251.34,392.41,240.11,392.41z"/>
<path class="st0" d="M560.08,392.41H289.4c-11.23,0-20.33-9.1-20.33-20.33v-83.35c0-11.23,9.1-20.33,20.33-20.33h270.68
	c11.23,0,20.33,9.1,20.33,20.33v83.35C580.41,383.31,571.31,392.41,560.08,392.41z"/>
<path class="st0" d="M880.05,392.41H609.36c-11.23,0-20.33-9.1-20.33-20.33v-83.35c0-11.23,9.1-20.33,20.33-20.33h270.68
	c11.23,0,20.33,9.1,20.33,20.33v83.35C900.38,383.31,891.28,392.41,880.05,392.41z"/>
<path class="st0" d="M1199.83,392.41H929.15c-11.23,0-20.33-9.1-20.33-20.33v-83.35c0-11.23,9.1-20.33,20.33-20.33h270.68
	c11.23,0,20.33,9.1,20.33,20.33v83.35C1220.17,383.31,1211.06,392.41,1199.83,392.41z"/>
<path class="st0" d="M1519.8,392.41h-270.68c-11.23,0-20.33-9.1-20.33-20.33v-83.35c0-11.23,9.1-20.33,20.33-20.33h270.68
	c11.23,0,20.33,9.1,20.33,20.33v83.35C1540.13,383.31,1531.03,392.41,1519.8,392.41z"/>
<path class="st0" d="M1839.77,392.41h-270.68c-11.23,0-20.33-9.1-20.33-20.33v-83.35c0-11.23,9.1-20.33,20.33-20.33h270.68
	c11.23,0,20.33,9.1,20.33,20.33v83.35C1860.1,383.31,1851,392.41,1839.77,392.41z"/>
<path class="st0" d="M2159.74,392.41h-270.68c-11.23,0-20.33-9.1-20.33-20.33v-83.35c0-11.23,9.1-20.33,20.33-20.33h270.68
	c11.23,0,20.33,9.1,20.33,20.33v83.35C2180.07,383.31,2170.97,392.41,2159.74,392.41z"/>
<path class="st0" d="M2479.52,392.41h-270.68c-11.23,0-20.33-9.1-20.33-20.33v-83.35c0-11.23,9.1-20.33,20.33-20.33h270.68
	c11.23,0,20.33,9.1,20.33,20.33v83.35C2499.86,383.31,2490.75,392.41,2479.52,392.41z"/>
<path class="st1" d="M2799.49,392.41h-270.68c-11.23,0-20.33-9.1-20.33-20.33v-83.35c0-11.23,9.1-20.33,20.33-20.33h270.68
	c11.23,0,20.33,9.1,20.33,20.33v83.35C2819.83,383.31,2810.72,392.41,2799.49,392.41z"/>
<path class="st0" d="M123.93,524.63h-270.68c-11.23,0-20.33-9.1-20.33-20.33v-83.35c0-11.23,9.1-20.33,20.33-20.33h270.68
	c11.23,0,20.33,9.1,20.33,20.33v83.35C144.26,515.53,135.16,524.63,123.93,524.63z"/>
<path class="st0" d="M443.9,524.63H173.21c-11.23,0-20.33-9.1-20.33-20.33v-83.35c0-11.23,9.1-20.33,20.33-20.33H443.9
	c11.23,0,20.33,9.1,20.33,20.33v83.35C464.23,515.53,455.13,524.63,443.9,524.63z"/>
<path class="st1" d="M763.86,524.63H493.18c-11.23,0-20.33-9.1-20.33-20.33v-83.35c0-11.23,9.1-20.33,20.33-20.33h270.68
	c11.23,0,20.33,9.1,20.33,20.33v83.35C784.2,515.53,775.09,524.63,763.86,524.63z"/>
<path class="st0" d="M1083.65,524.63H812.97c-11.23,0-20.33-9.1-20.33-20.33v-83.35c0-11.23,9.1-20.33,20.33-20.33h270.68
	c11.23,0,20.33,9.1,20.33,20.33v83.35C1103.98,515.53,1094.88,524.63,1083.65,524.63z"/>
<path class="st0" d="M1403.62,524.63h-270.68c-11.23,0-20.33-9.1-20.33-20.33v-83.35c0-11.23,9.1-20.33,20.33-20.33h270.68
	c11.23,0,20.33,9.1,20.33,20.33v83.35C1423.95,515.53,1414.85,524.63,1403.62,524.63z"/>
<path class="st0" d="M1723.59,524.63H1452.9c-11.23,0-20.33-9.1-20.33-20.33v-83.35c0-11.23,9.1-20.33,20.33-20.33h270.68
	c11.23,0,20.33,9.1,20.33,20.33v83.35C1743.92,515.53,1734.82,524.63,1723.59,524.63z"/>
<path class="st0" d="M2043.55,524.63h-270.68c-11.23,0-20.33-9.1-20.33-20.33v-83.35c0-11.23,9.1-20.33,20.33-20.33h270.68
	c11.23,0,20.33,9.1,20.33,20.33v83.35C2063.89,515.53,2054.78,524.63,2043.55,524.63z"/>
<path class="st0" d="M2363.34,524.63h-270.68c-11.23,0-20.33-9.1-20.33-20.33v-83.35c0-11.23,9.1-20.33,20.33-20.33h270.68
	c11.23,0,20.33,9.1,20.33,20.33v83.35C2383.68,515.53,2374.57,524.63,2363.34,524.63z"/>
<path class="st0" d="M2683.31,524.63h-270.68c-11.23,0-20.33-9.1-20.33-20.33v-83.35c0-11.23,9.1-20.33,20.33-20.33h270.68
	c11.23,0,20.33,9.1,20.33,20.33v83.35C2703.64,515.53,2694.54,524.63,2683.31,524.63z"/>
<path class="st0" d="M254.03,656.83H-16.65c-11.23,0-20.33-9.1-20.33-20.33v-83.35c0-11.23,9.1-20.33,20.33-20.33h270.68
	c11.23,0,20.33,9.1,20.33,20.33v83.35C274.37,647.73,265.26,656.83,254.03,656.83z"/>
<path class="st0" d="M574,656.83H303.32c-11.23,0-20.33-9.1-20.33-20.33v-83.35c0-11.23,9.1-20.33,20.33-20.33H574
	c11.23,0,20.33,9.1,20.33,20.33v83.35C594.33,647.73,585.23,656.83,574,656.83z"/>
<path class="st0" d="M893.79,656.83H623.11c-11.23,0-20.33-9.1-20.33-20.33v-83.35c0-11.23,9.1-20.33,20.33-20.33h270.68
	c11.23,0,20.33,9.1,20.33,20.33v83.35C914.12,647.73,905.02,656.83,893.79,656.83z"/>
<path class="st0" d="M1213.76,656.83H943.07c-11.23,0-20.33-9.1-20.33-20.33v-83.35c0-11.23,9.1-20.33,20.33-20.33h270.68
	c11.23,0,20.33,9.1,20.33,20.33v83.35C1234.09,647.73,1224.99,656.83,1213.76,656.83z"/>
<path class="st1" d="M1533.72,656.83h-270.68c-11.23,0-20.33-9.1-20.33-20.33v-83.35c0-11.23,9.1-20.33,20.33-20.33h270.68
	c11.23,0,20.33,9.1,20.33,20.33v83.35C1554.06,647.73,1544.95,656.83,1533.72,656.83z"/>
<path class="st0" d="M1853.69,656.83h-270.68c-11.23,0-20.33-9.1-20.33-20.33v-83.35c0-11.23,9.1-20.33,20.33-20.33h270.68
	c11.23,0,20.33,9.1,20.33,20.33v83.35C1874.02,647.73,1864.92,656.83,1853.69,656.83z"/>
<path class="st0" d="M2173.48,656.83H1902.8c-11.23,0-20.33-9.1-20.33-20.33v-83.35c0-11.23,9.1-20.33,20.33-20.33h270.68
	c11.23,0,20.33,9.1,20.33,20.33v83.35C2193.81,647.73,2184.71,656.83,2173.48,656.83z"/>
<path class="st0" d="M2493.45,656.83h-270.68c-11.23,0-20.33-9.1-20.33-20.33v-83.35c0-11.23,9.1-20.33,20.33-20.33h270.68
	c11.23,0,20.33,9.1,20.33,20.33v83.35C2513.78,647.73,2504.68,656.83,2493.45,656.83z"/>
<path class="st0" d="M35.15,789h-270.68c-11.23,0-20.33-9.1-20.33-20.33v-83.35c0-11.23,9.1-20.33,20.33-20.33H35.15
	c11.23,0,20.33,9.1,20.33,20.33v83.35C55.48,779.9,46.38,789,35.15,789z"/>
<path class="st0" d="M355.12,789H84.44c-11.23,0-20.33-9.1-20.33-20.33v-83.35c0-11.23,9.1-20.33,20.33-20.33h270.68
	c11.23,0,20.33,9.1,20.33,20.33v83.35C375.45,779.9,366.35,789,355.12,789z"/>
<path class="st0" d="M675.09,789H404.4c-11.23,0-20.33-9.1-20.33-20.33v-83.35c0-11.23,9.1-20.33,20.33-20.33h270.68
	c11.23,0,20.33,9.1,20.33,20.33v83.35C695.42,779.9,686.32,789,675.09,789z"/>
<path class="st0" d="M994.87,789H724.19c-11.23,0-20.33-9.1-20.33-20.33v-83.35c0-11.23,9.1-20.33,20.33-20.33h270.68
	c11.23,0,20.33,9.1,20.33,20.33v83.35C1015.21,779.9,1006.1,789,994.87,789z"/>
<path class="st0" d="M1314.84,789h-270.68c-11.23,0-20.33-9.1-20.33-20.33v-83.35c0-11.23,9.1-20.33,20.33-20.33h270.68
	c11.23,0,20.33,9.1,20.33,20.33v83.35C1335.17,779.9,1326.07,789,1314.84,789z"/>
<path class="st0" d="M1634.81,789h-270.68c-11.23,0-20.33-9.1-20.33-20.33v-83.35c0-11.23,9.1-20.33,20.33-20.33h270.68
	c11.23,0,20.33,9.1,20.33,20.33v83.35C1655.14,779.9,1646.04,789,1634.81,789z"/>
<path class="st0" d="M1954.78,789h-270.68c-11.23,0-20.33-9.1-20.33-20.33v-83.35c0-11.23,9.1-20.33,20.33-20.33h270.68
	c11.23,0,20.33,9.1,20.33,20.33v83.35C1975.11,779.9,1966.01,789,1954.78,789z"/>
<path class="st0" d="M2274.56,789h-270.68c-11.23,0-20.33-9.1-20.33-20.33v-83.35c0-11.23,9.1-20.33,20.33-20.33h270.68
	c11.23,0,20.33,9.1,20.33,20.33v83.35C2294.9,779.9,2285.79,789,2274.56,789z"/>
<path class="st0" d="M2594.53,789h-270.68c-11.23,0-20.33-9.1-20.33-20.33v-83.35c0-11.23,9.1-20.33,20.33-20.33h270.68
	c11.23,0,20.33,9.1,20.33,20.33v83.35C2614.87,779.9,2605.76,789,2594.53,789z"/>
<path class="st0" d="M253.94,921.2H-16.74c-11.23,0-20.33-9.1-20.33-20.33v-83.35c0-11.23,9.1-20.33,20.33-20.33h270.68
	c11.23,0,20.33,9.1,20.33,20.33v83.35C274.28,912.1,265.17,921.2,253.94,921.2z"/>
<path class="st0" d="M573.91,921.2H303.23c-11.23,0-20.33-9.1-20.33-20.33v-83.35c0-11.23,9.1-20.33,20.33-20.33h270.68
	c11.23,0,20.33,9.1,20.33,20.33v83.35C594.24,912.1,585.14,921.2,573.91,921.2z"/>
<path class="st1" d="M893.88,921.2H623.2c-11.23,0-20.33-9.1-20.33-20.33v-83.35c0-11.23,9.1-20.33,20.33-20.33h270.68
	c11.23,0,20.33,9.1,20.33,20.33v83.35C914.21,912.1,905.11,921.2,893.88,921.2z"/>
<path class="st0" d="M1213.67,921.2H942.98c-11.23,0-20.33-9.1-20.33-20.33v-83.35c0-11.23,9.1-20.33,20.33-20.33h270.68
	c11.23,0,20.33,9.1,20.33,20.33v83.35C1234,912.1,1224.9,921.2,1213.67,921.2z"/>
<path class="st0" d="M1533.63,921.2h-270.68c-11.23,0-20.33-9.1-20.33-20.33v-83.35c0-11.23,9.1-20.33,20.33-20.33h270.68
	c11.23,0,20.33,9.1,20.33,20.33v83.35C1553.97,912.1,1544.86,921.2,1533.63,921.2z"/>
<path class="st0" d="M1853.6,921.2h-270.68c-11.23,0-20.33-9.1-20.33-20.33v-83.35c0-11.23,9.1-20.33,20.33-20.33h270.68
	c11.23,0,20.33,9.1,20.33,20.33v83.35C1873.93,912.1,1864.83,921.2,1853.6,921.2z"/>
<path class="st1" d="M2173.57,921.2h-270.68c-11.23,0-20.33-9.1-20.33-20.33v-83.35c0-11.23,9.1-20.33,20.33-20.33h270.68
	c11.23,0,20.33,9.1,20.33,20.33v83.35C2193.9,912.1,2184.8,921.2,2173.57,921.2z"/>
<path class="st0" d="M2493.36,921.2h-270.68c-11.23,0-20.33-9.1-20.33-20.33v-83.35c0-11.23,9.1-20.33,20.33-20.33h270.68
	c11.23,0,20.33,9.1,20.33,20.33v83.35C2513.69,912.1,2504.59,921.2,2493.36,921.2z"/>
<path class="st0" d="M2813.32,921.2h-270.68c-11.23,0-20.33-9.1-20.33-20.33v-83.35c0-11.23,9.1-20.33,20.33-20.33h270.68
	c11.23,0,20.33,9.1,20.33,20.33v83.35C2833.66,912.1,2824.55,921.2,2813.32,921.2z"/>
<path class="st0" d="M135.65,1053.39h-270.68c-11.23,0-20.33-9.1-20.33-20.33V949.7c0-11.23,9.1-20.33,20.33-20.33h270.68
	c11.23,0,20.33,9.1,20.33,20.33v83.35C155.98,1044.28,146.88,1053.39,135.65,1053.39z"/>
<path class="st0" d="M455.62,1053.39H184.94c-11.23,0-20.33-9.1-20.33-20.33V949.7c0-11.23,9.1-20.33,20.33-20.33h270.68
	c11.23,0,20.33,9.1,20.33,20.33v83.35C475.95,1044.28,466.85,1053.39,455.62,1053.39z"/>
<path class="st1" d="M775.59,1053.39H504.9c-11.23,0-20.33-9.1-20.33-20.33V949.7c0-11.23,9.1-20.33,20.33-20.33h270.68
	c11.23,0,20.33,9.1,20.33,20.33v83.35C795.92,1044.28,786.82,1053.39,775.59,1053.39z"/>
<path class="st0" d="M1095.37,1053.39H824.69c-11.23,0-20.33-9.1-20.33-20.33V949.7c0-11.23,9.1-20.33,20.33-20.33h270.68
	c11.23,0,20.33,9.1,20.33,20.33v83.35C1115.71,1044.28,1106.6,1053.39,1095.37,1053.39z"/>
<path class="st0" d="M1415.34,1053.39h-270.68c-11.23,0-20.33-9.1-20.33-20.33V949.7c0-11.23,9.1-20.33,20.33-20.33h270.68
	c11.23,0,20.33,9.1,20.33,20.33v83.35C1435.67,1044.28,1426.57,1053.39,1415.34,1053.39z"/>
<path class="st0" d="M1735.31,1053.39h-270.68c-11.23,0-20.33-9.1-20.33-20.33V949.7c0-11.23,9.1-20.33,20.33-20.33h270.68
	c11.23,0,20.33,9.1,20.33,20.33v83.35C1755.64,1044.28,1746.54,1053.39,1735.31,1053.39z"/>
<path class="st0" d="M2055.28,1053.39h-270.68c-11.23,0-20.33-9.1-20.33-20.33V949.7c0-11.23,9.1-20.33,20.33-20.33h270.68
	c11.23,0,20.33,9.1,20.33,20.33v83.35C2075.61,1044.28,2066.51,1053.39,2055.28,1053.39z"/>
<path class="st0" d="M2375.06,1053.39h-270.68c-11.23,0-20.33-9.1-20.33-20.33V949.7c0-11.23,9.1-20.33,20.33-20.33h270.68
	c11.23,0,20.33,9.1,20.33,20.33v83.35C2395.4,1044.28,2386.29,1053.39,2375.06,1053.39z"/>
<path class="st0" d="M2695.03,1053.39h-270.68c-11.23,0-20.33-9.1-20.33-20.33V949.7c0-11.23,9.1-20.33,20.33-20.33h270.68
	c11.23,0,20.33,9.1,20.33,20.33v83.35C2715.37,1044.28,2706.26,1053.39,2695.03,1053.39z"/>
<path class="st0" d="M226.15,1185.58H-44.53c-11.23,0-20.33-9.1-20.33-20.33v-83.35c0-11.23,9.1-20.33,20.33-20.33h270.68
	c11.23,0,20.33,9.1,20.33,20.33v83.35C246.48,1176.48,237.38,1185.58,226.15,1185.58z"/>
<path class="st0" d="M546.12,1185.58H275.44c-11.23,0-20.33-9.1-20.33-20.33v-83.35c0-11.23,9.1-20.33,20.33-20.33h270.68
	c11.23,0,20.33,9.1,20.33,20.33v83.35C566.45,1176.48,557.35,1185.58,546.12,1185.58z"/>
<path class="st0" d="M866.09,1185.58H595.4c-11.23,0-20.33-9.1-20.33-20.33v-83.35c0-11.23,9.1-20.33,20.33-20.33h270.68
	c11.23,0,20.33,9.1,20.33,20.33v83.35C886.42,1176.48,877.32,1185.58,866.09,1185.58z"/>
<path class="st0" d="M1185.87,1185.58H915.19c-11.23,0-20.33-9.1-20.33-20.33v-83.35c0-11.23,9.1-20.33,20.33-20.33h270.68
	c11.23,0,20.33,9.1,20.33,20.33v83.35C1206.21,1176.48,1197.1,1185.58,1185.87,1185.58z"/>
<path class="st0" d="M1505.84,1185.58h-270.68c-11.23,0-20.33-9.1-20.33-20.33v-83.35c0-11.23,9.1-20.33,20.33-20.33h270.68
	c11.23,0,20.33,9.1,20.33,20.33v83.35C1526.17,1176.48,1517.07,1185.58,1505.84,1185.58z"/>
<path class="st0" d="M1825.81,1185.58h-270.68c-11.23,0-20.33-9.1-20.33-20.33v-83.35c0-11.23,9.1-20.33,20.33-20.33h270.68
	c11.23,0,20.33,9.1,20.33,20.33v83.35C1846.14,1176.48,1837.04,1185.58,1825.81,1185.58z"/>
<path class="st0" d="M2145.78,1185.58h-270.68c-11.23,0-20.33-9.1-20.33-20.33v-83.35c0-11.23,9.1-20.33,20.33-20.33h270.68
	c11.23,0,20.33,9.1,20.33,20.33v83.35C2166.11,1176.48,2157.01,1185.58,2145.78,1185.58z"/>
<path class="st0" d="M2465.56,1185.58h-270.68c-11.23,0-20.33-9.1-20.33-20.33v-83.35c0-11.23,9.1-20.33,20.33-20.33h270.68
	c11.23,0,20.33,9.1,20.33,20.33v83.35C2485.9,1176.48,2476.79,1185.58,2465.56,1185.58z"/>
<path class="st0" d="M2785.53,1185.58h-270.68c-11.23,0-20.33-9.1-20.33-20.33v-83.35c0-11.23,9.1-20.33,20.33-20.33h270.68
	c11.23,0,20.33,9.1,20.33,20.33v83.35C2805.87,1176.48,2796.76,1185.58,2785.53,1185.58z"/>
<path class="st0" d="M84.44,1317.78h-270.68c-11.23,0-20.33-9.1-20.33-20.33v-83.35c0-11.23,9.1-20.33,20.33-20.33H84.44
	c11.23,0,20.33,9.1,20.33,20.33v83.35C104.77,1308.67,95.67,1317.78,84.44,1317.78z"/>
<path class="st0" d="M404.4,1317.78H133.72c-11.23,0-20.33-9.1-20.33-20.33v-83.35c0-11.23,9.1-20.33,20.33-20.33H404.4
	c11.23,0,20.33,9.1,20.33,20.33v83.35C424.74,1308.67,415.63,1317.78,404.4,1317.78z"/>
<path class="st0" d="M724.37,1317.78H453.69c-11.23,0-20.33-9.1-20.33-20.33v-83.35c0-11.23,9.1-20.33,20.33-20.33h270.68
	c11.23,0,20.33,9.1,20.33,20.33v83.35C744.7,1308.67,735.6,1317.78,724.37,1317.78z"/>
<path class="st0" d="M1044.16,1317.78H773.48c-11.23,0-20.33-9.1-20.33-20.33v-83.35c0-11.23,9.1-20.33,20.33-20.33h270.68
	c11.23,0,20.33,9.1,20.33,20.33v83.35C1064.49,1308.67,1055.39,1317.78,1044.16,1317.78z"/>
<path class="st0" d="M1364.13,1317.78h-270.68c-11.23,0-20.33-9.1-20.33-20.33v-83.35c0-11.23,9.1-20.33,20.33-20.33h270.68
	c11.23,0,20.33,9.1,20.33,20.33v83.35C1384.46,1308.67,1375.36,1317.78,1364.13,1317.78z"/>
<path class="st0" d="M1684.09,1317.78h-270.68c-11.23,0-20.33-9.1-20.33-20.33v-83.35c0-11.23,9.1-20.33,20.33-20.33h270.68
	c11.23,0,20.33,9.1,20.33,20.33v83.35C1704.43,1308.67,1695.32,1317.78,1684.09,1317.78z"/>
<path class="st1" d="M2004.06,1317.78h-270.68c-11.23,0-20.33-9.1-20.33-20.33v-83.35c0-11.23,9.1-20.33,20.33-20.33h270.68
	c11.23,0,20.33,9.1,20.33,20.33v83.35C2024.4,1308.67,2015.29,1317.78,2004.06,1317.78z"/>
<path class="st0" d="M2323.85,1317.78h-270.68c-11.23,0-20.33-9.1-20.33-20.33v-83.35c0-11.23,9.1-20.33,20.33-20.33h270.68
	c11.23,0,20.33,9.1,20.33,20.33v83.35C2344.18,1308.67,2335.08,1317.78,2323.85,1317.78z"/>
<path class="st0" d="M2643.82,1317.78h-270.68c-11.23,0-20.33-9.1-20.33-20.33v-83.35c0-11.23,9.1-20.33,20.33-20.33h270.68
	c11.23,0,20.33,9.1,20.33,20.33v83.35C2664.15,1308.67,2655.05,1317.78,2643.82,1317.78z"/>
<path class="st0" d="M2813.24,656.83h-270.68c-11.23,0-20.33-9.1-20.33-20.33v-83.35c0-11.23,9.1-20.33,20.33-20.33h270.68
	c11.23,0,20.33,9.1,20.33,20.33v83.35C2833.57,647.73,2824.47,656.83,2813.24,656.83z"/>
</svg>
