<?xml version="1.0" encoding="utf-8"?>
<!-- Generator: Adobe Illustrator 26.1.0, SVG Export Plug-In . SVG Version: 6.00 Build 0)  -->
<svg version="1.1" id="Layer_1" xmlns="http://www.w3.org/2000/svg" xmlns:xlink="http://www.w3.org/1999/xlink" x="0px" y="0px"
	 viewBox="0 0 2560 1322.7" style="enable-background:new 0 0 2560 1322.7;" xml:space="preserve">
<style type="text/css">
	.st0{fill:#1B1B1B;}
</style>
<path class="st0" d="M1197,128H926.3c-11.2,0-20.3-9.1-20.3-20.3V24.3C906,13.1,915.1,4,926.3,4H1197c11.2,0,20.3,9.1,20.3,20.3
	v83.3C1217.3,118.9,1208.2,128,1197,128z"/>
<path class="st0" d="M1517,128h-270.7c-11.2,0-20.3-9.1-20.3-20.3V24.3c0-11.2,9.1-20.3,20.3-20.3H1517c11.2,0,20.3,9.1,20.3,20.3
	v83.3C1537.3,118.9,1528.2,128,1517,128z"/>
<path class="st0" d="M1836.9,128h-270.7c-11.2,0-20.3-9.1-20.3-20.3V24.3c0-11.2,9.1-20.3,20.3-20.3h270.7
	c11.2,0,20.3,9.1,20.3,20.3v83.3C1857.3,118.9,1848.2,128,1836.9,128z"/>
<path class="st0" d="M2156.9,128h-270.7c-11.2,0-20.3-9.1-20.3-20.3V24.3c0-11.2,9.1-20.3,20.3-20.3h270.7
	c11.2,0,20.3,9.1,20.3,20.3v83.3C2177.2,118.9,2168.1,128,2156.9,128z"/>
<path class="st0" d="M2476.7,128H2206c-11.2,0-20.3-9.1-20.3-20.3V24.3c0-11.2,9.1-20.3,20.3-20.3h270.7c11.2,0,20.3,9.1,20.3,20.3
	v83.3C2497,118.9,2487.9,128,2476.7,128z"/>
<path class="st0" d="M1689.3,260.2h-270.7c-11.2,0-20.3-9.1-20.3-20.3v-83.3c0-11.2,9.1-20.3,20.3-20.3h270.7
	c11.2,0,20.3,9.1,20.3,20.3V240C1709.6,251.1,1700.5,260.2,1689.3,260.2z"/>
<path class="st0" d="M2329.1,260.2h-270.7c-11.2,0-20.3-9.1-20.3-20.3v-83.3c0-11.2,9.1-20.3,20.3-20.3h270.7
	c11.2,0,20.3,9.1,20.3,20.3V240C2349.4,251.1,2340.3,260.2,2329.1,260.2z"/>
</svg>
