<?xml version="1.0" encoding="utf-8"?>
<!-- Generator: Adobe Illustrator 26.1.0, SVG Export Plug-In . SVG Version: 6.00 Build 0)  -->
<svg version="1.1" id="Layer_1" xmlns="http://www.w3.org/2000/svg" xmlns:xlink="http://www.w3.org/1999/xlink" x="0px" y="0px"
	 viewBox="0 0 2560 1322.7" style="enable-background:new 0 0 2560 1322.7;" xml:space="preserve">
<style type="text/css">
	.st0{fill:#1B1B1B;}
	.st1{fill:#292929;}
</style>
<path class="st0" d="M237.3,128H-33.4c-11.2,0-20.3-9.1-20.3-20.3V24.3C-53.7,13.1-44.6,4-33.4,4h270.7c11.2,0,20.3,9.1,20.3,20.3
	v83.3C257.6,118.9,248.5,128,237.3,128z"/>
<path class="st0" d="M557.2,128H286.6c-11.2,0-20.3-9.1-20.3-20.3V24.3c0-11.2,9.1-20.3,20.3-20.3h270.7c11.2,0,20.3,9.1,20.3,20.3
	v83.3C577.6,118.9,568.5,128,557.2,128z"/>
<path class="st0" d="M877.2,128H606.5c-11.2,0-20.3-9.1-20.3-20.3V24.3c0-11.2,9.1-20.3,20.3-20.3h270.7c11.2,0,20.3,9.1,20.3,20.3
	v83.3C897.5,118.9,888.5,128,877.2,128z"/>
<path class="st0" d="M1197,128H926.3c-11.2,0-20.3-9.1-20.3-20.3V24.3C906,13.1,915.1,4,926.3,4H1197c11.2,0,20.3,9.1,20.3,20.3
	v83.3C1217.3,118.9,1208.2,128,1197,128z"/>
<path class="st0" d="M1517,128h-270.7c-11.2,0-20.3-9.1-20.3-20.3V24.3c0-11.2,9.1-20.3,20.3-20.3H1517c11.2,0,20.3,9.1,20.3,20.3
	v83.3C1537.3,118.9,1528.2,128,1517,128z"/>
<path class="st0" d="M1836.9,128h-270.7c-11.2,0-20.3-9.1-20.3-20.3V24.3c0-11.2,9.1-20.3,20.3-20.3h270.7
	c11.2,0,20.3,9.1,20.3,20.3v83.3C1857.3,118.9,1848.2,128,1836.9,128z"/>
<path class="st0" d="M2156.9,128h-270.7c-11.2,0-20.3-9.1-20.3-20.3V24.3c0-11.2,9.1-20.3,20.3-20.3h270.7
	c11.2,0,20.3,9.1,20.3,20.3v83.3C2177.2,118.9,2168.1,128,2156.9,128z"/>
<path class="st0" d="M2476.7,128H2206c-11.2,0-20.3-9.1-20.3-20.3V24.3c0-11.2,9.1-20.3,20.3-20.3h270.7c11.2,0,20.3,9.1,20.3,20.3
	v83.3C2497,118.9,2487.9,128,2476.7,128z"/>
<path class="st0" d="M2796.7,128H2526c-11.2,0-20.3-9.1-20.3-20.3V24.3c0-11.2,9.1-20.3,20.3-20.3h270.7c11.2,0,20.3,9.1,20.3,20.3
	v83.3C2817,118.9,2807.9,128,2796.7,128z"/>
<path class="st0" d="M89.7,260.2H-181c-11.2,0-20.3-9.1-20.3-20.3v-83.3c0-11.2,9.1-20.3,20.3-20.3H89.7c11.2,0,20.3,9.1,20.3,20.3
	v83.4C110,251.1,100.9,260.2,89.7,260.2z"/>
<path class="st0" d="M409.6,260.2H138.9c-11.2,0-20.3-9.1-20.3-20.3v-83.3c0-11.2,9.1-20.3,20.3-20.3h270.7
	c11.2,0,20.3,9.1,20.3,20.3v83.4C430,251.1,420.9,260.2,409.6,260.2z"/>
<path class="st0" d="M729.6,260.2H458.9c-11.2,0-20.3-9.1-20.3-20.3v-83.3c0-11.2,9.1-20.3,20.3-20.3h270.7
	c11.2,0,20.3,9.1,20.3,20.3v83.4C749.9,251.1,740.8,260.2,729.6,260.2z"/>
<path class="st0" d="M1049.4,260.2H778.7c-11.2,0-20.3-9.1-20.3-20.3v-83.3c0-11.2,9.1-20.3,20.3-20.3h270.7
	c11.2,0,20.3,9.1,20.3,20.3v83.4C1069.7,251.1,1060.6,260.2,1049.4,260.2z"/>
<path class="st1" d="M1369.3,260.2h-270.7c-11.2,0-20.3-9.1-20.3-20.3v-83.3c0-11.2,9.1-20.3,20.3-20.3h270.7
	c11.2,0,20.3,9.1,20.3,20.3v83.4C1389.7,251.1,1380.6,260.2,1369.3,260.2z"/>
<path class="st0" d="M1689.3,260.2h-270.7c-11.2,0-20.3-9.1-20.3-20.3v-83.3c0-11.2,9.1-20.3,20.3-20.3h270.7
	c11.2,0,20.3,9.1,20.3,20.3v83.4C1709.6,251.1,1700.5,260.2,1689.3,260.2z"/>
<path class="st0" d="M2009.3,260.2h-270.7c-11.2,0-20.3-9.1-20.3-20.3v-83.3c0-11.2,9.1-20.3,20.3-20.3h270.7
	c11.2,0,20.3,9.1,20.3,20.3v83.4C2029.6,251.1,2020.5,260.2,2009.3,260.2z"/>
<path class="st0" d="M2329.1,260.2h-270.7c-11.2,0-20.3-9.1-20.3-20.3v-83.3c0-11.2,9.1-20.3,20.3-20.3h270.7
	c11.2,0,20.3,9.1,20.3,20.3v83.4C2349.4,251.1,2340.3,260.2,2329.1,260.2z"/>
<path class="st0" d="M2649,260.2h-270.7c-11.2,0-20.3-9.1-20.3-20.3v-83.3c0-11.2,9.1-20.3,20.3-20.3H2649
	c11.2,0,20.3,9.1,20.3,20.3v83.4C2669.4,251.1,2660.3,260.2,2649,260.2z"/>
<path class="st1" d="M240.1,392.4H-30.6c-11.2,0-20.3-9.1-20.3-20.3v-83.4c0-11.2,9.1-20.3,20.3-20.3h270.7
	c11.2,0,20.3,9.1,20.3,20.3v83.4C260.4,383.3,251.3,392.4,240.1,392.4z"/>
<path class="st0" d="M560.1,392.4H289.4c-11.2,0-20.3-9.1-20.3-20.3v-83.4c0-11.2,9.1-20.3,20.3-20.3h270.7
	c11.2,0,20.3,9.1,20.3,20.3v83.4C580.4,383.3,571.3,392.4,560.1,392.4z"/>
<path class="st0" d="M880,392.4H609.4c-11.2,0-20.3-9.1-20.3-20.3v-83.4c0-11.2,9.1-20.3,20.3-20.3H880c11.2,0,20.3,9.1,20.3,20.3
	v83.4C900.4,383.3,891.3,392.4,880,392.4z"/>
<path class="st0" d="M1199.8,392.4H929.2c-11.2,0-20.3-9.1-20.3-20.3v-83.4c0-11.2,9.1-20.3,20.3-20.3h270.7
	c11.2,0,20.3,9.1,20.3,20.3v83.4C1220.2,383.3,1211.1,392.4,1199.8,392.4z"/>
<path class="st0" d="M1519.8,392.4h-270.7c-11.2,0-20.3-9.1-20.3-20.3v-83.4c0-11.2,9.1-20.3,20.3-20.3h270.7
	c11.2,0,20.3,9.1,20.3,20.3v83.4C1540.1,383.3,1531,392.4,1519.8,392.4z"/>
<path class="st0" d="M1839.8,392.4h-270.7c-11.2,0-20.3-9.1-20.3-20.3v-83.4c0-11.2,9.1-20.3,20.3-20.3h270.7
	c11.2,0,20.3,9.1,20.3,20.3v83.4C1860.1,383.3,1851,392.4,1839.8,392.4z"/>
<path class="st0" d="M2159.7,392.4h-270.7c-11.2,0-20.3-9.1-20.3-20.3v-83.4c0-11.2,9.1-20.3,20.3-20.3h270.7
	c11.2,0,20.3,9.1,20.3,20.3v83.4C2180.1,383.3,2171,392.4,2159.7,392.4z"/>
<path class="st0" d="M2479.5,392.4h-270.7c-11.2,0-20.3-9.1-20.3-20.3v-83.4c0-11.2,9.1-20.3,20.3-20.3h270.7
	c11.2,0,20.3,9.1,20.3,20.3v83.4C2499.9,383.3,2490.8,392.4,2479.5,392.4z"/>
<path class="st1" d="M2799.5,392.4h-270.7c-11.2,0-20.3-9.1-20.3-20.3v-83.4c0-11.2,9.1-20.3,20.3-20.3h270.7
	c11.2,0,20.3,9.1,20.3,20.3v83.4C2819.8,383.3,2810.7,392.4,2799.5,392.4z"/>
<path class="st0" d="M123.9,524.6h-270.7c-11.2,0-20.3-9.1-20.3-20.3V421c0-11.2,9.1-20.3,20.3-20.3h270.7
	c11.2,0,20.3,9.1,20.3,20.3v83.4C144.3,515.5,135.2,524.6,123.9,524.6z"/>
<path class="st0" d="M443.9,524.6H173.2c-11.2,0-20.3-9.1-20.3-20.3V421c0-11.2,9.1-20.3,20.3-20.3h270.7c11.2,0,20.3,9.1,20.3,20.3
	v83.4C464.2,515.5,455.1,524.6,443.9,524.6z"/>
<path class="st1" d="M763.9,524.6H493.2c-11.2,0-20.3-9.1-20.3-20.3V421c0-11.2,9.1-20.3,20.3-20.3h270.7c11.2,0,20.3,9.1,20.3,20.3
	v83.4C784.2,515.5,775.1,524.6,763.9,524.6z"/>
<path class="st0" d="M1083.7,524.6H813c-11.2,0-20.3-9.1-20.3-20.3V421c0-11.2,9.1-20.3,20.3-20.3h270.7c11.2,0,20.3,9.1,20.3,20.3
	v83.4C1104,515.5,1094.9,524.6,1083.7,524.6z"/>
<path class="st0" d="M1403.6,524.6h-270.7c-11.2,0-20.3-9.1-20.3-20.3V421c0-11.2,9.1-20.3,20.3-20.3h270.7
	c11.2,0,20.3,9.1,20.3,20.3v83.4C1423.9,515.5,1414.8,524.6,1403.6,524.6z"/>
<path class="st0" d="M1723.6,524.6h-270.7c-11.2,0-20.3-9.1-20.3-20.3V421c0-11.2,9.1-20.3,20.3-20.3h270.7
	c11.2,0,20.3,9.1,20.3,20.3v83.4C1743.9,515.5,1734.8,524.6,1723.6,524.6z"/>
<path class="st0" d="M2043.6,524.6h-270.7c-11.2,0-20.3-9.1-20.3-20.3V421c0-11.2,9.1-20.3,20.3-20.3h270.7
	c11.2,0,20.3,9.1,20.3,20.3v83.4C2063.9,515.5,2054.8,524.6,2043.6,524.6z"/>
<path class="st0" d="M2363.3,524.6h-270.7c-11.2,0-20.3-9.1-20.3-20.3V421c0-11.2,9.1-20.3,20.3-20.3h270.7
	c11.2,0,20.3,9.1,20.3,20.3v83.4C2383.7,515.5,2374.6,524.6,2363.3,524.6z"/>
<path class="st0" d="M2683.3,524.6h-270.7c-11.2,0-20.3-9.1-20.3-20.3V421c0-11.2,9.1-20.3,20.3-20.3h270.7
	c11.2,0,20.3,9.1,20.3,20.3v83.4C2703.6,515.5,2694.5,524.6,2683.3,524.6z"/>
<path class="st0" d="M254,656.8H-16.6c-11.2,0-20.3-9.1-20.3-20.3v-83.3c0-11.2,9.1-20.3,20.3-20.3H254c11.2,0,20.3,9.1,20.3,20.3
	v83.3C274.4,647.7,265.3,656.8,254,656.8z"/>
<path class="st0" d="M574,656.8H303.3c-11.2,0-20.3-9.1-20.3-20.3v-83.3c0-11.2,9.1-20.3,20.3-20.3H574c11.2,0,20.3,9.1,20.3,20.3
	v83.3C594.3,647.7,585.2,656.8,574,656.8z"/>
<path class="st0" d="M893.8,656.8H623.1c-11.2,0-20.3-9.1-20.3-20.3v-83.3c0-11.2,9.1-20.3,20.3-20.3h270.7
	c11.2,0,20.3,9.1,20.3,20.3v83.3C914.1,647.7,905,656.8,893.8,656.8z"/>
<path class="st0" d="M1213.8,656.8H943.1c-11.2,0-20.3-9.1-20.3-20.3v-83.3c0-11.2,9.1-20.3,20.3-20.3h270.7
	c11.2,0,20.3,9.1,20.3,20.3v83.3C1234.1,647.7,1225,656.8,1213.8,656.8z"/>
<path class="st1" d="M1533.7,656.8H1263c-11.2,0-20.3-9.1-20.3-20.3v-83.3c0-11.2,9.1-20.3,20.3-20.3h270.7
	c11.2,0,20.3,9.1,20.3,20.3v83.3C1554.1,647.7,1544.9,656.8,1533.7,656.8z"/>
<path class="st0" d="M1853.7,656.8H1583c-11.2,0-20.3-9.1-20.3-20.3v-83.3c0-11.2,9.1-20.3,20.3-20.3h270.7
	c11.2,0,20.3,9.1,20.3,20.3v83.3C1874,647.7,1864.9,656.8,1853.7,656.8z"/>
<path class="st0" d="M2173.5,656.8h-270.7c-11.2,0-20.3-9.1-20.3-20.3v-83.3c0-11.2,9.1-20.3,20.3-20.3h270.7
	c11.2,0,20.3,9.1,20.3,20.3v83.3C2193.8,647.7,2184.7,656.8,2173.5,656.8z"/>
<path class="st0" d="M2493.4,656.8h-270.7c-11.2,0-20.3-9.1-20.3-20.3v-83.3c0-11.2,9.1-20.3,20.3-20.3h270.7
	c11.2,0,20.3,9.1,20.3,20.3v83.3C2513.8,647.7,2504.7,656.8,2493.4,656.8z"/>
<path class="st0" d="M35.2,789h-270.7c-11.2,0-20.3-9.1-20.3-20.3v-83.3c0-11.2,9.1-20.3,20.3-20.3H35.2c11.2,0,20.3,9.1,20.3,20.3
	v83.3C55.5,779.9,46.4,789,35.2,789z"/>
<path class="st0" d="M355.1,789H84.4c-11.2,0-20.3-9.1-20.3-20.3v-83.3c0-11.2,9.1-20.3,20.3-20.3h270.7c11.2,0,20.3,9.1,20.3,20.3
	v83.3C375.5,779.9,366.4,789,355.1,789z"/>
<path class="st0" d="M675.1,789H404.4c-11.2,0-20.3-9.1-20.3-20.3v-83.3c0-11.2,9.1-20.3,20.3-20.3h270.7c11.2,0,20.3,9.1,20.3,20.3
	v83.3C695.4,779.9,686.3,789,675.1,789z"/>
<path class="st0" d="M994.9,789H724.2c-11.2,0-20.3-9.1-20.3-20.3v-83.3c0-11.2,9.1-20.3,20.3-20.3h270.7c11.2,0,20.3,9.1,20.3,20.3
	v83.3C1015.2,779.9,1006.1,789,994.9,789z"/>
<path class="st0" d="M1314.8,789h-270.7c-11.2,0-20.3-9.1-20.3-20.3v-83.3c0-11.2,9.1-20.3,20.3-20.3h270.7
	c11.2,0,20.3,9.1,20.3,20.3v83.3C1335.2,779.9,1326.1,789,1314.8,789z"/>
<path class="st0" d="M1634.8,789h-270.7c-11.2,0-20.3-9.1-20.3-20.3v-83.3c0-11.2,9.1-20.3,20.3-20.3h270.7
	c11.2,0,20.3,9.1,20.3,20.3v83.3C1655.1,779.9,1646,789,1634.8,789z"/>
<path class="st0" d="M1954.8,789h-270.7c-11.2,0-20.3-9.1-20.3-20.3v-83.3c0-11.2,9.1-20.3,20.3-20.3h270.7
	c11.2,0,20.3,9.1,20.3,20.3v83.3C1975.1,779.9,1966,789,1954.8,789z"/>
<path class="st0" d="M2274.6,789h-270.7c-11.2,0-20.3-9.1-20.3-20.3v-83.3c0-11.2,9.1-20.3,20.3-20.3h270.7
	c11.2,0,20.3,9.1,20.3,20.3v83.3C2294.9,779.9,2285.8,789,2274.6,789z"/>
<path class="st0" d="M2594.5,789h-270.7c-11.2,0-20.3-9.1-20.3-20.3v-83.3c0-11.2,9.1-20.3,20.3-20.3h270.7
	c11.2,0,20.3,9.1,20.3,20.3v83.3C2614.9,779.9,2605.8,789,2594.5,789z"/>
<path class="st0" d="M253.9,921.2H-16.7c-11.2,0-20.3-9.1-20.3-20.3v-83.3c0-11.2,9.1-20.3,20.3-20.3h270.7
	c11.2,0,20.3,9.1,20.3,20.3v83.3C274.3,912.1,265.2,921.2,253.9,921.2z"/>
<path class="st0" d="M573.9,921.2H303.2c-11.2,0-20.3-9.1-20.3-20.3v-83.3c0-11.2,9.1-20.3,20.3-20.3h270.7
	c11.2,0,20.3,9.1,20.3,20.3v83.3C594.2,912.1,585.1,921.2,573.9,921.2z"/>
<path class="st1" d="M893.9,921.2H623.2c-11.2,0-20.3-9.1-20.3-20.3v-83.3c0-11.2,9.1-20.3,20.3-20.3h270.7
	c11.2,0,20.3,9.1,20.3,20.3v83.3C914.2,912.1,905.1,921.2,893.9,921.2z"/>
<path class="st0" d="M1213.7,921.2H943c-11.2,0-20.3-9.1-20.3-20.3v-83.3c0-11.2,9.1-20.3,20.3-20.3h270.7
	c11.2,0,20.3,9.1,20.3,20.3v83.3C1234,912.1,1224.9,921.2,1213.7,921.2z"/>
<path class="st0" d="M1533.6,921.2h-270.7c-11.2,0-20.3-9.1-20.3-20.3v-83.3c0-11.2,9.1-20.3,20.3-20.3h270.7
	c11.2,0,20.3,9.1,20.3,20.3v83.3C1554,912.1,1544.9,921.2,1533.6,921.2z"/>
<path class="st0" d="M1853.6,921.2h-270.7c-11.2,0-20.3-9.1-20.3-20.3v-83.3c0-11.2,9.1-20.3,20.3-20.3h270.7
	c11.2,0,20.3,9.1,20.3,20.3v83.3C1873.9,912.1,1864.8,921.2,1853.6,921.2z"/>
<path class="st1" d="M2173.6,921.2h-270.7c-11.2,0-20.3-9.1-20.3-20.3v-83.3c0-11.2,9.1-20.3,20.3-20.3h270.7
	c11.2,0,20.3,9.1,20.3,20.3v83.3C2193.9,912.1,2184.8,921.2,2173.6,921.2z"/>
<path class="st0" d="M2493.4,921.2h-270.7c-11.2,0-20.3-9.1-20.3-20.3v-83.3c0-11.2,9.1-20.3,20.3-20.3h270.7
	c11.2,0,20.3,9.1,20.3,20.3v83.3C2513.7,912.1,2504.6,921.2,2493.4,921.2z"/>
<path class="st0" d="M2813.3,921.2h-270.7c-11.2,0-20.3-9.1-20.3-20.3v-83.3c0-11.2,9.1-20.3,20.3-20.3h270.7
	c11.2,0,20.3,9.1,20.3,20.3v83.3C2833.7,912.1,2824.6,921.2,2813.3,921.2z"/>
<path class="st0" d="M135.6,1053.4H-135c-11.2,0-20.3-9.1-20.3-20.3v-83.4c0-11.2,9.1-20.3,20.3-20.3h270.7
	c11.2,0,20.3,9.1,20.3,20.3v83.4C156,1044.3,146.9,1053.4,135.6,1053.4z"/>
<path class="st0" d="M455.6,1053.4H184.9c-11.2,0-20.3-9.1-20.3-20.3v-83.4c0-11.2,9.1-20.3,20.3-20.3h270.7
	c11.2,0,20.3,9.1,20.3,20.3v83.4C476,1044.3,466.9,1053.4,455.6,1053.4z"/>
<path class="st1" d="M775.6,1053.4H504.9c-11.2,0-20.3-9.1-20.3-20.3v-83.4c0-11.2,9.1-20.3,20.3-20.3h270.7
	c11.2,0,20.3,9.1,20.3,20.3v83.4C795.9,1044.3,786.8,1053.4,775.6,1053.4z"/>
<path class="st0" d="M1095.4,1053.4H824.7c-11.2,0-20.3-9.1-20.3-20.3v-83.4c0-11.2,9.1-20.3,20.3-20.3h270.7
	c11.2,0,20.3,9.1,20.3,20.3v83.4C1115.7,1044.3,1106.6,1053.4,1095.4,1053.4z"/>
<path class="st0" d="M1415.3,1053.4h-270.7c-11.2,0-20.3-9.1-20.3-20.3v-83.4c0-11.2,9.1-20.3,20.3-20.3h270.7
	c11.2,0,20.3,9.1,20.3,20.3v83.4C1435.7,1044.3,1426.6,1053.4,1415.3,1053.4z"/>
<path class="st0" d="M1735.3,1053.4h-270.7c-11.2,0-20.3-9.1-20.3-20.3v-83.4c0-11.2,9.1-20.3,20.3-20.3h270.7
	c11.2,0,20.3,9.1,20.3,20.3v83.4C1755.6,1044.3,1746.5,1053.4,1735.3,1053.4z"/>
<path class="st0" d="M2055.3,1053.4h-270.7c-11.2,0-20.3-9.1-20.3-20.3v-83.4c0-11.2,9.1-20.3,20.3-20.3h270.7
	c11.2,0,20.3,9.1,20.3,20.3v83.4C2075.6,1044.3,2066.5,1053.4,2055.3,1053.4z"/>
<path class="st0" d="M2375.1,1053.4h-270.7c-11.2,0-20.3-9.1-20.3-20.3v-83.4c0-11.2,9.1-20.3,20.3-20.3h270.7
	c11.2,0,20.3,9.1,20.3,20.3v83.4C2395.4,1044.3,2386.3,1053.4,2375.1,1053.4z"/>
<path class="st0" d="M2695,1053.4h-270.7c-11.2,0-20.3-9.1-20.3-20.3v-83.4c0-11.2,9.1-20.3,20.3-20.3H2695
	c11.2,0,20.3,9.1,20.3,20.3v83.4C2715.4,1044.3,2706.3,1053.4,2695,1053.4z"/>
<path class="st0" d="M226.1,1185.6H-44.5c-11.2,0-20.3-9.1-20.3-20.3v-83.3c0-11.2,9.1-20.3,20.3-20.3h270.7
	c11.2,0,20.3,9.1,20.3,20.3v83.3C246.5,1176.5,237.4,1185.6,226.1,1185.6z"/>
<path class="st0" d="M546.1,1185.6H275.4c-11.2,0-20.3-9.1-20.3-20.3v-83.3c0-11.2,9.1-20.3,20.3-20.3h270.7
	c11.2,0,20.3,9.1,20.3,20.3v83.3C566.5,1176.5,557.3,1185.6,546.1,1185.6z"/>
<path class="st0" d="M866.1,1185.6H595.4c-11.2,0-20.3-9.1-20.3-20.3v-83.3c0-11.2,9.1-20.3,20.3-20.3h270.7
	c11.2,0,20.3,9.1,20.3,20.3v83.3C886.4,1176.5,877.3,1185.6,866.1,1185.6z"/>
<path class="st0" d="M1185.9,1185.6H915.2c-11.2,0-20.3-9.1-20.3-20.3v-83.3c0-11.2,9.1-20.3,20.3-20.3h270.7
	c11.2,0,20.3,9.1,20.3,20.3v83.3C1206.2,1176.5,1197.1,1185.6,1185.9,1185.6z"/>
<path class="st0" d="M1505.8,1185.6h-270.7c-11.2,0-20.3-9.1-20.3-20.3v-83.3c0-11.2,9.1-20.3,20.3-20.3h270.7
	c11.2,0,20.3,9.1,20.3,20.3v83.3C1526.2,1176.5,1517.1,1185.6,1505.8,1185.6z"/>
<path class="st0" d="M1825.8,1185.6h-270.7c-11.2,0-20.3-9.1-20.3-20.3v-83.3c0-11.2,9.1-20.3,20.3-20.3h270.7
	c11.2,0,20.3,9.1,20.3,20.3v83.3C1846.1,1176.5,1837,1185.6,1825.8,1185.6z"/>
<path class="st0" d="M2145.8,1185.6h-270.7c-11.2,0-20.3-9.1-20.3-20.3v-83.3c0-11.2,9.1-20.3,20.3-20.3h270.7
	c11.2,0,20.3,9.1,20.3,20.3v83.3C2166.1,1176.5,2157,1185.6,2145.8,1185.6z"/>
<path class="st0" d="M2465.6,1185.6h-270.7c-11.2,0-20.3-9.1-20.3-20.3v-83.3c0-11.2,9.1-20.3,20.3-20.3h270.7
	c11.2,0,20.3,9.1,20.3,20.3v83.3C2485.9,1176.5,2476.8,1185.6,2465.6,1185.6z"/>
<path class="st0" d="M2785.5,1185.6h-270.7c-11.2,0-20.3-9.1-20.3-20.3v-83.3c0-11.2,9.1-20.3,20.3-20.3h270.7
	c11.2,0,20.3,9.1,20.3,20.3v83.3C2805.9,1176.5,2796.8,1185.6,2785.5,1185.6z"/>
<path class="st0" d="M84.4,1317.8h-270.7c-11.2,0-20.3-9.1-20.3-20.3v-83.3c0-11.2,9.1-20.3,20.3-20.3H84.4
	c11.2,0,20.3,9.1,20.3,20.3v83.3C104.8,1308.7,95.7,1317.8,84.4,1317.8z"/>
<path class="st0" d="M404.4,1317.8H133.7c-11.2,0-20.3-9.1-20.3-20.3v-83.3c0-11.2,9.1-20.3,20.3-20.3h270.7
	c11.2,0,20.3,9.1,20.3,20.3v83.3C424.7,1308.7,415.6,1317.8,404.4,1317.8z"/>
<path class="st0" d="M724.4,1317.8H453.7c-11.2,0-20.3-9.1-20.3-20.3v-83.3c0-11.2,9.1-20.3,20.3-20.3h270.7
	c11.2,0,20.3,9.1,20.3,20.3v83.3C744.7,1308.7,735.6,1317.8,724.4,1317.8z"/>
<path class="st0" d="M1044.2,1317.8H773.5c-11.2,0-20.3-9.1-20.3-20.3v-83.3c0-11.2,9.1-20.3,20.3-20.3h270.7
	c11.2,0,20.3,9.1,20.3,20.3v83.3C1064.5,1308.7,1055.4,1317.8,1044.2,1317.8z"/>
<path class="st0" d="M1364.1,1317.8h-270.7c-11.2,0-20.3-9.1-20.3-20.3v-83.3c0-11.2,9.1-20.3,20.3-20.3h270.7
	c11.2,0,20.3,9.1,20.3,20.3v83.3C1384.5,1308.7,1375.4,1317.8,1364.1,1317.8z"/>
<path class="st0" d="M1684.1,1317.8h-270.7c-11.2,0-20.3-9.1-20.3-20.3v-83.3c0-11.2,9.1-20.3,20.3-20.3h270.7
	c11.2,0,20.3,9.1,20.3,20.3v83.3C1704.4,1308.7,1695.3,1317.8,1684.1,1317.8z"/>
<path class="st1" d="M2004.1,1317.8h-270.7c-11.2,0-20.3-9.1-20.3-20.3v-83.3c0-11.2,9.1-20.3,20.3-20.3h270.7
	c11.2,0,20.3,9.1,20.3,20.3v83.3C2024.4,1308.7,2015.3,1317.8,2004.1,1317.8z"/>
<path class="st0" d="M2323.9,1317.8h-270.7c-11.2,0-20.3-9.1-20.3-20.3v-83.3c0-11.2,9.1-20.3,20.3-20.3h270.7
	c11.2,0,20.3,9.1,20.3,20.3v83.3C2344.2,1308.7,2335.1,1317.8,2323.9,1317.8z"/>
<path class="st0" d="M2643.8,1317.8h-270.7c-11.2,0-20.3-9.1-20.3-20.3v-83.3c0-11.2,9.1-20.3,20.3-20.3h270.7
	c11.2,0,20.3,9.1,20.3,20.3v83.3C2664.1,1308.7,2655.1,1317.8,2643.8,1317.8z"/>
<path class="st0" d="M2813.2,656.8h-270.7c-11.2,0-20.3-9.1-20.3-20.3v-83.3c0-11.2,9.1-20.3,20.3-20.3h270.7
	c11.2,0,20.3,9.1,20.3,20.3v83.3C2833.6,647.7,2824.5,656.8,2813.2,656.8z"/>
</svg>
