<?xml version="1.0" encoding="utf-8"?>
<!-- Generator: Adobe Illustrator 26.1.0, SVG Export Plug-In . SVG Version: 6.00 Build 0)  -->
<svg version="1.1" id="Layer_1" xmlns="http://www.w3.org/2000/svg" xmlns:xlink="http://www.w3.org/1999/xlink" x="0px" y="0px"
	 viewBox="0 0 1654 1430" style="enable-background:new 0 0 1654 1430;" xml:space="preserve">
<style type="text/css">
	.st0{fill:#D6D6D6;}
</style>
<path class="st0" d="M1190,85c72,38.4,356.06-31.8,414.26,33c-0.1,100.01,12.64,751-1.76,826c-13.8,74.4-90,141-147,208.8
	c-57,67.2-94.8,135.6-152.4,156.6c-57.6,20.4-135.6-6-208.8-14.4c-73.2-8.4-141.6,1.8-225.6-3.6S139,1262.4,106,1203
	s-50.4-114.2-36-203c13.8-88.8-40.8-307-3-358c37.2-51.6-47.6-420.4,22-460c69.6-40.2,481.72-80.8,548.92-94
	C705.12,74.2,1118.6,46,1190,85z"/>
</svg>
