<?xml version="1.0" encoding="utf-8"?>
<!-- Generator: Adobe Illustrator 26.1.0, SVG Export Plug-In . SVG Version: 6.00 Build 0)  -->
<svg version="1.1" id="Layer_1" xmlns="http://www.w3.org/2000/svg" xmlns:xlink="http://www.w3.org/1999/xlink" x="0px" y="0px"
	 viewBox="0 0 347.8 351.57" style="enable-background:new 0 0 347.8 351.57;" xml:space="preserve">
<style type="text/css">
	.st0{fill:#ebebeb;}
	.st1{fill:#A92223;}
</style>
<circle class="st0" cx="173.9" cy="175.79" r="167.65"/>
<circle class="st1" cx="173.45" cy="175.79" r="144.35"/>
<circle class="st0" cx="173.45" cy="306.4" r="8.37"/>
<circle class="st0" cx="303.23" cy="175.79" r="8.37"/>
<circle class="st0" cx="45.46" cy="175.79" r="8.37"/>
<circle class="st0" cx="173.9" cy="47.02" r="8.37"/>
<path class="st0" d="M173.9,179.85L173.9,179.85c-1.96,0-3.56-1.59-3.56-3.56V89.85h7.11v86.44
	C177.45,178.26,175.86,179.85,173.9,179.85z"/>
<path class="st0" d="M171.39,174.2L171.39,174.2c1.39-1.39,3.64-1.39,5.03,0l85.93,85.93l-5.03,5.03l-85.93-85.93
	C170,177.84,170,175.59,171.39,174.2z"/>
</svg>
