<?xml version="1.0" encoding="utf-8"?>
<!-- Generator: Adobe Illustrator 26.1.0, SVG Export Plug-In . SVG Version: 6.00 Build 0)  -->
<svg version="1.1" id="Layer_1" xmlns="http://www.w3.org/2000/svg" xmlns:xlink="http://www.w3.org/1999/xlink" x="0px" y="0px"
	 viewBox="0 0 153.33 129.33" style="enable-background:new 0 0 153.33 129.33;" xml:space="preserve">
<style type="text/css">
	.st0{fill:#0D0E0E;}
	.st1{fill:#1A1A1A;}
	.st2{fill:none;stroke:#111111;stroke-miterlimit:10;}
	.st3{fill:#F5B04E;}
	.st4{fill:#D99128;}
	.st5{fill:url(#SVGID_1_);}
	.st6{fill:#412312;}
</style>
<ellipse class="st0" cx="70.86" cy="111.18" rx="44.72" ry="14.64"/>
<rect x="26.14" y="106.56" class="st0" width="89.44" height="4.62"/>
<ellipse class="st1" cx="70.86" cy="106.56" rx="44.72" ry="14.64"/>
<ellipse class="st2" cx="70.86" cy="106.56" rx="42.81" ry="13.01"/>
<g>
	<path class="st3" d="M69.88,22.49l-51.45-2.57c0,0,0,20.35,0,32.14c0,11.79,9.77,41.2,25.54,56.81c0,0,0,0,0,0h0
		c0,0,6.95,5.76,25.91,5.76c18.96,0,25.91-5.76,25.91-5.76h0c0,0,0,0,0,0c15.78-15.62,25.54-45.02,25.54-56.81
		c0-11.79,0-32.14,0-32.14L69.88,22.49z"/>
</g>
<g>
	<path class="st4" d="M70.06,24.78l-48.92-2.33c0,0,0,11.57,0,21.69c5.31,15.33,9.23,20.98,28.3,20.98
		c19.17,0,12.03-10.6,27.34-10.6s19.76-12.12,34.32-12.12c6.83,0,7.87-5.01,7.87-5.01c0-7.9,0-14.95,0-14.95L70.06,24.78z"/>
</g>
<g>
	<linearGradient id="SVGID_1_" gradientUnits="userSpaceOnUse" x1="18.4285" y1="67.2714" x2="75.8356" y2="67.2714">
		<stop  offset="0.1895" style="stop-color:#7F5723;stop-opacity:0.3"/>
		<stop  offset="0.3784" style="stop-color:#553F21;stop-opacity:0.197"/>
		<stop  offset="0.7397" style="stop-color:#010101;stop-opacity:0"/>
	</linearGradient>
	<path class="st5" d="M60.28,22.01l-41.85-2.09c0,0,0,20.35,0,32.14c0,11.79,9.77,41.2,25.54,56.81c0,0,6.95,5.76,25.91,5.76
		c2.14,0,4.11-0.08,5.96-0.21C69.98,94.92,60.11,56.8,60.28,22.01z"/>
</g>
<g>
	<path class="st3" d="M69.88,7.07c-28.42,0-51.45,5.84-51.45,13.04s23.04,13.04,51.45,13.04s51.45-5.84,51.45-13.04
		S98.29,7.07,69.88,7.07z M115.92,22.45l1.28,1.81l-13.8,4.78l-33.34,2.96l-28.33-1.79l-17.04-5.9v-1.2h0
		c-1.39-0.95-2.13-1.96-2.13-3.01C22.55,14.53,43.74,10,69.88,10s47.33,4.53,47.33,10.11C117.21,20.91,116.75,21.7,115.92,22.45
		C115.92,22.45,115.92,22.45,115.92,22.45z"/>
	<path class="st4" d="M117.21,20.11c0-5.58-21.19-10.11-47.33-10.11s-47.33,4.53-47.33,10.11c0,1.05,0.75,2.06,2.13,3.01
		c0,0,7.59-8.54,42.07-8.54c34.35,0,49.05,7.81,49.16,7.87C116.75,21.7,117.21,20.91,117.21,20.11z"/>
	<path class="st3" d="M24.69,23.12L24.69,23.12l0,1.2l17.04,5.9l28.33,1.79l33.34-2.96l13.8-4.78l-1.28-1.81c0,0,0,0-0.01,0
		c-4.95,4.45-23.67,7.77-46.04,7.77C48.65,30.22,30.68,27.23,24.69,23.12z"/>
	<path class="st4" d="M24.69,23.12c6,4.11,23.96,7.1,45.19,7.1c22.36,0,41.09-3.31,46.04-7.77c-0.11-0.06-14.81-7.87-49.16-7.87
		C32.28,14.58,24.69,23.12,24.69,23.12z"/>
	<path class="st6" d="M24.69,23.12c6,4.11,23.96,7.1,45.19,7.1c22.36,0,41.09-3.31,46.04-7.77c-0.11-0.06-14.81-7.87-49.16-7.87
		C32.28,14.58,24.69,23.12,24.69,23.12z"/>
</g>
<path class="st3" d="M139.04,50.84c-6.53-10.45-22.32-12.35-35.26-4.26S85.65,69.7,92.18,80.14c6.53,10.45,22.32,12.35,35.25,4.26
	S145.57,61.29,139.04,50.84z M98.25,76.35c-4.84-7.74-0.99-18.88,8.6-24.88c9.59-6,21.29-4.58,26.13,3.16
	c4.84,7.74,0.99,18.88-8.6,24.88C114.79,85.51,103.09,84.09,98.25,76.35z"/>
</svg>
