<?xml version="1.0" encoding="utf-8"?>
<!-- Generator: Adobe Illustrator 26.1.0, SVG Export Plug-In . SVG Version: 6.00 Build 0)  -->
<svg version="1.1" id="Layer_1" xmlns="http://www.w3.org/2000/svg" xmlns:xlink="http://www.w3.org/1999/xlink" x="0px" y="0px"
	 viewBox="0 0 600 600" style="enable-background:new 0 0 600 600;" xml:space="preserve">
<style type="text/css">
	.st0{fill: #FFFFFF}
</style>
<g>
	<path class="st0" d="M270.51,229.34c3.63,0.36,6.02,2.17,6.11,5.87c0.09,3.67-2.08,5.96-5.73,6.07c-3.67,0.11-5.94-2.07-6.08-5.73
		C264.67,231.84,266.99,229.93,270.51,229.34z"/>
	<path class="st0" d="M300.76,235.18c-0.36,3.63-2.17,6.02-5.87,6.11c-3.67,0.09-5.96-2.08-6.07-5.73c-0.11-3.67,2.07-5.94,5.73-6.08
		C298.26,229.34,300.16,231.66,300.76,235.18z"/>
	<path class="st0" d="M324.74,235.83c-0.72,3.46-2.71,5.73-6.41,5.45c-3.63-0.27-5.77-2.62-5.51-6.29c0.25-3.63,2.61-5.76,6.28-5.52
		C322.76,229.72,324.54,232.14,324.74,235.83z"/>
	<path class="st0" d="M342.15,229.32c3.93,0.34,6.33,2.14,6.46,5.83c0.14,3.67-2.02,5.98-5.67,6.13c-3.67,0.15-5.94-2.02-6.14-5.67
		C336.6,231.85,339.04,230.07,342.15,229.32z"/>
	<path class="st0" d="M372.79,235.21c-0.53,3.78-2.4,6.12-6.11,6.08c-3.67-0.04-5.89-2.27-5.87-5.94c0.02-3.66,2.27-5.86,5.94-5.87
		C370.49,229.46,372.23,231.91,372.79,235.21z"/>
	<path class="st0" d="M234.68,241.33c3.58,0.46,5.94,2.31,5.94,6.02c0,3.67-2.21,5.91-5.88,5.93c-3.67,0.02-5.9-2.21-5.94-5.87
		C228.77,243.7,231.11,241.84,234.68,241.33z"/>
	<path class="st0" d="M258.83,241.34c3.55,0.55,5.88,2.44,5.79,6.15c-0.09,3.66-2.34,5.87-6.01,5.8c-3.66-0.07-5.85-2.33-5.8-6.01
		C252.86,243.57,255.23,241.75,258.83,241.34z"/>
	<path class="st0" d="M312.79,246.93c-0.41,3.89-2.23,6.28-5.93,6.35c-3.67,0.08-5.95-2.1-6.05-5.76c-0.1-3.67,2.1-5.92,5.76-6.05
		C310.32,241.33,312.1,243.77,312.79,246.93z"/>
	<path class="st0" d="M330.78,241.34c3.56,0.52,5.9,2.39,5.84,6.1c-0.06,3.67-2.3,5.88-5.97,5.84c-3.66-0.04-5.87-2.29-5.85-5.96
		C324.83,243.61,327.19,241.78,330.78,241.34z"/>
	<path class="st0" d="M360.76,247.21c-0.38,3.62-2.2,6-5.9,6.08c-3.67,0.08-5.95-2.1-6.05-5.76c-0.1-3.67,2.1-5.93,5.76-6.05
		C358.28,241.36,360.18,243.68,360.76,247.21z"/>
	<path class="st0" d="M384.79,247.12c-0.49,3.81-2.34,6.17-6.05,6.17c-3.67,0-5.91-2.21-5.93-5.88c-0.02-3.67,2.21-5.88,5.87-5.94
		C382.43,241.42,384.19,243.85,384.79,247.12z"/>
	<path class="st0" d="M222.88,265.42c-3.62-0.38-6-2.2-6.08-5.9c-0.08-3.67,2.1-5.95,5.76-6.05c3.67-0.1,5.93,2.1,6.05,5.76
		C228.74,262.95,226.42,264.85,222.88,265.42z"/>
	<path class="st0" d="M246.83,253.34c3.55,0.55,5.88,2.44,5.79,6.15c-0.09,3.66-2.34,5.87-6.01,5.8c-3.66-0.07-5.85-2.33-5.8-6.01
		C240.86,255.57,243.23,253.75,246.83,253.34z"/>
	<path class="st0" d="M300.76,259.35c-0.46,3.58-2.31,5.94-6.02,5.94c-3.67,0-5.91-2.21-5.93-5.88c-0.02-3.67,2.21-5.9,5.87-5.94
		C298.4,253.43,300.26,255.78,300.76,259.35z"/>
	<path class="st0" d="M324.79,259.45c-0.67,3.71-2.6,6.01-6.31,5.83c-3.65-0.18-5.82-2.47-5.67-6.14c0.15-3.65,2.46-5.8,6.13-5.68
		C322.67,253.6,324.36,256.08,324.79,259.45z"/>
	<path class="st0" d="M342.92,253.34c3.52,0.59,5.84,2.5,5.7,6.21c-0.14,3.66-2.41,5.84-6.08,5.73c-3.65-0.11-5.83-2.4-5.73-6.07
		C336.9,255.51,339.29,253.7,342.92,253.34z"/>
	<path class="st0" d="M372.75,259.66c-0.63,3.5-2.56,5.81-6.27,5.63c-3.65-0.18-5.82-2.47-5.67-6.14c0.15-3.65,2.46-5.81,6.13-5.67
		C370.64,253.61,372.44,256.01,372.75,259.66z"/>
	<path class="st0" d="M240.75,271.11c-0.32,3.65-2.12,6.04-5.81,6.18c-3.67,0.14-5.98-2.02-6.13-5.67c-0.15-3.67,2.02-5.96,5.67-6.14
		C238.2,265.3,240.12,267.61,240.75,271.11z"/>
	<path class="st0" d="M264.76,271.45c-0.52,3.56-2.39,5.9-6.1,5.84c-3.67-0.06-5.88-2.3-5.84-5.97c0.04-3.66,2.29-5.87,5.96-5.85
		C262.48,265.49,264.32,267.86,264.76,271.45z"/>
	<path class="st0" d="M312.79,271.08c-0.47,3.82-2.31,6.19-6.02,6.21c-3.67,0.02-5.92-2.18-5.96-5.85c-0.04-3.67,2.18-5.89,5.84-5.97
		C310.4,265.4,312.17,267.83,312.79,271.08z"/>
	<path class="st0" d="M330.54,265.34c3.62,0.38,6,2.2,6.08,5.9c0.08,3.67-2.1,5.95-5.76,6.05c-3.67,0.1-5.93-2.1-6.05-5.76
		C324.69,267.81,327.01,265.91,330.54,265.34z"/>
	<path class="st0" d="M360.79,271.12c-0.49,3.81-2.34,6.17-6.05,6.17c-3.67,0-5.91-2.21-5.93-5.88c-0.02-3.67,2.21-5.88,5.87-5.94
		C358.43,265.42,360.19,267.85,360.79,271.12z"/>
	<path class="st0" d="M378.41,265.31c3.82,0.47,6.19,2.31,6.21,6.02c0.02,3.67-2.18,5.92-5.85,5.96c-3.67,0.04-5.89-2.18-5.97-5.84
		C372.73,267.7,375.16,265.92,378.41,265.31z"/>
	<path class="st0" d="M228.79,283.12c-0.49,3.81-2.34,6.17-6.05,6.17c-3.67,0-5.91-2.21-5.93-5.88c-0.02-3.67,2.21-5.88,5.87-5.94
		C226.43,277.42,228.19,279.85,228.79,283.12z"/>
	<path class="st0" d="M252.76,283.55c-0.58,3.53-2.48,5.85-6.19,5.74c-3.66-0.12-5.85-2.38-5.76-6.05c0.1-3.66,2.38-5.84,6.05-5.76
		C250.56,277.55,252.38,279.93,252.76,283.55z"/>
	<path class="st0" d="M295.28,289.45c-3.94-0.34-6.33-2.14-6.47-5.83c-0.14-3.67,2.02-5.98,5.67-6.13c3.67-0.15,5.94,2.02,6.14,5.67
		C300.83,286.91,298.38,288.69,295.28,289.45z"/>
	<path class="st0" d="M324.76,283.42c-0.5,3.57-2.37,5.91-6.08,5.87c-3.67-0.04-5.89-2.27-5.87-5.94c0.02-3.67,2.27-5.87,5.94-5.87
		C322.46,277.47,324.3,279.84,324.76,283.42z"/>
	<path class="st0" d="M342.87,289.46c-3.78-0.55-6.12-2.42-6.06-6.14c0.06-3.67,2.3-5.88,5.97-5.84c3.66,0.04,5.85,2.29,5.85,5.96
		C348.62,287.18,346.16,288.91,342.87,289.46z"/>
	<path class="st0" d="M366.98,277.31c3.64,0.76,5.91,2.75,5.63,6.45c-0.27,3.63-2.62,5.77-6.29,5.51c-3.63-0.25-5.75-2.61-5.52-6.28
		C361.04,279.3,363.54,277.63,366.98,277.31z"/>
	<path class="st0" d="M240.79,295.34c-0.61,3.74-2.51,6.07-6.22,5.95c-3.66-0.12-5.85-2.38-5.76-6.05c0.1-3.66,2.37-5.83,6.05-5.76
		C238.59,289.53,240.3,292.01,240.79,295.34z"/>
	<path class="st0" d="M264.76,295.35c-0.46,3.58-2.31,5.94-6.02,5.94c-3.67,0-5.91-2.21-5.93-5.88c-0.02-3.67,2.21-5.9,5.87-5.94
		C262.4,289.43,264.26,291.78,264.76,295.35z"/>
	<path class="st0" d="M312.76,295.32c-0.44,3.59-2.28,5.95-5.99,5.97c-3.67,0.02-5.92-2.18-5.96-5.85c-0.04-3.67,2.18-5.91,5.84-5.97
		C310.37,289.41,312.24,291.75,312.76,295.32z"/>
	<path class="st0" d="M336.76,295.35c-0.46,3.58-2.31,5.94-6.02,5.94c-3.67,0-5.91-2.21-5.93-5.88c-0.02-3.67,2.21-5.9,5.87-5.94
		C334.4,289.43,336.26,291.78,336.76,295.35z"/>
	<path class="st0" d="M354.75,301.43c-3.58-0.46-5.94-2.31-5.94-6.02c0-3.67,2.21-5.91,5.88-5.93c3.67-0.02,5.9,2.21,5.94,5.87
		C360.66,299.06,358.31,300.93,354.75,301.43z"/>
	<path class="st0" d="M384.79,295.34c-0.61,3.74-2.51,6.07-6.22,5.95c-3.66-0.12-5.85-2.38-5.76-6.05c0.1-3.66,2.37-5.83,6.05-5.76
		C382.59,289.53,384.3,292.01,384.79,295.34z"/>
	<path class="st0" d="M234.68,217.33c3.58,0.46,5.94,2.31,5.94,6.02c0,3.67-2.21,5.91-5.88,5.93c-3.67,0.02-5.9-2.21-5.94-5.87
		C228.77,219.7,231.11,217.84,234.68,217.33z"/>
	<path class="st0" d="M228.78,306.82c-0.34,3.93-2.14,6.33-5.83,6.46c-3.67,0.14-5.98-2.02-6.13-5.67c-0.15-3.67,2.02-5.94,5.67-6.14
		C226.24,301.27,228.03,303.71,228.78,306.82z"/>
	<path class="st0" d="M252.76,307.5c-0.55,3.55-2.44,5.88-6.15,5.79c-3.66-0.09-5.87-2.34-5.8-6.01c0.07-3.66,2.33-5.85,6.01-5.8
		C250.52,301.52,252.35,303.9,252.76,307.5z"/>
	<path class="st0" d="M294.87,313.46c-3.78-0.55-6.12-2.42-6.06-6.14c0.06-3.67,2.3-5.88,5.97-5.84c3.66,0.04,5.85,2.29,5.85,5.96
		C300.62,311.18,298.16,312.91,294.87,313.46z"/>
	<path class="st0" d="M324.76,307.5c-0.55,3.55-2.44,5.88-6.15,5.79c-3.66-0.09-5.87-2.34-5.8-6.01c0.07-3.66,2.33-5.85,6.01-5.8
		C322.52,301.52,324.35,303.9,324.76,307.5z"/>
	<path class="st0" d="M342.92,301.34c3.52,0.59,5.84,2.5,5.7,6.21c-0.14,3.66-2.41,5.84-6.08,5.73c-3.65-0.11-5.83-2.4-5.73-6.07
		C336.9,303.51,339.29,301.7,342.92,301.34z"/>
	<path class="st0" d="M372.79,307.12c-0.49,3.81-2.34,6.17-6.05,6.17c-3.67,0-5.91-2.21-5.93-5.88c-0.02-3.67,2.21-5.88,5.87-5.94
		C370.43,301.42,372.19,303.85,372.79,307.12z"/>
	<path class="st0" d="M258.44,217.34c3.65,0.32,6.04,2.12,6.18,5.81c0.14,3.67-2.02,5.98-5.67,6.13c-3.67,0.15-5.96-2.02-6.14-5.67
		C252.63,219.9,254.94,217.97,258.44,217.34z"/>
	<path class="st0" d="M234.88,325.42c-3.62-0.38-6-2.2-6.08-5.9c-0.08-3.67,2.1-5.95,5.76-6.05c3.67-0.1,5.93,2.1,6.05,5.76
		C240.74,322.95,238.42,324.85,234.88,325.42z"/>
	<path class="st0" d="M264.79,319.34c-0.61,3.74-2.51,6.07-6.22,5.95c-3.66-0.12-5.85-2.38-5.76-6.05c0.1-3.66,2.37-5.83,6.05-5.76
		C262.59,313.53,264.3,316.01,264.79,319.34z"/>
	<path class="st0" d="M312.79,318.88c-0.39,3.92-2.2,6.31-5.9,6.4c-3.67,0.09-5.96-2.08-6.07-5.73c-0.11-3.67,2.07-5.93,5.73-6.08
		C310.29,313.31,312.07,315.75,312.79,318.88z"/>
	<path class="st0" d="M330.51,313.34c3.63,0.36,6.02,2.17,6.11,5.87c0.09,3.67-2.08,5.96-5.73,6.07c-3.67,0.11-5.94-2.07-6.08-5.73
		C324.67,315.84,326.99,313.93,330.51,313.34z"/>
	<path class="st0" d="M360.76,319.35c-0.46,3.58-2.31,5.94-6.02,5.94c-3.67,0-5.91-2.21-5.93-5.88c-0.02-3.67,2.21-5.9,5.87-5.94
		C358.4,313.43,360.26,315.78,360.76,319.35z"/>
	<path class="st0" d="M378.51,325.42c-3.52-0.59-5.84-2.5-5.7-6.21c0.13-3.66,2.41-5.84,6.08-5.73c3.66,0.11,5.83,2.4,5.73,6.07
		C384.52,323.25,382.14,325.06,378.51,325.42z"/>
	<path class="st0" d="M282.92,217.34c3.52,0.59,5.84,2.5,5.7,6.21c-0.14,3.66-2.41,5.84-6.08,5.73c-3.65-0.11-5.83-2.4-5.73-6.07
		C276.9,219.51,279.29,217.7,282.92,217.34z"/>
	<path class="st0" d="M216.68,330.93c0.72-3.46,2.71-5.73,6.41-5.45c3.63,0.27,5.77,2.62,5.51,6.29c-0.25,3.63-2.61,5.76-6.28,5.52
		C218.66,337.04,216.89,334.62,216.68,330.93z"/>
	<path class="st0" d="M252.76,331.59c-0.59,3.52-2.5,5.84-6.21,5.7c-3.66-0.14-5.84-2.41-5.73-6.08c0.11-3.65,2.4-5.83,6.07-5.73
		C250.58,325.57,252.39,327.96,252.76,331.59z"/>
	<path class="st0" d="M300.79,330.88c-0.39,3.92-2.2,6.31-5.9,6.4c-3.67,0.09-5.96-2.08-6.07-5.73c-0.11-3.67,2.07-5.93,5.73-6.08
		C298.29,325.31,300.07,327.75,300.79,330.88z"/>
	<path class="st0" d="M324.79,331.23c-0.55,3.78-2.42,6.12-6.14,6.06c-3.67-0.06-5.88-2.3-5.84-5.97c0.04-3.66,2.29-5.85,5.96-5.85
		C322.51,325.47,324.24,327.93,324.79,331.23z"/>
	<path class="st0" d="M342.51,325.34c3.63,0.36,6.02,2.17,6.11,5.87c0.09,3.67-2.08,5.96-5.73,6.07c-3.67,0.11-5.94-2.07-6.08-5.73
		C336.67,327.84,338.99,325.93,342.51,325.34z"/>
	<path class="st0" d="M366.51,337.42c-3.52-0.59-5.84-2.5-5.7-6.21c0.13-3.66,2.41-5.84,6.08-5.73c3.66,0.11,5.83,2.4,5.73,6.07
		C372.52,335.25,370.14,337.06,366.51,337.42z"/>
	<path class="st0" d="M300.68,222.93c0.72-3.46,2.71-5.73,6.41-5.45c3.63,0.27,5.77,2.62,5.51,6.29c-0.25,3.63-2.61,5.76-6.28,5.52
		C302.66,229.04,300.89,226.62,300.68,222.93z"/>
	<path class="st0" d="M330.54,217.34c3.62,0.38,6,2.2,6.08,5.9c0.08,3.67-2.1,5.95-5.76,6.05c-3.67,0.1-5.93-2.1-6.05-5.76
		C324.69,219.81,327.01,217.91,330.54,217.34z"/>
	<path class="st0" d="M354.44,229.45c-3.64-0.76-5.91-2.75-5.63-6.45c0.27-3.63,2.62-5.77,6.29-5.51c3.63,0.25,5.75,2.61,5.52,6.28
		C360.39,227.46,357.89,229.14,354.44,229.45z"/>
	<path class="st0" d="M234.54,337.34c3.62,0.38,6,2.2,6.08,5.9c0.08,3.67-2.1,5.95-5.76,6.05c-3.67,0.1-5.93-2.1-6.05-5.76
		C228.69,339.81,231.01,337.91,234.54,337.34z"/>
	<path class="st0" d="M264.78,342.82c-0.34,3.93-2.14,6.33-5.83,6.46c-3.67,0.14-5.98-2.02-6.13-5.67c-0.15-3.67,2.02-5.94,5.67-6.14
		C262.24,337.27,264.03,339.71,264.78,342.82z"/>
	<path class="st0" d="M360.76,343.42c-0.5,3.57-2.37,5.91-6.08,5.87c-3.67-0.04-5.89-2.27-5.87-5.94c0.02-3.67,2.27-5.87,5.94-5.87
		C358.46,337.47,360.3,339.84,360.76,343.42z"/>
	<path class="st0" d="M378.22,337.31c3.92,0.39,6.31,2.2,6.4,5.9c0.09,3.67-2.08,5.96-5.73,6.07c-3.67,0.11-5.93-2.07-6.08-5.73
		C372.65,339.8,375.09,338.02,378.22,337.31z"/>
	<path class="st0" d="M379.17,217.35c3.46,0.72,5.73,2.71,5.45,6.41c-0.27,3.63-2.62,5.77-6.29,5.51c-3.63-0.25-5.76-2.61-5.52-6.28
		C373.05,219.33,375.48,217.56,379.17,217.35z"/>
	<path class="st0" d="M228.79,235.12c-0.49,3.81-2.34,6.17-6.05,6.17c-3.67,0-5.91-2.21-5.93-5.88c-0.02-3.67,2.21-5.88,5.87-5.94
		C226.43,229.42,228.19,231.85,228.79,235.12z"/>
	<path class="st0" d="M246.65,229.34c3.59,0.44,5.95,2.28,5.97,5.99c0.02,3.67-2.18,5.92-5.85,5.96c-3.67,0.04-5.91-2.18-5.97-5.84
		C240.75,231.73,243.09,229.85,246.65,229.34z"/>
	<path class="st0" d="M222.68,349.33c3.58,0.46,5.94,2.31,5.94,6.02c0,3.67-2.21,5.91-5.88,5.93c-3.67,0.02-5.9-2.21-5.94-5.87
		C216.77,351.7,219.11,349.84,222.68,349.33z"/>
	<path class="st0" d="M246.67,349.3c3.74,0.61,6.07,2.51,5.95,6.22c-0.12,3.66-2.38,5.85-6.05,5.76c-3.66-0.1-5.83-2.37-5.76-6.05
		C240.87,351.51,243.34,349.8,246.67,349.3z"/>
	<path class="st0" d="M348.76,355.5c-0.55,3.55-2.44,5.88-6.15,5.79c-3.66-0.09-5.87-2.34-5.8-6.01c0.07-3.66,2.33-5.85,6.01-5.8
		C346.52,349.52,348.35,351.9,348.76,355.5z"/>
	<path class="st0" d="M366.65,349.34c3.59,0.44,5.95,2.28,5.97,5.99c0.02,3.67-2.18,5.92-5.85,5.96c-3.67,0.04-5.91-2.18-5.97-5.84
		C360.75,351.73,363.09,349.85,366.65,349.34z"/>
	<path class="st0" d="M240.76,367.21c-0.38,3.62-2.2,6-5.9,6.08c-3.67,0.08-5.95-2.1-6.05-5.76c-0.1-3.67,2.1-5.93,5.76-6.05
		C238.28,361.36,240.18,363.68,240.76,367.21z"/>
	<path class="st0" d="M264.79,366.88c-0.39,3.92-2.2,6.31-5.9,6.4c-3.67,0.09-5.96-2.08-6.07-5.73c-0.11-3.67,2.07-5.93,5.73-6.08
		C262.29,361.31,264.07,363.75,264.79,366.88z"/>
	<path class="st0" d="M288.79,366.88c-0.39,3.92-2.2,6.31-5.9,6.4c-3.67,0.09-5.96-2.08-6.07-5.73c-0.11-3.67,2.07-5.93,5.73-6.08
		C286.29,361.31,288.07,363.75,288.79,366.88z"/>
	<path class="st0" d="M312.79,366.88c-0.39,3.92-2.2,6.31-5.9,6.4c-3.67,0.09-5.96-2.08-6.07-5.73c-0.11-3.67,2.07-5.93,5.73-6.08
		C310.29,361.31,312.07,363.75,312.79,366.88z"/>
	<path class="st0" d="M336.75,367.11c-0.32,3.65-2.12,6.04-5.81,6.18c-3.67,0.14-5.98-2.02-6.13-5.67c-0.15-3.67,2.02-5.96,5.67-6.14
		C334.2,361.3,336.12,363.61,336.75,367.11z"/>
	<path class="st0" d="M360.76,367.35c-0.46,3.58-2.31,5.94-6.02,5.94c-3.67,0-5.91-2.21-5.93-5.88c-0.02-3.67,2.21-5.9,5.87-5.94
		C358.4,361.43,360.26,363.78,360.76,367.35z"/>
	<path class="st0" d="M378.75,373.43c-3.58-0.46-5.94-2.31-5.94-6.02c0-3.67,2.21-5.91,5.88-5.93c3.67-0.02,5.9,2.21,5.94,5.87
		C384.66,371.06,382.31,372.93,378.75,373.43z"/>
	<path class="st0" d="M228.76,379.18c-0.36,3.62-2.17,6.01-5.87,6.11c-3.67,0.09-5.96-2.08-6.07-5.73c-0.11-3.67,2.07-5.94,5.73-6.08
		C226.26,373.34,228.16,375.66,228.76,379.18z"/>
	<path class="st0" d="M246.15,373.32c3.93,0.34,6.33,2.14,6.46,5.83c0.14,3.67-2.02,5.98-5.67,6.13c-3.67,0.15-5.94-2.02-6.14-5.67
		C240.6,375.85,243.04,374.07,246.15,373.32z"/>
	<path class="st0" d="M270.88,385.42c-3.62-0.38-6-2.2-6.08-5.9c-0.08-3.67,2.1-5.95,5.76-6.05c3.67-0.1,5.93,2.1,6.05,5.76
		C276.74,382.95,274.42,384.85,270.88,385.42z"/>
	<path class="st0" d="M294.72,385.46c-3.73-0.63-6.05-2.54-5.91-6.25c0.14-3.66,2.41-5.84,6.08-5.73c3.66,0.11,5.82,2.4,5.74,6.07
		C300.54,383.28,298.07,384.99,294.72,385.46z"/>
	<path class="st0" d="M324.76,379.43c-0.5,3.56-2.37,5.91-6.08,5.86c-3.67-0.04-5.89-2.27-5.87-5.94c0.02-3.66,2.27-5.87,5.94-5.87
		C322.46,373.48,324.3,375.84,324.76,379.43z"/>
	<path class="st0" d="M342.51,373.34c3.63,0.36,6.02,2.17,6.11,5.87c0.09,3.67-2.08,5.96-5.73,6.07c-3.67,0.11-5.94-2.07-6.08-5.73
		C336.67,375.84,338.99,373.93,342.51,373.34z"/>
	<path class="st0" d="M372.76,379.21c-0.38,3.62-2.2,6-5.9,6.08c-3.67,0.08-5.95-2.1-6.05-5.76c-0.1-3.67,2.1-5.93,5.76-6.05
		C370.28,373.36,372.18,375.68,372.76,379.21z"/>
</g>
</svg>
