<?xml version="1.0" encoding="utf-8"?>
<!-- Generator: Adobe Illustrator 26.1.0, SVG Export Plug-In . SVG Version: 6.00 Build 0)  -->
<svg version="1.1" id="Layer_1" xmlns="http://www.w3.org/2000/svg" xmlns:xlink="http://www.w3.org/1999/xlink" x="0px" y="0px"
	 viewBox="0 0 600 600" style="enable-background:new 0 0 600 600;" xml:space="preserve">
<style type="text/css">
	.st0{fill: red;}
</style>
<g>
	<path class="st0" d="M96.67,96.67c135.56,0,271.11,0,406.67,0c0,135.56,0,271.11,0,406.67c-135.56,0-271.11,0-406.67,0
		C96.67,367.78,96.67,232.22,96.67,96.67z M180.5,454.41c0.8-0.53,1.45-0.92,2.06-1.36c15.14-10.93,31.08-20.61,48.42-27.47
		c18.96-7.49,38.38-13.81,57.61-20.6c16.81-5.93,33.51-12.1,48-22.87c10.04-7.46,17.54-16.64,19.92-29.39
		c1.06-5.69,2.7-11.27,4.09-16.9c1.92-7.77,3.84-15.53,5.78-23.37c-1.85-0.71-3.42-1.1-4.74-1.88c-1.33-0.79-2.82-1.76-3.54-3.04
		c-1.18-2.1-2.66-2.39-4.84-2.26c-4.73,0.27-6.9-1.38-8.54-5.95c-0.47-1.31-0.9-2.64-1.33-3.87c-6.1,0.22-8.12-0.85-9.92-4.97
		c-1.16-2.66-1.67-4.81,1.91-6.26c1.51-0.61,3.4-2.51,3.49-3.93c0.18-2.8,2.01-3.42,3.79-4.42c5.67-3.18,6.32-5.36,3.34-11.21
		c-0.34-0.68-0.74-1.32-1.09-1.93c2.29-3.22,8.82-4.04,4.81-10.21c0.95,0,1.47,0.03,1.98,0c6.35-0.41,12.84-0.11,14.01-9.13
		c0.43-3.31,4.01-4.79,7.52-4.42c3.68,0.4,6.02,2.49,6.61,6.26c0.18,1.12,0.22,2.27,0.36,3.8c8.17-1.08,16.3-1.35,21.02-9.39
		c-13.41-19.26-35.6-23.33-55.43-10.19c-13.22,8.76-21.88,21.16-27.9,35.63c-0.89,2.13-2.03,4.47-3.74,5.88
		c-7.47,6.19-23.05,3.3-27.6-5.7c-4.84-9.59-10.65-18.94-17.44-27.25c-33.76-41.3-76.43-70.36-125.84-89.87
		c-2.68-1.06-5.44-1.9-8.17-2.85c-0.18,0.28-0.37,0.56-0.55,0.83c3.67,5.55,7.34,11.09,10.93,16.52c-5.93,0.59-11.8,1.18-17.67,1.77
		c-0.08,0.45-0.16,0.89-0.23,1.34c5.98,4.59,11.97,9.19,18.91,14.52c-10.82-2.1-20.22-1.54-29.74,3.41
		c3.64,2.15,6.86,4.11,10.14,5.98c3.33,1.9,6.71,3.71,10.78,5.94c-13.79-0.81-24.55,1.92-29.83,7.48c5.86,2.39,11.6,4.73,18.29,7.46
		c-11.04,0.91-19.54,4.81-27.26,12.24c6.77,1.45,12.89,2.77,19.71,4.23c-8.19,2.44-14.73,6.03-20.3,12.14
		c4.85,0.96,9.14,1.81,13.12,2.59c-4.68,4.16-9.28,8.27-13.89,12.37c0.25,0.33,0.5,0.66,0.75,0.99c4.68,0.33,9.35,0.67,14.83,1.06
		c-6.34,3.79-11.49,7.84-15.52,14.29c7.49,0,14.2,0,21.95,0c-7.98,4.13-13.84,8.92-17.97,15.95c7.77,0,15,0,23.28,0
		c-9.13,3.79-15.74,9.06-20.54,16.82c7.23,0,14.01,0,21.39,0c-8.29,5.35-14.25,12.12-17.87,21.68c6.69-1.5,12.82-2.87,19.7-4.42
		c-6.4,5.63-10.87,11.61-13.4,19.55c4.74-1.15,8.97-2.18,13-3.16c-2.54,5.72-4.99,11.26-7.45,16.79c0.39,0.29,0.79,0.58,1.18,0.88
		c4.43-1.76,8.85-3.52,14.17-5.63c-4.41,6.35-7.61,12.15-8.41,19.64c6.44-2.83,12.31-5.4,18.17-7.98c-4.05,6.6-7.22,13.1-8.09,21.43
		c7.26-3.58,13.92-6.87,21.44-10.59c-8.04,9.6-11.73,17.64-11.34,24.92c9.51-5.09,18.74-10.02,27.4-14.64
		c-0.95,6.45-1.97,13.31-2.99,20.17c0.58,0.28,1.17,0.55,1.75,0.83c8.59-7.78,17.17-15.55,25.66-23.24
		c0.43,4.13,0.87,8.34,1.42,13.65c2.39-3.4,3.95-5.82,5.73-8.06c1.71-2.17,3.54-4.28,5.52-6.21c1.98-1.91,4.21-3.56,5.82-4.89
		c-0.71,3.91-1.45,7.95-2.19,11.99c0.41,0.11,0.82,0.22,1.23,0.32c9.18-8.81,18.36-17.62,27.36-26.26
		c-2.06,6.6-4.09,13.35-6.35,20.04c-0.36,1.06-1.55,2.14-2.62,2.6c-14.24,6.21-28.39,12.68-42.86,18.32
		c-10.07,3.92-20.61,6.64-31.35,10.04c4.27,1.95,8.2,3.47,11.85,5.5c3.69,2.04,3.8,3.78,0.87,6.75c-2.7,2.73-5.52,5.35-8.29,8.02
		c6.46-0.47,12.37-3.71,18.42,0.65c-1.32,5.54-6.45,7.05-10.38,9.86c3.17-0.43,6.01-0.91,8.87-1.18c3.57-0.33,4.64,1.8,3.55,4.69
		C184.07,448.35,182.24,451.12,180.5,454.41z M344.69,293.66c0.57,1.91,1.05,3.67,1.61,5.41c1.04,3.25,3.34,5.66,6.66,4.93
		c3.54-0.78,4.95,0.62,6.87,3.11c3.52,4.57,7.52,4.52,11.14,0.19c5-5.97,10.04-11.91,14.65-18.17c5.93-8.06,10.75-16.77,13.37-25.34
		c-4.02-5.04-7.48-9.38-11.22-14.07c-2.57,0.38-6.4,0-9.14,1.54c-6.39,3.6-8.1,3.84-12.6-0.45c-4.62,1.41-8.8,2.69-12.69,3.88
		c-0.73,1.53-1.26,3.29-2.31,4.67c-1.07,1.41-2.64,2.45-3.91,3.58c3.62,8.8,3.26,9.86-4.58,14.94c-0.79,0.51-1.27,1.49-1.9,2.26
		c-1.45,1.78-2.6,4-4.42,5.24c-2.08,1.42-1.95,2.71-1.23,4.61C336.82,294.77,340.74,294.19,344.69,293.66z M499.48,257.57
		c-0.28-0.09-1.22-0.5-2.21-0.67c-30.78-5.22-61.57-10.44-92.37-15.58c-1.02-0.17-2.4,0.03-3.2,0.61
		c-3.49,2.57-6.83,5.35-11.07,8.72c1.77,2.36,4,5.51,6.43,8.5c2.04,2.51,4.74,2.56,7.85,2.23c13.5-1.43,27.01-3.2,40.55-3.66
		C463.65,257.1,481.89,257.57,499.48,257.57z"/>
	<path d="M180.5,454.41c1.75-3.3,3.58-6.07,4.72-9.1c1.09-2.89,0.01-5.02-3.55-4.69c-2.86,0.27-5.7,0.75-8.87,1.18
		c3.93-2.82,9.05-4.33,10.38-9.86c-6.05-4.37-11.96-1.12-18.42-0.65c2.77-2.67,5.59-5.28,8.29-8.02c2.94-2.97,2.82-4.71-0.87-6.75
		c-3.66-2.02-7.59-3.54-11.85-5.5c10.75-3.39,21.28-6.12,31.35-10.04c14.47-5.63,28.61-12.11,42.86-18.32
		c1.07-0.47,2.27-1.55,2.62-2.6c2.25-6.68,4.28-13.44,6.35-20.04c-8.99,8.63-18.18,17.44-27.36,26.26
		c-0.41-0.11-0.82-0.22-1.23-0.32c0.74-4.04,1.48-8.08,2.19-11.99c-1.6,1.33-3.84,2.97-5.82,4.89c-1.99,1.92-3.81,4.03-5.52,6.21
		c-1.77,2.25-3.33,4.67-5.73,8.06c-0.55-5.31-0.99-9.52-1.42-13.65c-8.49,7.69-17.08,15.46-25.66,23.24
		c-0.58-0.28-1.17-0.55-1.75-0.83c1.02-6.86,2.03-13.72,2.99-20.17c-8.66,4.63-17.88,9.56-27.4,14.64
		c-0.39-7.28,3.3-15.32,11.34-24.92c-7.52,3.71-14.18,7-21.44,10.59c0.86-8.32,4.04-14.83,8.09-21.43
		c-5.87,2.58-11.73,5.15-18.17,7.98c0.8-7.5,4-13.29,8.41-19.64c-5.31,2.11-9.74,3.87-14.17,5.63c-0.39-0.29-0.79-0.58-1.18-0.88
		c2.46-5.54,4.91-11.07,7.45-16.79c-4.02,0.98-8.26,2.01-13,3.16c2.53-7.94,7-13.92,13.4-19.55c-6.88,1.54-13.01,2.92-19.7,4.42
		c3.62-9.57,9.58-16.33,17.87-21.68c-7.38,0-14.16,0-21.39,0c4.8-7.77,11.41-13.03,20.54-16.82c-8.27,0-15.51,0-23.28,0
		c4.13-7.03,9.99-11.82,17.97-15.95c-7.75,0-14.46,0-21.95,0c4.03-6.44,9.18-10.49,15.52-14.29c-5.48-0.39-10.15-0.73-14.83-1.06
		c-0.25-0.33-0.5-0.66-0.75-0.99c4.61-4.1,9.22-8.21,13.89-12.37c-3.98-0.79-8.27-1.64-13.12-2.59c5.57-6.12,12.11-9.7,20.3-12.14
		c-6.82-1.47-12.94-2.78-19.71-4.23c7.72-7.43,16.22-11.33,27.26-12.24c-6.69-2.73-12.43-5.07-18.29-7.46
		c5.29-5.56,16.04-8.29,29.83-7.48c-4.06-2.24-7.45-4.05-10.78-5.94c-3.28-1.87-6.5-3.82-10.14-5.98
		c9.52-4.95,18.92-5.52,29.74-3.41c-6.94-5.33-12.92-9.92-18.91-14.52c0.08-0.45,0.16-0.89,0.23-1.34
		c5.87-0.59,11.75-1.18,17.67-1.77c-3.59-5.43-7.26-10.97-10.93-16.52c0.18-0.28,0.37-0.56,0.55-0.83c2.72,0.94,5.49,1.79,8.17,2.85
		c49.41,19.51,92.08,48.57,125.84,89.87c6.79,8.31,12.6,17.66,17.44,27.25c4.54,9,20.13,11.89,27.6,5.7
		c1.71-1.42,2.85-3.75,3.74-5.88c6.02-14.46,14.68-26.87,27.9-35.63c19.83-13.14,42.02-9.07,55.43,10.19
		c-4.72,8.03-12.85,8.31-21.02,9.39c-0.14-1.53-0.19-2.68-0.36-3.8c-0.59-3.77-2.93-5.86-6.61-6.26c-3.51-0.38-7.09,1.11-7.52,4.42
		c-1.16,9.01-7.65,8.72-14.01,9.13c-0.52,0.03-1.03,0-1.98,0c4.02,6.17-2.52,6.99-4.81,10.21c0.34,0.61,0.74,1.25,1.09,1.93
		c2.98,5.86,2.33,8.04-3.34,11.21c-1.78,1-3.62,1.62-3.79,4.42c-0.09,1.42-1.98,3.32-3.49,3.93c-3.58,1.44-3.07,3.6-1.91,6.26
		c1.8,4.12,3.82,5.19,9.92,4.97c0.42,1.23,0.86,2.56,1.33,3.87c1.63,4.58,3.81,6.23,8.54,5.95c2.18-0.13,3.66,0.16,4.84,2.26
		c0.72,1.28,2.21,2.25,3.54,3.04c1.33,0.79,2.89,1.17,4.74,1.88c-1.94,7.84-3.87,15.6-5.78,23.37c-1.39,5.63-3.02,11.21-4.09,16.9
		c-2.38,12.75-9.88,21.93-19.92,29.39c-14.49,10.77-31.19,16.94-48,22.87c-19.23,6.79-38.66,13.1-57.61,20.6
		c-17.34,6.85-33.28,16.54-48.42,27.47C181.94,453.5,181.29,453.89,180.5,454.41z M224.02,243.12c-4.59-13-65.12-47.08-80.73-45.2
		C173.57,208.27,201.48,220.95,224.02,243.12z M210.19,283.57c-6.2-17.35-68.23-45.68-90.85-42.3
		C154,245.15,183.87,259.43,210.19,283.57z M214.12,270.66c-4.65-14.32-67.32-44.69-87.22-42.81
		C159.04,235.51,189.13,247.08,214.12,270.66z M123.38,256.55c29.62,2.91,56.05,13.3,78.31,33.52
		C196.48,275.54,142.31,252.5,123.38,256.55z M219.28,257.47c-7.61-13.64-60.03-43.67-77.1-44.06
		C171.6,223,196.81,237.82,219.28,257.47z M154.63,184.36c24.76,12.33,50.27,23.46,70.06,43.76
		C221.36,217.95,168.83,185.22,154.63,184.36z M161.89,169.94c21.62,12.26,42.48,25.8,61.85,41.58
		C220.01,204.18,173.79,173.32,161.89,169.94z M188.98,293.2c-6.78-12.39-47.98-26.41-64.07-22.93
		C148.2,272.44,170.36,277.79,188.98,293.2z M133.67,333.4c16.11-6.67,33.05-7.41,50.01-8.04
		C166.28,323.71,149.42,325.47,133.67,333.4z M139.76,345.92c16.14-6.69,32.76-11.49,50.35-12.42
		C172.18,333.1,155.36,337.06,139.76,345.92z M150.99,356.33c15-8.28,31.52-11.75,47.76-16.03
		C181.87,342.93,165.22,346.25,150.99,356.33z M178.32,301.01c-4.69-10.9-32.75-17.41-43.09-15.14
		C151.02,287.46,165.99,290.36,178.32,301.01z M214.74,356.78c-9.89-1.8-30,9.42-35.92,20.31
		C189.64,366.81,200.59,358.99,214.74,356.78z M132.17,317.8c5.47-0.99,11.6-2.9,17.76-2.97c6.14-0.08,12.31,1.69,19.06,2.73
		C159.06,310.93,139.9,311.51,132.17,317.8z M132.25,301.96c6.4,0,12.9-0.73,19.16,0.21c6.14,0.91,12.03,3.51,18.03,5.37
		C157.88,300.2,145.58,297.51,132.25,301.96z M171.75,360.49c10.46-3.8,21.47-7.79,32.47-11.78
		C192.19,349.98,181.15,353.87,171.75,360.49z M220.69,362.92c-5.45-0.46-17.36,6.9-18.55,10.68
		C207.85,370.31,214.26,366.61,220.69,362.92z"/>
	<path d="M344.69,293.66c-3.95,0.52-7.87,1.11-9.69-3.66c-0.72-1.9-0.85-3.19,1.23-4.61c1.82-1.24,2.97-3.46,4.42-5.24
		c0.62-0.77,1.11-1.75,1.9-2.26c7.84-5.08,8.21-6.14,4.58-14.94c1.28-1.14,2.84-2.17,3.91-3.58c1.04-1.38,1.58-3.14,2.31-4.67
		c3.9-1.19,8.07-2.47,12.69-3.88c4.51,4.3,6.21,4.06,12.6,0.45c2.74-1.54,6.56-1.16,9.14-1.54c3.74,4.69,7.2,9.03,11.22,14.07
		c-2.62,8.57-7.44,17.28-13.37,25.34c-4.61,6.26-9.66,12.2-14.65,18.17c-3.63,4.33-7.62,4.38-11.14-0.19
		c-1.92-2.49-3.33-3.89-6.87-3.11c-3.32,0.73-5.63-1.67-6.66-4.93C345.74,297.33,345.25,295.57,344.69,293.66z"/>
	<path d="M499.48,257.57c-17.6,0-35.83-0.47-54.03,0.15c-13.54,0.46-27.05,2.23-40.55,3.66c-3.11,0.33-5.81,0.28-7.85-2.23
		c-2.43-2.99-4.66-6.14-6.43-8.5c4.25-3.38,7.58-6.16,11.07-8.72c0.8-0.59,2.18-0.79,3.2-0.61c30.8,5.15,61.58,10.36,92.37,15.58
		C498.26,257.07,499.21,257.48,499.48,257.57z"/>
</g>
</svg>
