<?xml version="1.0" encoding="utf-8"?>
<!-- Generator: Adobe Illustrator 26.1.0, SVG Export Plug-In . SVG Version: 6.00 Build 0)  -->
<svg version="1.1" id="Layer_1" xmlns="http://www.w3.org/2000/svg" xmlns:xlink="http://www.w3.org/1999/xlink" x="0px" y="0px"
	 viewBox="0 0 600 600" style="enable-background:new 0 0 600 600;" xml:space="preserve">
<style type="text/css">
	.st0{fill: #FFFFFF}
</style>
<g>
	<path class="st0" d="M480.34,300.68c-12.29,15.91-24.3,31.01-35.78,46.51c-5.64,7.61-2.22,13.71,7.7,15.11c3.59,0.51,3.59,0.51,3.5,4.28
		c-8.27,0-16.57,0.17-24.86-0.08c-3.42-0.1-4.95,0.99-6,4.29c-3.01,9.5-6.53,18.84-9.62,28.31c-0.8,2.46-1.88,3.46-4.52,3.45
		c-35.5-0.08-70.99-0.06-106.49-0.08c-0.48,0-0.97-0.17-3.09-0.58c1.62-1.49,2.46-2.86,3.58-3.14c1.9-0.49,3.98-0.16,5.96-0.4
		c7.19-0.86,10.67-4.12,11.77-11.25c0.43-2.78,0.55-5.63,0.55-8.45c0.04-31.83,0.04-63.66-0.01-95.49
		c-0.01-3.32-0.19-6.67-0.66-9.95c-1.14-8.06-3.23-10.08-11.39-11.27c-2.13-0.31-4.34-0.14-6.45-0.52
		c-0.84-0.15-1.53-1.18-2.29-1.81c0.72-0.69,1.36-1.51,2.2-2c0.5-0.29,1.3-0.07,1.97-0.07c34.66,0,69.32,0,103.99,0.01
		c0.98,0,1.95,0.12,3.54,0.22c0.54,10.35,1.08,20.58,1.62,30.82c-0.37,0.4-0.74,0.79-1.11,1.19c-1.17-1.02-3.14-1.87-3.39-3.08
		c-3.66-17.55-9.66-21.34-28.6-21.24c-12.65,0.06-25.31,0.01-38.48,0.01c-0.19,1.62-0.49,3.02-0.49,4.42
		c-0.03,16.16,0.01,32.33-0.04,48.49c-0.01,2.75,0.04,4.84,3.84,4.74c10.99-0.3,22,0.03,32.98-0.52c11.51-0.58,15-4.04,17.33-15.44
		c0.17-0.81,0.09-1.76,0.5-2.43c0.64-1.06,1.58-1.93,2.39-2.88c0.54,1.02,1.54,2.03,1.56,3.06c0.13,7.5,0.07,15,0.07,22.5
		c0,8.14,0,16.29,0,24.43c-0.4,0.31-0.8,0.62-1.2,0.93c-0.99-0.92-2.45-1.67-2.86-2.79c-0.84-2.32-1.16-4.84-1.61-7.29
		c-1.24-6.63-5.7-10.76-11.88-11.06c-13.4-0.65-26.86-0.2-40.59-0.2c-0.05,0.18-0.38,0.8-0.38,1.42c0.1,17.99,0.11,35.98,0.43,53.97
		c0.1,5.49,2.3,7.56,7.76,7.62c13.32,0.14,26.67,0.33,39.97-0.32c4.39-0.21,9.13-2.21,12.89-4.65c8.04-5.22,12.31-13.64,17.47-22.71
		c-6.84,0-12.7,0-18.56,0c-0.29-0.53-0.57-1.05-0.86-1.58c0.98-0.95,1.82-2.5,2.95-2.74c9.96-2.13,18.67-6.83,25.13-14.44
		c15.29-18,29.99-36.49,45.32-55.27c-13.91-19.5-27.3-38.75-41.24-57.6c-6.03-8.15-14.45-13.17-24.9-14.11
		c-2.4-0.22-4.91-0.6-3.17-4.59c3.8,0,7.77,0,11.74,0c17.66,0,35.33-0.04,52.99,0.08c1.3,0.01,2.59,1.15,3.89,1.77
		c-1.13,0.88-2.16,1.97-3.42,2.58c-1,0.48-2.29,0.31-3.43,0.54c-7.32,1.44-10.52,6.76-6.72,13.07c8.31,13.8,17.34,27.17,26.47,41.34
		c5.79-7.3,11.14-13.99,16.43-20.72c4.53-5.76,9.14-11.46,13.46-17.37c6.99-9.59,4.42-15.4-7.28-16.94c-4.58-0.6-4.58-0.6-4.33-4.14
		c17.27,0,34.55,0,51.84,0c0.36,0.35,0.72,0.7,1.07,1.05c-1.11,1.11-2.12,3.05-3.35,3.19c-9.57,1.12-16.97,6.18-22.78,13.21
		c-13.35,16.16-26.23,32.71-39.76,49.68c15.81,22.67,31.4,45.22,47.25,67.6c4.51,6.37,11.06,9.89,18.88,11.07
		c1.17,0.18,2.14,1.64,3.21,2.51c-0.27,0.44-0.55,0.87-0.82,1.31c-21.09,0-42.19,0-63.28,0c-0.34-0.32-0.67-0.64-1.01-0.97
		c1.03-0.95,1.98-2,3.11-2.81c0.46-0.33,1.3-0.1,1.96-0.16c9.29-0.95,12.83-7.52,7.89-15.47c-6.32-10.17-13.1-20.06-19.71-30.05
		C487.7,311.66,484.26,306.56,480.34,300.68z"/>
	<path class="st0" d="M251.91,225.52c-8.42,0-16.27-0.37-24.06,0.08c-13.39,0.78-20.33,7.31-22.87,20.68c-0.93,4.9-0.93,4.9-4.95,4.49
		c0.6-11.38,1.2-22.77,1.81-34.35c41.31,0,82.06,0,123.28,0c0.59,11.63,1.18,23.02,1.76,34.41c-0.45,0.35-0.91,0.7-1.36,1.05
		c-1.13-1.14-3.09-2.18-3.25-3.44c-2.07-16.04-12.06-23.25-28.41-23.04c-6.46,0.08-12.92,0.01-19.47,0.01
		c-0.26,1.05-0.55,1.67-0.55,2.28c0.01,39.32-0.12,78.64,0.16,117.96c0.1,13.87,3.9,17.14,17.73,17.53c0.83,0.02,1.66,0.1,2.65,0.17
		c1.31,2.57,0.9,3.91-2.35,3.9c-19.33-0.04-38.66,0.01-57.98-0.14c-1.13-0.01-2.24-1.56-3.37-2.4c0.28-0.37,0.56-0.74,0.84-1.12
		c3.44-0.41,6.93-0.6,10.31-1.3c5.17-1.07,8.69-4.12,9.5-9.58c0.44-2.95,0.8-5.95,0.81-8.92c0.06-37.99,0.04-75.98,0.03-113.97
		C252.17,228.55,252.02,227.26,251.91,225.52z"/>
	<path class="st0" d="M40.52,217.12c13.13,0,26.27,0,39.4,0c8.16,0,16.32-0.04,24.48,0.1c1.01,0.02,1.99,1.08,2.99,1.66
		c-0.99,0.77-1.9,2.03-2.99,2.22c-3.59,0.62-7.33,0.5-10.86,1.31c-6.75,1.55-10.36,5.69-10.46,12.68c-0.4,29.63-0.6,59.27-0.74,88.9
		c-0.04,7.98,0.17,15.98,0.7,23.94c0.41,6.13,3.04,9.06,9.12,9.09c14.63,0.07,29.31,0.16,43.87-1.02c9.9-0.8,16.71-7.71,21.71-16.01
		c2.31-3.83,4.02-8.02,6.24-11.91c0.54-0.95,2.02-1.35,3.07-2.01c0.17,1.14,0.74,2.4,0.44,3.39c-3.48,11.43-6.98,22.87-10.81,34.19
		c-0.5,1.47-2.89,3.26-4.41,3.27C116.14,367.12,80,367.09,43.86,367c-1.33,0-2.65-1.14-3.97-1.74c1.35-0.72,2.67-1.98,4.05-2.06
		c12.72-0.76,17.09-4.92,17.13-17.62c0.12-35.47,0.11-70.95,0-106.42c-0.04-11.61-2.73-18.26-17.4-17.95
		c-0.5,0.01-1.16,0.19-1.47-0.05c-1.01-0.8-1.89-1.75-2.81-2.65C39.77,218.04,40.15,217.58,40.52,217.12z"/>
	<path class="st0" d="M180.3,334.2c2.91-0.75,4.63-1.2,6.35-1.64c5.74-1.49,7.95-4.31,6.16-9.76c-2.64-8.03-6-15.82-9.3-23.62
		c-0.4-0.94-2.29-1.76-3.49-1.78c-13.16-0.13-26.33-0.14-39.49,0.02c-1.29,0.02-3.23,1.06-3.72,2.15
		c-3.14,6.96-6.21,13.97-8.82,21.14c-2.65,7.3-0.66,10.28,7.07,11.96c1.83,0.4,3.59,1.08,5.38,1.64c-0.16,0.58-0.33,1.16-0.49,1.74
		c-12.03,0-24.06,0-37.76,0c2.03-1.75,2.88-3.11,3.89-3.25c6.23-0.85,9.69-5.03,12.04-10.16c5.8-12.69,11.39-25.48,16.92-38.29
		c9.08-21.05,18.02-42.17,27.11-63.21c0.64-1.49,2.11-2.62,3.19-3.92c1.07,1.3,2.51,2.45,3.14,3.94
		c12.92,30.61,25.75,61.26,38.6,91.9c0.96,2.3,1.98,4.57,3.01,6.84c3.02,6.64,7.1,12.04,14.97,13.29c0.82,0.13,1.49,1.26,2.23,1.93
		c-0.62,0.41-1.23,1.17-1.85,1.17c-14.16,0.05-28.32,0.03-42.49-0.06C182.38,336.21,181.83,335.4,180.3,334.2z M180.4,290.93
		c-6.64-15.83-13.02-31.05-19.79-47.18c-6.91,16.12-13.45,31.37-20.23,47.18C154.14,290.93,166.75,290.93,180.4,290.93z"/>
</g>
</svg>
