<?xml version="1.0" encoding="utf-8"?>
<!-- Generator: Adobe Illustrator 26.1.0, SVG Export Plug-In . SVG Version: 6.00 Build 0)  -->
<svg version="1.1" id="Layer_1" xmlns="http://www.w3.org/2000/svg" xmlns:xlink="http://www.w3.org/1999/xlink" x="0px" y="0px"
	 viewBox="0 0 834.67 1018.67" style="enable-background:new 0 0 834.67 1018.67;" xml:space="preserve">
<style type="text/css">
	.st0{fill:#042B16;}
	.st1{fill:#084422;}
	.st2{fill:#006837;}
	.st3{fill:#009245;}
	.st4{fill:#22B573;}
	.st5{fill:#39B54A;}
	.st6{fill:url(#SVGID_1_);}
	.st7{fill:url(#SVGID_00000155104179609346773060000006527445072784441017_);}
	.st8{fill:url(#SVGID_00000090291784120210397210000004950654976921746354_);}
	.st9{fill:#83150F;}
	.st10{fill:#04542C;}
	.st11{fill:#053A1E;}
	.st12{fill:#0D6330;}
	.st13{fill:url(#SVGID_00000119798297862691379200000012504800508281093808_);}
	.st14{fill:url(#SVGID_00000087377939954848013770000005243493566521810821_);}
</style>
<path class="st0" d="M505.88,154.61c-8.45,1.38-24.56-8.25-24.36-28.88s11.59-56.98,26.72-67.59s49.9-28.1,57.17-41.65
	c2.55,30.45,2.55,36.54,6.88,51.48c4.32,14.93,18.27,57.17,1.18,72.5S532.41,178.77,505.88,154.61z"/>
<path class="st1" d="M503.1,187.91c-7.05-1.57-16.78-13.98-10.35-29.76c6.43-15.78,26.44-40.13,41.55-43.57
	c15.11-3.44,47.75-6.03,57.58-14.18c-7.26,24.17-9.11,28.85-10.26,41.66c-1.15,12.81-3.04,49.58-21.13,56.02
	C542.4,204.53,516.58,214.71,503.1,187.91z"/>
<path class="st2" d="M470.44,243.73c0,0-8.38-7.36-7.6-18.1c0.79-10.74,8.52-18.86,14.08-36.68s1.9-65.36,37.26-59.66
	c35.37,5.7,86.45,16.18,81.73,41.33c-4.72,25.15,12.95,66.8,25.6,114.74s94.12,201.19,68.97,328.51
	c-25.15,127.32-14.67,259,9.43,317.07c-8.91-65.58-25.15-209.66,0-305.54c25.15-95.88-7.06-187.57-32.35-247.82
	s-61.96-155.61-60.39-191.24c1.57-35.63-2.1-36.15-8.38-42.44c-6.29-6.29-71.78-28.29-89.59-26.72c-17.81,1.57-31.96,11-35.1,25.67
	s-0.82,29.34-6.17,42.96c-5.35,13.62-11.9,33.53-21.2,37.2c-9.3,3.67-18.73,20.68-18.73,20.68L470.44,243.73z"/>
<path class="st2" d="M693.12,275.66c0,0-62.28-2.55-74.07-27.9c-0.2,10.61,8.45,29.27,8.45,29.27s-0.79-14.34,61.1,4.72
	S693.12,275.66,693.12,275.66z"/>
<path class="st2" d="M622.55,152.93c0,0-0.49-8.81-8.64-12.55c-8.15-3.73-14.54-1.47-14.54-1.47s-3.91,2.45-9.16,0.25
	c-5.25-2.2-3.32,2.01-3.32,2.01l17.87,9.77c0,0-6.04-8.79-0.22-8.3c5.82,0.49,9.16,2.55,10.14,5.3c0.98,2.75,1.03,7.76,4.4,9.92
	C622.45,160.04,622.55,152.93,622.55,152.93z"/>
<path class="st2" d="M530.63,175.99c0,0-0.65-10.46-10.09-14.14c-9.43-3.68-17.83,4.58-26.99-1.19c-9.16-5.76-3.54-22.66-3.54-22.66
	l-8.25,1.05l-4.85,26.85l1.64,0.92c0,0,1.5-4.54,7.4-2.07s10.35,4.04,17.81,4.04s19.25,1.83,21.61,13.49
	C532.86,191.45,530.63,175.99,530.63,175.99z"/>
<path class="st2" d="M489.9,162.01c0,0-2.89-1.15-2.7,4.41c0.2,5.57,2.7,12.12,2.7,12.12s2.74,9.76-2.3,7.2
	c-5.04-2.55-2.88-6.03-2.88-5.83c0,0.2,0.98-18.22-3.8-13.89c-4.78,4.33,2.16-9.1,2.16-9.1L489.9,162.01z"/>
<path class="st2" d="M494.83,153.65c0,0-1.12,2.24-1.56,3.28c-2.06-0.67-2.97-0.74-3.38-0.36c-2.37-1.15-1.58-7.63-1.58-7.63
	s-0.11,2.51,2.84,3.44C494.1,153.31,494.83,153.65,494.83,153.65z"/>
<path class="st2" d="M471.63,167.72c0,0-0.14,2.56-2.7,2.3c-2.55-0.26-10.74-2.55-22.4-2.03c-11.66,0.52-23.45,6.52-23.45,6.52
	l-5.13,4.1c0,0,2.18,2.87,2.51,2.61c0.33-0.26,5.5-4.13,5.5-4.13s9.69-6.42,21.48-6.42s19.47,1.4,20.83,2.37
	c1.37,0.97,2.55,6.67,2.55,6.67l3.86-7.01L471.63,167.72z"/>
<path class="st2" d="M481.52,129.08c0,0,9.52-8.88,5.81-8.99c-3.72-0.11,1.52-4.43,1.52-4.43l0.61,0.63c0,0,0.25-0.11,1.33,1.11
	c1.08,1.21,2.6,2.66,6.93,2.03s-3.82,4.94-3.82,4.94L481.52,129.08z"/>
<path class="st2" d="M684.95,474.93c0,0-0.8-2.79-1.79-2.59s-4.32,3.93-4.91,7.96c-0.59,4.03-5.85,14.95-13.34,17.45
	s-12.5-2.71-12.5-2.71l4.22-4.32c0,0,7.17,1.08,10.51-1.28c3.34-2.36,7.56-10.22,9.23-15.42c1.67-5.21,4.48-9.54,3.07-21.91
	C689.84,456.42,684.95,474.93,684.95,474.93z"/>
<path class="st2" d="M733.45,616.27c0,0-17.77-7.68-20.42-17.41c-2.65-9.73-4.45-28.98-4.45-28.98l-3.31-2.45
	c0,0-3.44,31.49-1.38,29.96c2.06-1.53,3.24-1.38,4.72,2.46s10.12,16.41,26.52,24.95c16.41,8.55,6.97-2.75,6.97-2.75L733.45,616.27z"
	/>
<path class="st2" d="M183,86.33c-6.91,23.91-20.03,52.22-20.03,52.22s-22.95,47.57-14.32,91.66c8.62,44.09,16.79,45.1,16.79,45.1
	l15.27,1.42c0,0,26.74-41.91,25.66-88.74C205.11,134.21,190.91,121.24,183,86.33z"/>
<path class="st2" d="M228.2,125.48c-8.38,20.4-23.22,44.08-23.22,44.08s-25.83,39.72-20.04,79.35s13.84,41.3,13.84,41.3l15.09,2.7
	c0,0,29.25-34.37,31.13-75.71C247.16,169.73,233.86,156.97,228.2,125.48z"/>
<path class="st2" d="M224.45,70.75c-5.26,27.26-18.34,60.35-18.34,60.35s-23.23,55.77-3.27,102.44s31.48,46.41,31.48,46.41
	l21.45-1.01c0,0,29.53-50.22,19.53-101.15C263.82,119.29,241.76,107.52,224.45,70.75z"/>
<path class="st2" d="M50.91,190.23c14.59,16.54,29.27,40.32,29.27,40.32s24.2,40.73,62.31,53.06c38.11,12.33,43.16,5.84,43.16,5.84
	l9.09-12.35c0,0-17.89-41.43-54.14-61.39C98.98,192.78,81.65,199.07,50.91,190.23z"/>
<path class="st3" d="M203.43,54.57c-4.67,28.72-15.11,63.26-15.11,63.26s-18.44,58.15-5.78,108.78
	c12.67,50.64,20.89,50.93,20.89,50.93h15.33c0,0,22.75-51.93,17.33-106.6C229.87,108.17,214.54,94.54,203.43,54.57z"/>
<path class="st3" d="M132.03,113.92c-2.34,21.93-9.97,48.81-9.97,48.81s-13.69,45.35,2.95,81.79s24.84,35.78,24.84,35.78l15.25-1.63
	c0,0,18.47-41.18,8.71-81.39C162.61,151.09,146.27,142.56,132.03,113.92z"/>
<path class="st4" d="M114.46,123.12c-0.78,22.04-6.47,49.4-6.47,49.4s-10.43,46.21,8.76,81.37s27.32,33.92,27.32,33.92l15.09-2.71
	c0,0,15.5-42.39,2.9-81.8C147.6,158.02,130.7,150.68,114.46,123.12z"/>
<path class="st4" d="M315.33,124.49c-11.29,18.94-29.45,40.18-29.45,40.18s-31.39,35.48-31.5,75.54
	c-0.11,40.06,7.62,42.89,7.62,42.89l14.53,4.89c0,0,33.99-29.69,41.93-70.3C327.58,171.04,316.3,156.47,315.33,124.49z"/>
<path class="st5" d="M122.3,173.65c-5.67,1.44-12.56,5.56-13,9.33c-0.44,3.78-2.67,7.11,1,7.78c3.67,0.67,9.11-3,12-3.89
	c2.89-0.89,8.67-2.22,12-2.78c3.33-0.56,8.67-1.56,9.44-3.44c0.78-1.89,2.56-3.44,0-5.89c-2.56-2.44-4.13-4.78-7.67-4.56
	C132.53,170.43,122.3,173.65,122.3,173.65z"/>
<path class="st5" d="M120.64,218.32c-4.78,1.78-8.67,1.89-8,5.56c0.67,3.67,0,8.33,1.44,9.67s8.89,1.78,11.78,0.89
	c2.89-0.89,6.54-5.33,10.21-7.89c3.67-2.56,2.33-3.89,9-4.33c6.67-0.44,8.12,0.67,10-1.11s4.89-5.89,3.89-8.44s-1.11-4.67-6.33-4.22
	c-5.22,0.44-6.56-0.44-9.56,1.22s-3.44,3.11-6.56,4.11s-7.44,1.56-8.67,1.67C126.64,215.54,120.64,218.32,120.64,218.32z"/>
<path class="st5" d="M129.08,256.54c6.82-4.12,7.67-5.44,12.67-6.11c5-0.67,7.67-0.33,10-1.89c2.33-1.56,3.78-11.22,4.89-3.33
	s0.11,12.22,0,13c-0.11,0.78-4.89,3.11-8.11,3.56c-3.22,0.44-6.78-0.44-10.78,0c-4,0.44-3.89,0.56-6.78,0.78
	S125.72,258.57,129.08,256.54z"/>
<path class="st5" d="M289.75,176.32c12.19-2.56,13.19-2.78,16.26-0.97c3.07,1.81,3.07-0.53,5.41,2.81s8,6.67,5,10.67
	s-2.5,4.67-7.17,4.67c-4.67,0-7.56-0.28-9.45-2.64s-2.55-4.36-5.72-5.69c-3.17-1.33-6.83-3.57-8.17-3.62
	S281.94,177.95,289.75,176.32z"/>
<path class="st5" d="M269.92,215.15c-1.67-0.33-1.94-2.77-2.39,0.78s-6.28,0.55-0.95,7.55c5.33,7,7,7.14,12.5,7.99
	c5.5,0.85,9.33,3.33,13,3.42c3.67,0.09,0.33-1.43,5.5,0c5.17,1.43,1.73,4.26,6.45,1.76s9.55-6.17,6.22-10.33
	c-3.33-4.17-2.68-5.83-9.5-6.17c-6.83-0.33-11.83-1.33-14-1.33C284.58,218.82,269.92,215.15,269.92,215.15z"/>
<path class="st5" d="M265.42,255.32c-3.17-1.83-2.17-4.33-5-2c-2.83,2.33-3,1.48-4,5.5s3.8,9.35,7.15,10.09
	c3.35,0.74,10.02-0.08,15.52,0s8.83,0.58,10-0.76c1.17-1.33,6.33-7.17,1.67-9c-4.67-1.83-10.72-3-16.27-2.5
	S265.42,255.32,265.42,255.32z"/>
<path class="st4" d="M209.73,129.09c-5,0-9.18,0.2-13.51,0.85c-4.33,0.65-6.33,1.82-7.49,5.98c-1.17,4.17-4.67,9.5,2.5,10
	s13.5-1.17,19.33-0.5c5.83,0.67,8.67,4.67,12,2c3.33-2.67,7.33-4.67,4.83-8c-2.5-3.33-3.5-6.5-6.83-7
	C217.23,131.93,209.73,129.09,209.73,129.09z"/>
<path class="st4" d="M203.07,171.94c-4.33,1-12.81,1.83-15.99,5.5c-3.18,3.67-2.16,10.25,0,10.87s8.66,1.37,14.16,0
	s8.17-3.04,12.5-2.54c4.33,0.5,7.33,1.83,10.17,0c2.83-1.83,5.5-3.5,2.5-6.83c-3-3.33-6-4.94-11.5-5.05S203.07,171.94,203.07,171.94
	z"/>
<path class="st4" d="M188.75,213.42c-7.38,2.13-5.83,1.67-5.5,5.59c0.33,3.91-1.95,7,3.53,7.79c5.47,0.79,9.95,0.29,16.63-1.21
	s5.51-2.5,11.26-1.33c5.75,1.17,8.48,3.83,12.03,1.33s8.88-6.83,3.88-9C225.58,214.42,196.25,211.26,188.75,213.42z"/>
<path class="st4" d="M139.33,157.11c2.42-1.35,3.41-2.57,5.75-2.57s6.45-1.55,7.89,1.22c1.44,2.78,2.89,3.78,1.56,5.55
	c-1.33,1.78-2.44,3-4.33,3.22c-1.89,0.22-5.52,0.35-5.52,0.35l-5.81-1.13L139.33,157.11z"/>
<linearGradient id="SVGID_1_" gradientUnits="userSpaceOnUse" x1="-186.63" y1="321.5234" x2="-1.483" y2="321.5234" gradientTransform="matrix(-1 0 0 1 353.3073 0)">
	<stop  offset="0.027" style="stop-color:#F5B04F"/>
	<stop  offset="0.1647" style="stop-color:#E69F28"/>
	<stop  offset="0.2961" style="stop-color:#DA9007"/>
	<stop  offset="0.4489" style="stop-color:#ED9A29"/>
	<stop  offset="0.6304" style="stop-color:#EF9F31"/>
	<stop  offset="0.9194" style="stop-color:#F4AC49"/>
	<stop  offset="0.9866" style="stop-color:#F5B04F"/>
</linearGradient>
<path class="st6" d="M447.36,243.77c19.62-0.04,61.14-0.12,81.93-0.07c6.52,0.01,11.5,5.82,10.52,12.27l-20.36,134.33
	c-0.79,5.22-5.27,9.07-10.55,9.07h-50.79h-21.51h-50.79c-5.28,0-9.76-3.86-10.55-9.07l-20.36-134.33c-0.98-6.45,4-12.25,10.52-12.27
	C386.23,243.65,427.74,243.73,447.36,243.77z"/>
<linearGradient id="SVGID_00000070093420896699337010000000420047727217334406_" gradientUnits="userSpaceOnUse" x1="20.6392" y1="339.4769" x2="262.1939" y2="339.4769" gradientTransform="matrix(-1 0 0 1 353.3073 0)">
	<stop  offset="0.027" style="stop-color:#C73931"/>
	<stop  offset="0.3141" style="stop-color:#A8201A"/>
	<stop  offset="0.6162" style="stop-color:#A8201A"/>
	<stop  offset="0.7469" style="stop-color:#9F1D17"/>
	<stop  offset="0.9549" style="stop-color:#881711"/>
	<stop  offset="0.9959" style="stop-color:#83150F"/>
</linearGradient>
<path style="fill:url(#SVGID_00000070093420896699337010000000420047727217334406_);" d="M211.89,279.66
	c25.6-0.03,79.76-0.09,106.89-0.06c8.51,0.01,15,4.48,13.72,9.44l-26.56,103.34c-1.03,4.01-6.88,6.98-13.76,6.98h-66.26h-28.06
	H131.6c-6.88,0-12.73-2.97-13.76-6.98L91.27,289.04c-1.27-4.96,5.22-9.43,13.72-9.44C132.13,279.57,186.29,279.63,211.89,279.66z"/>
<linearGradient id="SVGID_00000178921624842065161040000003595819240926253964_" gradientUnits="userSpaceOnUse" x1="-193.3689" y1="254.3677" x2="6.5129" y2="254.3677" gradientTransform="matrix(-1 0 0 1 353.3073 0)">
	<stop  offset="0" style="stop-color:#DA9007"/>
	<stop  offset="1" style="stop-color:#ED9A29"/>
</linearGradient>
<path style="fill:url(#SVGID_00000178921624842065161040000003595819240926253964_);" d="M352.93,265.05h187.61
	c3.39,0,6.14-2.75,6.14-6.14v-9.1c0-3.39-2.75-6.14-6.14-6.14H352.93c-3.39,0-6.14,2.75-6.14,6.14v9.1
	C346.79,262.3,349.54,265.05,352.93,265.05z"/>
<path class="st9" d="M89.26,290.27h245.9c3.39,0,6.14-2.75,6.14-6.14v-9.1c0-3.39-2.75-6.14-6.14-6.14H89.26
	c-3.39,0-6.14,2.75-6.14,6.14v9.1C83.12,287.53,85.87,290.27,89.26,290.27z"/>
<path class="st10" d="M700.76,928.09c0,0-2.36-16.33,12.05-18.95c14.41-2.62,26.2,10.41,29.86,26.03s-10.22,47.58-9.43,60.68
	c-9.43-8.12-26.98-6.81-37.99-9.69s-30.35-24.95-27.24-43.91C671.12,923.28,688.19,917.18,700.76,928.09z"/>
<path class="st10" d="M738.49,623.53c0,0-12.19-11.12-2.73-22.29c9.47-11.17,26.84-8.6,39.6,1.14s22.33,43.24,31.25,52.86
	c-12.44-0.28-25.17,11.88-35.5,16.64c-10.33,4.76-39.29,0-48.93-16.62S721.85,623.08,738.49,623.53z"/>
<path class="st10" d="M654.79,494.75c0,0,13.07-10.07,4.57-21.99s-26.04-10.8-39.56-2.15c-13.52,8.65-25.84,41.24-35.54,50.08
	c12.42,0.75,24.09,13.92,33.99,19.53s39.15,3.26,50.14-12.49C679.4,511.97,671.42,495.69,654.79,494.75z"/>
<path class="st10" d="M708.13,296.45c-28.45-18.81-22.01-31.38-7.11-40.05c14.9-8.66,40.71-4.31,57.49,18.63
	s30.24,39.93,34.27,54.59c4.03,14.66,16.27,38.94,25.93,44.45c-17.98,0.24-26.47-2.58-41.58-9.49s-43.6-21.4-67.91-23.42
	c-24.32-2.02-57.06-17.38-56.63-38.22c0.42-20.84,35.98-29.84,51.57-17.53C719.75,297.72,708.13,296.45,708.13,296.45z"/>
<path class="st10" d="M405.57,195.08c27.05-20.77,19.75-32.86,4.27-40.45s-40.92-1.43-56.03,22.64s-27.35,41.96-30.34,56.87
	c-2.99,14.91-13.49,39.99-22.73,46.17c17.96-1.03,26.22-4.44,40.8-12.4c14.58-7.95,41.98-24.42,66.09-28.15
	c24.11-3.73,55.69-21.36,53.8-42.12s-38-27.23-52.68-13.85C394.08,197.17,405.57,195.08,405.57,195.08z"/>
<path class="st11" d="M491.14,112.72c4.96-11.42,1.05-32.75-26.98-35.63c-28.03-2.88-43.49,5.24-67.85,11.79
	c-24.36,6.55-32.48,4.19-32.48,4.19s10.74,12.05,34.06,17.03c23.32,4.98,21.74,24.89,39.03,29.86
	C454.2,144.94,479.09,140.49,491.14,112.72z"/>
<path class="st11" d="M619.13,152.61c13.16-1.57,31.04-4.91,47.15,6.88s40.67,33.99,41.26,45.98c-6.88-6.88-16.7-13.56-30.45-15.91
	c-13.75-2.36-35.37-1.18-47.55-7.66S619.13,152.61,619.13,152.61z"/>
<path class="st12" d="M530.42,176.74c-1.96-6.09-0.39-13.56,9.23-16.5s40.67-2.36,49.32,8.25c8.64,10.61,10.22,25.15,20.04,35.56
	c9.82,10.41,36.54,20.24,36.54,20.24s-26.13,10.22-46.17,6.29c-20.04-3.93-28.49-12.18-43.62-15.52
	c-15.13-3.34-33.2,6.48-43.03,0.59c-9.82-5.89-21.61-15.72-13.56-24.37C507.23,182.63,514.7,174.38,530.42,176.74z"/>
<path class="st11" d="M487.27,180.37c-9.04-11-15.33-8.64-20.24-6.88s-14.74,10.81-11,20.83c3.73,10.02,12.57,21.42,25.15,27.7
	c12.57,6.29,34.97,6.48,51.08,12.18c16.11,5.7,23.58,15.13,23.58,15.13s2.75-24.36-4.13-32.42s-20.04-23.97-23.58-34.38
	s-9.91-22.2-22.34-20.83c-12.43,1.38-15.59,6.88-16.66,11C488.06,176.83,487.27,180.37,487.27,180.37z"/>
<linearGradient id="SVGID_00000124878324979808588790000011874901423350529688_" gradientUnits="userSpaceOnUse" x1="-211.5965" y1="366.0271" x2="303.8629" y2="366.0271" gradientTransform="matrix(-1 0 0 1 353.3073 0)">
	<stop  offset="0" style="stop-color:#424242"/>
	<stop  offset="0.1341" style="stop-color:#FFFFFF"/>
	<stop  offset="0.7765" style="stop-color:#FFFFFF"/>
	<stop  offset="0.8743" style="stop-color:#FFFFFF"/>
	<stop  offset="0.903" style="stop-color:#FCFCFC"/>
	<stop  offset="0.9262" style="stop-color:#F2F2F2"/>
	<stop  offset="0.9476" style="stop-color:#E1E1E1"/>
	<stop  offset="0.9678" style="stop-color:#C9C9CA"/>
	<stop  offset="0.9871" style="stop-color:#AAAAAC"/>
	<stop  offset="1" style="stop-color:#919193"/>
</linearGradient>
<polygon style="fill:url(#SVGID_00000124878324979808588790000011874901423350529688_);" points="49.44,407.79 564.9,407.79 
	564.9,324.26 49.44,324.26 "/>
<linearGradient id="SVGID_00000150074718458509091950000006982340039543904663_" gradientUnits="userSpaceOnUse" x1="-216.7519" y1="413.2839" x2="309.0183" y2="413.2839" gradientTransform="matrix(-1 0 0 1 353.3073 0)">
	<stop  offset="0" style="stop-color:#424242"/>
	<stop  offset="0.1341" style="stop-color:#BCBCBC"/>
	<stop  offset="0.4589" style="stop-color:#BFBFBF"/>
	<stop  offset="0.6655" style="stop-color:#C7C7C7"/>
	<stop  offset="0.8386" style="stop-color:#D6D6D6"/>
	<stop  offset="0.8743" style="stop-color:#DADADA"/>
	<stop  offset="0.9083" style="stop-color:#D7D7D7"/>
	<stop  offset="0.936" style="stop-color:#CDCDCD"/>
	<stop  offset="0.9613" style="stop-color:#BCBCBD"/>
	<stop  offset="0.9852" style="stop-color:#A4A4A5"/>
	<stop  offset="1" style="stop-color:#919193"/>
</linearGradient>
<path style="fill:url(#SVGID_00000150074718458509091950000006982340039543904663_);" d="M47.44,418.78h519.46
	c1.74,0,3.15-1.41,3.15-3.15v-4.67c0-1.74-1.41-3.15-3.15-3.15H47.44c-1.74,0-3.15,1.41-3.15,3.15v4.67
	C44.29,417.36,45.7,418.78,47.44,418.78z"/>
</svg>
