<?xml version="1.0" encoding="utf-8"?>
<!-- Generator: Adobe Illustrator 26.1.0, SVG Export Plug-In . SVG Version: 6.00 Build 0)  -->
<svg version="1.1" id="Layer_1" xmlns="http://www.w3.org/2000/svg" xmlns:xlink="http://www.w3.org/1999/xlink" x="0px" y="0px"
	 viewBox="0 0 600 600" style="enable-background:new 0 0 600 600;" xml:space="preserve">
<g>
	<path d="M456.81,288.94c0,30.25,0,60.49,0,90.74c0,8.03-2.52,11.81-10.14,14.93c-20.51,8.41-41.04,16.77-61.57,25.15
		c-26.56,10.85-53.13,21.66-79.67,32.57c-6.43,2.64-12.61,2.88-19.22,0.31c-47.23-18.39-94.53-36.61-141.8-54.91
		c-7.92-3.07-10.78-7.39-10.78-15.91c0-60.78,0.1-121.55-0.1-182.32c-0.03-8.08,4.59-12.78,10.62-14.53
		c12.33-3.58,24.76-6.81,37.18-10.08c33.65-8.86,67.31-17.65,100.96-26.49c10.76-2.83,21.39-2.9,32.26,0.07
		c43.74,11.96,87.57,23.62,131.35,35.43c7.95,2.14,10.89,6.11,10.89,14.29C456.81,228.44,456.81,258.69,456.81,288.94z
		 M393.53,384.97c5.94-2.28,11.46-4.5,17.05-6.5c1.73-0.62,2.48-1.54,2.72-3.31c1.3-9.7,2.68-19.38,4.05-29.07
		c1.98-14.02,3.96-28.04,5.94-42.06c1.76-12.44,3.51-24.87,5.27-37.31c1.62-11.51,3.26-23.01,4.87-34.52
		c0.52-3.72,0.95-7.46,1.48-11.64c-6.56,2.42-12.51,4.83-18.6,6.77c-2.54,0.81-3.25,2.11-3.45,4.53
		c-0.9,10.97-1.95,21.92-2.97,32.88c-1.81,19.41-3.64,38.82-5.48,58.22c-0.25,2.64-0.61,5.27-0.93,7.9
		c-0.18-0.03-0.36-0.05-0.54-0.08c-5.07-31.09-10.14-62.18-15.26-93.56c-6.98,2.44-13.64,4.73-20.25,7.17
		c-0.57,0.21-1.01,1.39-1.11,2.17c-1.82,13.2-3.6,26.41-5.35,39.62c-1.97,14.88-3.88,29.76-5.84,44.63
		c-0.74,5.61-1.54,11.22-2.32,16.83c-0.1-0.01-0.21-0.02-0.31-0.03c-4.47-31.56-8.94-63.11-13.44-94.85
		c-6.07,2.07-11.59,4.05-17.17,5.81c-2.56,0.8-4.44,1.64-3.19,4.86c0.39,1.02,0.4,2.19,0.57,3.29c2.68,18.05,5.34,36.1,8.04,54.15
		c3.49,23.33,7.01,46.65,10.53,69.97c0.72,4.77,1.46,9.53,2.23,14.57c6.67-2.58,13.02-4.98,19.29-7.55
		c0.68-0.28,1.19-1.54,1.34-2.41c0.93-5.42,1.72-10.86,2.57-16.29c3.27-20.71,6.55-41.42,9.82-62.12
		c1.55-9.79,3.08-19.58,4.62-29.37c0.19-0.01,0.38-0.01,0.58-0.02C383.35,319.94,388.4,352.24,393.53,384.97z M164.2,326.49
		c-0.42,7.48,0.8,14.16,2.66,20.7c4.14,14.61,12.5,26.41,24.69,35.35c12.24,8.98,25.86,14.55,41.31,14.05
		c9.85-0.32,18.19-4.16,23.36-13.03c7.61-13.05,6.86-26.84,2.64-40.59c-4.49-14.64-14.76-24.78-27.31-32.85
		c-9.8-6.3-19.71-12.42-29.38-18.91c-6.1-4.1-9.96-9.61-9.42-17.57c0.5-7.3,4.85-11.92,12.11-11.15c9,0.96,16.82,4.76,22.49,12.12
		c3.65,4.74,4.82,10.39,5.67,16.16c0.14,0.97,1,2.36,1.82,2.63c6.91,2.25,13.89,4.28,20.84,6.38c1.59,0.48,2.3-0.07,2.19-1.75
		c-0.48-7.38-1.35-14.73-4.23-21.58c-10.07-23.93-28.61-36.95-53.91-40.17c-13.74-1.75-26.21,6.01-30.34,20.15
		c-1.86,6.38-1.93,12.84-1.32,19.4c1,10.75,5.07,20.16,11.97,28.39c7.56,9.02,17.46,15.03,27.2,21.29
		c6.89,4.43,13.86,8.8,20.31,13.81c6.48,5.03,10.28,11.78,9.4,20.42c-0.47,4.56-2.67,7.9-7.14,9.44c-4.9,1.69-9.75,0.79-14.59-0.4
		c-14.94-3.7-26.32-14.61-26.89-30.58c-0.04-1.05-1.17-2.57-2.17-3c-5.21-2.26-10.54-4.25-15.83-6.33
		C168.44,328.12,166.55,327.4,164.2,326.49z"/>
</g>
</svg>
