<?xml version="1.0" encoding="utf-8"?>
<!-- Generator: Adobe Illustrator 26.1.0, SVG Export Plug-In . SVG Version: 6.00 Build 0)  -->
<svg version="1.1" id="Layer_1" xmlns="http://www.w3.org/2000/svg" xmlns:xlink="http://www.w3.org/1999/xlink" x="0px" y="0px"
	 viewBox="0 0 600 600" style="enable-background:new 0 0 600 600;" xml:space="preserve">
<style type="text/css">
	.st0{fill: red;}
</style>
<g>
	<path class="st0" d="M539.87,439.42c-79.61,45.96-159.03,91.81-238.62,137.76c-79.58-45.94-159.02-91.8-238.76-137.83
		c0-91.79,0-183.71,0-276.36c79.3-45.79,158.99-91.81,238.74-137.85c79.69,46,159.12,91.85,238.64,137.76
		C539.87,255.07,539.87,347,539.87,439.42z M300.97,309.41c40.57,0.26,73.65-32.67,74.27-73.41c0.62-41.03-33.03-74.87-73.49-75.29
		c-41.96-0.44-75.07,33.8-75.27,73.99C226.28,275.19,259.35,309.77,300.97,309.41z M409.12,289.95
		c-0.08-10.74-8.73-19.14-19.57-19.01c-10.66,0.13-18.96,8.85-18.81,19.74c0.15,10.61,8.53,18.73,19.27,18.68
		C400.92,309.31,409.21,300.9,409.12,289.95z M352.18,343.48c0,13.34,0,26.07,0,39.07c2.73,0,5.11,0,8.01,0c0-9,0-17.64,0-26.29
		c0.22-0.02,0.45-0.04,0.67-0.06c4.54,8.82,9.08,17.65,13.53,26.31c3.56,0,6.63,0,10.06,0c0-13.12,0-25.82,0-38.91
		c-2.75,0-5.12,0-8.16,0c0,8.02,0,15.7,0,23.37c-0.34,0.06-0.69,0.11-1.03,0.17c-4.14-7.88-8.29-15.77-12.44-23.67
		C359.19,343.48,355.92,343.48,352.18,343.48z M221.08,382.29c7.35,0.63,14.44,1.36,21.35-1.25c5.71-2.15,8.88-7.32,7.5-12.99
		c-0.63-2.57-2.5-4.84-3.89-7.4c0.47-0.91,1.23-2.03,1.68-3.26c1.86-5.2-0.17-10.44-5.14-12.5c-6.98-2.89-14.21-1.78-21.5-1.47
		C221.08,356.74,221.08,369.34,221.08,382.29z M301.11,435.03c-0.34,0.02-0.67,0.04-1.01,0.05c-6.98-11.87-13.95-23.74-21.12-35.94
		c-2.73,0.16-5.25,0.3-7.81,0.45c0,15.8,0,30.89,0,46.29c1.86,0,3.42,0,5.61,0c0-12.37,0-24.53,0-36.69
		c0.29-0.04,0.57-0.08,0.86-0.12c7.21,12.28,14.43,24.56,21.62,36.8c2.69,0,5.1,0,7.7,0c0-15.55,0-30.76,0-46.49
		c-2.07,0.1-3.76,0.19-5.86,0.29c0,6.34,0,12.15,0,17.95C301.11,423.43,301.11,429.23,301.11,435.03z M411.54,425.59
		c1.2-0.72,2.22-1.27,3.17-1.91c4.21-2.82,6.35-6.81,6.04-11.84c-0.33-5.29-3.05-9.16-8.07-10.99c-7.21-2.63-14.58-2.13-21.86-1.04
		c-1.13,7.22-0.72,42.72,0.54,46.34c1.49-0.08,3.08-0.16,4.93-0.26c0.25-6.45,0.48-12.49,0.71-18.5c3.12,0,5.55,0,8.07,0
		c4.2,6.36,8.3,12.58,12.4,18.79c1.3,0,2.3,0.06,3.28-0.02c1.07-0.08,2.14-0.28,4.06-0.54C420.17,438.62,415.9,432.17,411.54,425.59
		z M181.65,343.81c0,9.5-0.24,18.45,0.08,27.39c0.25,7.07,6.15,11.28,12.62,11.87c1.98,0.18,4,0.18,5.98-0.03
		c7.61-0.79,12.55-5.79,12.82-13.44c0.28-7.98,0.12-15.98,0.1-23.97c0-0.59-0.39-1.18-0.63-1.85c-2.6,0-5.02,0-7.95,0
		c0,2.67,0.01,4.97,0,7.27c-0.03,5.66,0.17,11.33-0.18,16.97c-0.33,5.29-2.91,7.45-7.6,7.19c-4.39-0.24-6.55-2.63-6.79-7.58
		c-0.07-1.49-0.02-3-0.02-4.49c0-6.3,0-12.61,0-19.34C187.07,343.81,184.51,343.81,181.65,343.81z M319.18,382.55
		c1.2-2.92,2.38-5.78,3.51-8.53c4.54,0,8.65,0,12.95,0c1.25,3.01,2.43,5.86,3.56,8.56c3.03,0,5.6,0,8.94,0
		c-4.7-13.32-9.2-26.06-13.73-38.91c-3.7,0-6.95,0-10.15,0c-4.42,12.95-8.74,25.6-13.27,38.87
		C314.22,382.55,316.61,382.55,319.18,382.55z M450.66,343.57c-8.62,0-16.5,0-24.7,0c0,13.11,0,25.83,0,38.89
		c8.52,0,16.72,0,25.54,0c0.19-2.62,0.35-4.92,0.56-7.84c-6.29,0-11.84,0-17.4,0c0-2.81,0-5.05,0-8.03c5.23,0,10.11,0,14.99,0
		c0-2.98,0-5.2,0-8.05c-5.28,0-10.16,0-15.36,0c0.13-2.74,0.24-4.83,0.37-7.49c5.67,0,10.9,0,16.47,0
		C450.97,348.34,450.83,346.24,450.66,343.57z M236.26,432.07c1.75,4.69,3.51,9.43,5.31,14.26c2.37-0.12,4.23-0.21,6.64-0.33
		c-5.81-15.99-11.35-31.22-16.86-46.39c-2.91,0-5.31,0-7.65,0c-5.24,15.69-11.32,30.64-16.38,46.65c2.63-0.15,4.37-0.25,6.07-0.34
		c1.83-4.86,3.51-9.32,5.22-13.84C224.57,432.07,230.19,432.07,236.26,432.07z M381.83,399.55c-9.33,0-18.06,0-27.12,0
		c0,15.62,0,30.86,0,46.58c9.57,0.14,18.77,0.19,28.21-0.07c0-2.21,0-3.65,0-5.6c-7.28-0.15-14.48-0.31-21.54-0.46
		c0-5.35,0-9.93,0-15.1c6.45,0,12.51,0,18.83,0c-0.09-2.07-0.16-3.53-0.25-5.69c-6.3,0-12.36,0-18.88,0
		c0.13-5.1-0.58-9.48,0.47-14.23c6.98,0,13.59,0,20.3,0C381.83,403.11,381.83,401.68,381.83,399.55z M150.43,372.86
		c0,2.8,0,5.22,0,8c7.03,3.23,14.13,3.65,20.97-0.05c2.08-1.13,3.85-3.73,4.71-6.05c1.92-5.18,0.03-9.96-4.75-12.88
		c-2.82-1.72-5.98-2.88-8.92-4.4c-2.11-1.09-4.26-2.27-2.62-6.09c2-0.22,4.39-0.76,6.76-0.68c2.41,0.08,4.81,0.77,7.62,1.27
		c0-2.71,0-5.11,0-7.57c-4.95-2.14-9.92-2.09-14.84-1.07c-5.25,1.09-8.52,4.88-9.21,9.94c-0.61,4.53,1.83,8.96,6.48,11.4
		c2.05,1.08,4.3,1.78,6.4,2.78c2.08,0.99,4.31,1.9,4.89,5.23C162.55,377.88,156.82,374.36,150.43,372.86z M271.35,373.95
		c-5.43,3.33-10.72,0.3-16.29-0.96c0,2.9,0,5.47,0,8.12c5.62,2.65,11.18,2.66,16.77,1.37c4.94-1.14,8.34-4.11,9.13-9.35
		c0.82-5.46-1.66-9.34-6.32-11.88c-2.47-1.35-5.13-2.35-7.65-3.6c-1.93-0.96-3.99-1.92-3.65-4.68c3.45-2.82,3.45-2.82,15.33-1.16
		c0-2.43,0-4.8,0-7.05c-4.39-1.98-6.96-2.35-12.35-1.89c-6.24,0.54-10.49,3.95-11.49,9.23c-1.1,5.81,1.03,9.9,6.9,12.9
		c2.36,1.21,4.88,2.1,7.26,3.28C271.26,369.4,272.85,370.96,271.35,373.95z M184.09,430.16c2.93,0,5.14,0.33,7.2-0.08
		c3.37-0.67,6.94-1.27,9.91-2.86c8.91-4.8,9.62-18.7,1.32-24.45c-7.56-5.23-15.96-3.86-24.33-3.12c0,15.82,0,30.89,0,46.22
		c2.03,0,3.74,0,5.9,0C184.09,440.66,184.09,435.73,184.09,430.16z M419.93,344.08c-9.75-3.55-21.25-0.36-26.24,7.1
		c-5.07,7.57-4.3,18.98,1.28,25.67c4.52,5.41,17.73,8.69,24.68,4.53c0-2.27,0-4.46,0-6.39c-3.45,0-6.44,0.16-9.41-0.04
		c-5.13-0.34-8.88-3.41-10.22-8.07c-2.88-10,3.78-17.77,14.13-16.44c1.89,0.24,3.77,0.63,5.8,0.98
		C419.93,348.51,419.93,346.24,419.93,344.08z M303.15,382.63c0-10.51,0-20.71,0-31.08c4.29-0.19,7.87-0.35,11.98-0.54
		c-0.25-2.65-0.46-4.84-0.72-7.56c-10.68-0.1-20.86-0.32-31.21,0.12c-0.3,2.83-0.52,4.9-0.81,7.67c4.1,0,7.66,0,11.78,0
		c0,5.75-0.09,10.87,0.03,15.99c0.12,5.09-0.56,10.23,0.55,15.4C297.6,382.63,300.02,382.63,303.15,382.63z M301.4,123.85
		c-7.07,0.07-12.5,5.42-12.44,12.25c0.06,6.88,5.5,12.15,12.55,12.16c6.89,0,12.34-5.62,12.13-12.51
		C313.43,128.98,308.08,123.78,301.4,123.85z M327.58,405.16c0.21,13.93-0.05,27.32,0.14,41.07c2.5-0.15,4.22-0.26,6.44-0.4
		c0-13.74,0-26.99,0-40.78c5.27,0,10.02,0,15.16,0c-0.26-2.17-0.44-3.74-0.66-5.55c-11.96,0-23.54,0-35.42,0
		c-0.24,1.87-0.45,3.45-0.73,5.65C317.63,405.16,322.37,405.16,327.58,405.16z M259.11,446.02c1.16-4.89,1-42.6-0.3-46.65
		c-1.56,0.07-3.26,0.15-5.2,0.24c0,15.72,0,30.92,0,46.41C255.69,446.02,257.42,446.02,259.11,446.02z M233.3,290.36
		c0.04-4.93-3.47-8.52-8.36-8.56c-4.89-0.05-8.68,3.47-8.88,8.23c-0.2,4.62,4.16,9.06,8.8,8.97
		C229.7,298.9,233.26,295.25,233.3,290.36z"/>
	<path class="st0" d="M251.62,232.22c0-8.62,0-16.9,0-25.65c16.15-9.33,32.41-18.72,49.19-28.41c16.19,9.32,32.57,18.75,49.07,28.25
		c0,8.48,0,16.73,0,25.5c-7.46-2.41-14.51-4.69-21.59-6.98c-0.26-1.95-0.48-3.57-0.74-5.48c-8.87-5.14-17.76-10.3-26.71-15.48
		c-6.41,3.75-12.55,7.34-18.69,10.93c-0.01,0.38-0.02,0.76-0.03,1.13c22.37,7.57,44.99,14.39,67.67,21.89c0,8.61,0,17.03,0,25.9
		c-16.06,9.27-32.32,18.66-48.9,28.24c-16.39-9.44-32.8-18.89-49.19-28.33c0-8.3,0-16.38,0-25.35c7.61,2.37,14.67,4.56,21.8,6.78
		c0.25,1.91,0.47,3.52,0.75,5.65c8.65,5.02,17.54,10.18,26.59,15.43c6.61-3.82,13.06-7.53,20.63-11.9
		C297.47,246.73,274.61,239.49,251.62,232.22z"/>
	<path class="st0" d="M229.21,366.27c4.21-0.12,7.97-0.95,11.15,1.89c1.3,6.12-2.12,8.23-10.81,6.47c-0.11-1.18-0.27-2.44-0.33-3.71
		C229.16,369.61,229.21,368.29,229.21,366.27z"/>
	<path class="st0" d="M238.41,358.29c-2.91,0-5.64,0-8.74,0c0-2.38,0-4.43,0-6.5c4.15-1.52,8-1.22,9.4,0.91
		C240.43,354.75,240.09,356.71,238.41,358.29z"/>
	<path class="st0" d="M397.1,421.61c0-5.59,0-10.65,0-15.99c3.73-0.94,7.47-0.98,11.14,0.06c4.22,1.19,5.99,3.57,5.99,7.43
		c0,4.14-1.94,6.64-6.14,7.86c-0.95,0.28-1.93,0.58-2.9,0.61C402.73,421.67,400.27,421.61,397.1,421.61z"/>
	<path class="st0" d="M333.3,365.17c-3.04,0-5.27,0-8.21,0c1.25-4.18,2.34-7.86,3.43-11.53c0.33-0.04,0.66-0.09,0.99-0.13
		C330.68,357.13,331.86,360.74,333.3,365.17z"/>
	<path class="st0" d="M234.12,425.72c-4.86,0-8.99,0-13.76,0c2.13-6.41,4.18-12.58,6.23-18.74c0.29-0.06,0.58-0.12,0.87-0.18
		C229.61,412.88,231.75,418.96,234.12,425.72z"/>
	<path class="st0" d="M184.26,425.04c0-7.16,0-13.12,0-19.3c4.02-1.12,7.89-0.98,11.67,0.43c3.8,1.42,6.02,4.91,5.89,8.93
		c-0.13,4.04-2.46,7.58-6.4,8.54C191.98,424.48,188.35,424.56,184.26,425.04z"/>
</g>
</svg>
