<?xml version="1.0" encoding="utf-8"?>
<!-- Generator: Adobe Illustrator 26.1.0, SVG Export Plug-In . SVG Version: 6.00 Build 0)  -->
<svg version="1.1" id="Layer_1" xmlns="http://www.w3.org/2000/svg" xmlns:xlink="http://www.w3.org/1999/xlink" x="0px" y="0px"
	 viewBox="0 0 600 600" style="enable-background:new 0 0 600 600;" xml:space="preserve">
<style type="text/css">
	.st0{fill: #FFFFFF}
</style>
<g>
	<path class="st0" d="M457.76,457.88c-105.01,0-210.02,0-315.03,0c0-105,0-210,0-315c105.01,0,210.02,0,315.03,0
		C457.76,247.88,457.76,352.88,457.76,457.88z M300.3,290.88c10.73-11.6,21.71-23.4,32.6-35.27c1.99-2.17,3.76-1.74,6.14-0.64
		c24.38,11.3,56.75-1.63,67.29-26.78c2.86-6.83,0.98-13.69-5.12-16.89c-5.23-2.74-11.13-4.92-16.81-2.61
		c-8.08,3.28-15.94,7.3-23.45,11.75c-3.69,2.19-6.48,2.87-10.51,1.16c-9.49-4.03-19.17-7.63-28.84-11.24
		c-18.52-6.92-37.53-9.16-56.86-4.43c-20.61,5.04-38.17,15.86-52.53,31.25c-8.35,8.95-15.33,19.21-22.69,29.06
		c-0.97,1.3-0.51,3.68-0.71,5.57c1.71,0.18,3.64,0.95,5.1,0.43c8.91-3.16,17.79-6.45,26.53-10.04c5.27-2.17,7.8-6.19,7.34-12.27
		c-0.45-5.93,1.63-11.49,6.42-15.04c6.11-4.51,12.64-8.54,19.31-12.18c8.85-4.83,18.47-5.52,27.41-0.91
		c14.99,7.73,29.54,16.33,44.35,24.61c-0.97,1.67-1.13,2.18-1.48,2.49c-15.07,13.48-28.67,28.31-40.78,44.51
		c-0.9,1.21-2.54,2.22-4.02,2.59c-21.9,5.45-41.66,15.75-60.98,26.97c-21.67,12.58-41.1,27.89-55.43,48.77
		c-3.02,4.41-4.97,9.77-6.46,14.96c-1.37,4.8,0.94,7.05,6.01,7.33c10.21,0.58,19.84-1.96,29.19-5.66
		c32.15-12.73,56.99-35.23,79.67-60.41c3.69-4.1,7.35-6.36,12.72-6.02c16.43,1.05,32.92,1.55,49.28,3.26
		c16.74,1.75,33.34,4.98,48.55,12.62c5.83,2.93,11.23,7.04,16.14,11.38c3.38,2.99,5.15,7.53,3.23,12.3
		c-3.55,8.79,0.02,15.22,6.71,20.48c8.25,6.48,16.6,12.83,25.11,18.96c3.07,2.21,6.61,3.91,10.14,5.32c5,2,7.62-0.1,6.74-5.28
		c-0.44-2.59-1.33-5.18-2.42-7.58c-21.48-47.31-57.49-78.49-106.63-94.31C327.94,295.01,314.43,293.67,300.3,290.88z M215.78,450.79
		c13.18,0,25.81,0.34,38.41-0.2c4.07-0.18,8.59-1.91,11.96-4.27c7.36-5.16,6.31-14.38-1.61-18.61c-1.36-0.72-2.75-1.37-4.49-2.24
		c4.54-2.58,8.1-5.33,7.69-10.64c-0.37-4.73-3.56-7.42-7.58-9.02c-2.57-1.03-5.42-1.8-8.17-1.87c-11.14-0.32-22.29-0.34-33.43-0.41
		c-0.91-0.01-1.83,0.4-2.77,0.63C215.78,419.69,215.78,434.96,215.78,450.79z M329.67,195.44c6.44-0.7,10.75-1.13,15.04-1.66
		c1.65-0.2,3.29-0.54,4.9-0.93c7.28-1.75,9.42-4.79,8.03-12.25c-1.83-9.84-6.85-18.05-14.21-24.67c-9.72-8.75-21.32-7.82-29.77,2.26
		c-2.22,2.64-4.12,5.71-5.48,8.88c-4.21,9.76-0.84,19.84,8.72,24.63C321.36,193.94,326.62,194.59,329.67,195.44z M157.17,411.76
		c9.79,0,19.32,0,28.84,0c0.33,0.55,0.67,1.1,1,1.65c-0.91,0.4-1.98,0.62-2.7,1.24c-9.03,7.88-17.78,16.12-27.12,23.63
		c-4.39,3.53-4.92,7.3-4,12.25c18.07,0,35.93,0,53.92,0c0-2.64,0-4.9,0-7.88c-12.21,0-24.17,0-37.32,0
		c11.29-9.94,21.36-19.15,31.86-27.85c3.78-3.13,4.9-6.29,3.61-10.87c-16.04,0-32.06,0-48.11,0
		C157.17,406.63,157.17,408.88,157.17,411.76z M320.19,450c-4.31-4.5-8.4-8.79-12.61-13.2c0.81-0.31,1.56-0.61,2.33-0.89
		c4.22-1.52,7.45-3.81,6.92-8.97c-0.53-5.1-4.37-7.4-8.53-7.64c-9.22-0.54-18.49-0.17-27.84-0.17c0,10.56,0,20.97,0,31.43
		c3.05,0,5.79,0,9.08,0c0-4.4,0-8.48,0-12.48c5.83-1.44,9.41,1.13,12.57,4.91C306.56,448.31,311.13,453.51,320.19,450z
		 M404.26,427.68c-1.11-2.06-1.62-3.47-2.52-4.58c-5.22-6.45-24.69-6.6-30-0.29c-2.86,3.39-2.44,7.79,1.7,10.26
		c3.05,1.82,6.72,2.71,10.19,3.72c3.18,0.93,6.58,1.16,9.69,2.26c2.97,1.05,3.31,3.12,0.6,5.15c-3.43,2.59-12.16,2.45-14.38-0.98
		c-3.12-4.83-6.76-3.2-11.25-1.7c1.95,2.96,3.94,6.2,6.82,7.6c7.48,3.63,15.46,3.49,23.24,0.58c3.79-1.42,6.6-3.88,6.57-8.45
		c-0.03-4.64-3.07-6.98-6.86-8.15c-4.59-1.41-9.4-2.07-14.06-3.27c-1.88-0.49-3.62-1.56-5.78-2.53c4.09-3.85,11.07-5.07,13.82-2.06
		C395.54,429.07,399.31,428.06,404.26,427.68z M421.74,430.8c0-4.05,0-7.79,0-11.76c-3.24,0-5.95,0-8.77,0c0,10.71,0,21.09,0,31.47
		c3.05,0,5.76,0,8.98,0c0-4.63,0-8.87,0-13.14c6.06,0,11.59,0,17.65,0c0,4.65,0,8.89,0,13.14c3.26,0,5.97,0,8.6,0
		c0-10.76,0-21.11,0-31.49c-3.05,0-5.64,0-8.76,0c0,4,0,7.75,0,11.78C433.37,430.8,427.82,430.8,421.74,430.8z M351.91,418.95
		c0,7.02,0.19,13.48-0.11,19.93c-0.09,1.9-1.28,5.12-2.43,5.35c-3.72,0.73-7.92,1.17-11.39,0.04c-1.74-0.57-3.02-4.73-3.23-7.36
		c-0.47-5.9-0.15-11.86-0.15-17.83c-3.48,0-6.22,0-8.87,0c0,7.79-0.49,15.28,0.26,22.65c0.28,2.71,2.95,6.31,5.46,7.46
		c7.82,3.57,16.21,3.84,24.03-0.13c2.3-1.17,4.87-4.26,5.07-6.66c0.65-7.7,0.24-15.48,0.24-23.44
		C357.86,418.95,355.26,418.95,351.91,418.95z"/>
	<path class="st0" d="M257.11,325.83c-5.93,6.2-11.66,12.59-17.81,18.55c-13.1,12.69-27.53,23.69-43.75,32.12c-4.81,2.5-10.1,4.3-15.37,5.67
		c-6.43,1.67-9.31-1.65-7.19-7.99c3.22-9.66,9.39-17.22,17.72-22.92C210.66,337.62,232.84,329.53,257.11,325.83z"/>
	<path class="st0" d="M366.76,227.49c10.01-5.84,18.93-10.69,29.8-8.84c1.54,0.26,3.9,1.63,4.04,2.72c0.17,1.34-1.26,3.37-2.57,4.35
		c-6.11,4.59-13.26,4.83-20.46,4.02C374.35,229.38,371.2,228.43,366.76,227.49z"/>
	<path class="st0" d="M229.25,443.16c0-4.69,0-8.29,0-12.01c7.65,0,15.22-0.34,22.71,0.25c1.77,0.14,4.53,3.38,4.57,5.25
		c0.04,1.78-2.71,4.96-4.53,5.19C244.65,442.77,237.2,442.79,229.25,443.16z"/>
	<path class="st0" d="M229.34,421.76c0-3.45,0-6.52,0-9.83c6.87,0,13.49-0.37,20.03,0.23c1.89,0.18,3.53,3.15,5.28,4.84
		c-1.69,1.58-3.27,4.38-5.08,4.53C243.02,422.09,236.39,421.76,229.34,421.76z"/>
	<path class="st0" d="M289.75,431.89c0-2.55,0-4.78,0-7.3c4.73,0,9.21-0.3,13.61,0.17c1.48,0.16,2.74,2.29,4.11,3.52
		c-1.37,1.2-2.66,3.29-4.14,3.45C298.93,432.19,294.46,431.89,289.75,431.89z"/>
</g>
</svg>
